0
SECTION
2
HEADER
9
$ACADVER
1
AC1008
9
$UCSORG
10
0.0
20
0.0
30
0.0
9
$UCSXDIR
10
1.0
20
0.0
30
0.0
9
$TILEMODE
70
1
9
$UCSYDIR
10
0.0
20
1.0
30
0.0
9
$EXTMIN
10
-40.847900
20
-28.196152
30
-0.000002
9
$EXTMAX
10
40.847893
20
25.675079
30
102.039856
0
ENDSEC
0
SECTION
2
TABLES
0
TABLE
2
LTYPE
70
1
0
LTYPE
2
CONTINUOUS
70
64
3
Solid line
72
65
73
0
40
0.0
0
ENDTAB
0
TABLE
2
LAYER
70
6
0
LAYER
2
SIDEBOARD
70
0
62
232
6
CONTINUOUS
0
LAYER
2
BOX05
70
0
62
171
6
CONTINUOUS
0
LAYER
2
BOX04
70
0
62
171
6
CONTINUOUS
0
LAYER
2
BOX03
70
0
62
171
6
CONTINUOUS
0
LAYER
2
BOX02
70
0
62
171
6
CONTINUOUS
0
LAYER
2
BOX01
70
0
62
171
6
CONTINUOUS
0
ENDTAB
0
TABLE
2
STYLE
70
1
0
STYLE
2
STANDARD
70
0
40
0.0
41
1.0
50
0.0
71
0
42
0.2
3
txt
4

0
ENDTAB
0
TABLE
2
UCS
70
0
0
ENDTAB
0
ENDSEC
0
SECTION
2
ENTITIES
0
POLYLINE
8
SIDEBOARD
66
1
70
64
71
92
72
148
62
232
0
VERTEX
8
SIDEBOARD
10
38.929634
20
-23.734440
30
100.023643
70
192
0
VERTEX
8
SIDEBOARD
10
38.929634
20
23.693180
30
100.023636
70
192
0
VERTEX
8
SIDEBOARD
10
-38.907349
20
23.693192
30
100.023636
70
192
0
VERTEX
8
SIDEBOARD
10
-38.907349
20
-23.734428
30
100.023643
70
192
0
VERTEX
8
SIDEBOARD
10
38.929634
20
-23.734442
30
102.039841
70
192
0
VERTEX
8
SIDEBOARD
10
38.929634
20
23.693176
30
102.039841
70
192
0
VERTEX
8
SIDEBOARD
10
-38.907349
20
23.693188
30
102.039848
70
192
0
VERTEX
8
SIDEBOARD
10
-38.907349
20
-23.734430
30
102.039856
70
192
0
VERTEX
8
SIDEBOARD
10
40.847893
20
-25.675062
30
100.023643
70
192
0
VERTEX
8
SIDEBOARD
10
40.847893
20
25.675068
30
100.023636
70
192
0
VERTEX
8
SIDEBOARD
10
-40.847900
20
25.675079
30
100.023636
70
192
0
VERTEX
8
SIDEBOARD
10
-40.847900
20
-25.675051
30
100.023643
70
192
0
VERTEX
8
SIDEBOARD
10
38.929634
20
-23.734440
30
100.023643
70
192
0
VERTEX
8
SIDEBOARD
10
-38.907349
20
-23.734428
30
100.023643
70
192
0
VERTEX
8
SIDEBOARD
10
-38.907349
20
23.693192
30
100.023636
70
192
0
VERTEX
8
SIDEBOARD
10
38.929634
20
23.693180
30
100.023636
70
192
0
VERTEX
8
SIDEBOARD
10
40.847893
20
-25.675062
30
102.039841
70
192
0
VERTEX
8
SIDEBOARD
10
40.847893
20
25.675060
30
102.039833
70
192
0
VERTEX
8
SIDEBOARD
10
-40.847900
20
25.675076
30
102.039848
70
192
0
VERTEX
8
SIDEBOARD
10
-40.847900
20
-25.675051
30
102.039856
70
192
0
VERTEX
8
SIDEBOARD
10
38.929634
20
-23.734442
30
102.039841
70
192
0
VERTEX
8
SIDEBOARD
10
-38.907349
20
-23.734430
30
102.039856
70
192
0
VERTEX
8
SIDEBOARD
10
-38.907349
20
23.693188
30
102.039848
70
192
0
VERTEX
8
SIDEBOARD
10
38.929634
20
23.693176
30
102.039841
70
192
0
VERTEX
8
SIDEBOARD
10
-40.847900
20
23.693192
30
100.023636
70
192
0
VERTEX
8
SIDEBOARD
10
-38.907349
20
23.693192
30
100.023636
70
192
0
VERTEX
8
SIDEBOARD
10
-38.907349
20
25.675079
30
100.023636
70
192
0
VERTEX
8
SIDEBOARD
10
-40.847900
20
25.675079
30
100.023636
70
192
0
VERTEX
8
SIDEBOARD
10
-40.847900
20
23.693172
30
0.000006
70
192
0
VERTEX
8
SIDEBOARD
10
-38.907349
20
23.693172
30
0.000006
70
192
0
VERTEX
8
SIDEBOARD
10
-38.907349
20
25.675060
30
0.000005
70
192
0
VERTEX
8
SIDEBOARD
10
-40.847900
20
25.675060
30
0.000005
70
192
0
VERTEX
8
SIDEBOARD
10
-40.847900
20
-25.675051
30
100.023643
70
192
0
VERTEX
8
SIDEBOARD
10
-38.907349
20
-25.675053
30
100.023643
70
192
0
VERTEX
8
SIDEBOARD
10
-38.907349
20
-23.734428
30
100.023643
70
192
0
VERTEX
8
SIDEBOARD
10
-40.847900
20
-23.734426
30
100.023643
70
192
0
VERTEX
8
SIDEBOARD
10
-40.847900
20
-25.675064
30
0.000008
70
192
0
VERTEX
8
SIDEBOARD
10
-38.907349
20
-25.675064
30
0.000008
70
192
0
VERTEX
8
SIDEBOARD
10
-38.907349
20
-23.734444
30
0.000007
70
192
0
VERTEX
8
SIDEBOARD
10
-40.847900
20
-23.734444
30
0.000007
70
192
0
VERTEX
8
SIDEBOARD
10
38.929634
20
23.693180
30
100.023636
70
192
0
VERTEX
8
SIDEBOARD
10
40.847893
20
23.693180
30
100.023636
70
192
0
VERTEX
8
SIDEBOARD
10
40.847893
20
25.675068
30
100.023636
70
192
0
VERTEX
8
SIDEBOARD
10
38.929634
20
25.675068
30
100.023636
70
192
0
VERTEX
8
SIDEBOARD
10
38.929634
20
23.693161
30
0.000006
70
192
0
VERTEX
8
SIDEBOARD
10
40.847893
20
23.693161
30
0.000006
70
192
0
VERTEX
8
SIDEBOARD
10
40.847893
20
25.675049
30
0.000005
70
192
0
VERTEX
8
SIDEBOARD
10
38.929634
20
25.675049
30
0.000005
70
192
0
VERTEX
8
SIDEBOARD
10
38.929634
20
-25.675062
30
100.023643
70
192
0
VERTEX
8
SIDEBOARD
10
40.847893
20
-25.675062
30
100.023643
70
192
0
VERTEX
8
SIDEBOARD
10
40.847893
20
-23.734440
30
100.023643
70
192
0
VERTEX
8
SIDEBOARD
10
38.929634
20
-23.734440
30
100.023643
70
192
0
VERTEX
8
SIDEBOARD
10
38.929634
20
-25.675076
30
0.000008
70
192
0
VERTEX
8
SIDEBOARD
10
40.847893
20
-25.675076
30
0.000008
70
192
0
VERTEX
8
SIDEBOARD
10
40.847893
20
-23.734455
30
0.000007
70
192
0
VERTEX
8
SIDEBOARD
10
38.929634
20
-23.734455
30
0.000007
70
192
0
VERTEX
8
SIDEBOARD
10
38.929573
20
23.693180
30
100.023636
70
192
0
VERTEX
8
SIDEBOARD
10
-38.907372
20
23.693180
30
100.023636
70
192
0
VERTEX
8
SIDEBOARD
10
-38.907364
20
23.693172
30
-0.000002
70
192
0
VERTEX
8
SIDEBOARD
10
38.929604
20
23.693172
30
-0.000002
70
192
0
VERTEX
8
SIDEBOARD
10
38.929604
20
25.675060
30
-0.000002
70
192
0
VERTEX
8
SIDEBOARD
10
38.929604
20
25.675068
30
100.023636
70
192
0
VERTEX
8
SIDEBOARD
10
-38.907356
20
25.675060
30
-0.000002
70
192
0
VERTEX
8
SIDEBOARD
10
-38.907356
20
25.675068
30
100.023636
70
192
0
VERTEX
8
SIDEBOARD
10
-40.847900
20
23.693192
30
100.023643
70
192
0
VERTEX
8
SIDEBOARD
10
-40.847900
20
-23.734430
30
100.023643
70
192
0
VERTEX
8
SIDEBOARD
10
-40.847900
20
-23.734446
30
0.000007
70
192
0
VERTEX
8
SIDEBOARD
10
-40.847900
20
23.693172
30
0.000006
70
192
0
VERTEX
8
SIDEBOARD
10
-38.907349
20
23.693192
30
100.023643
70
192
0
VERTEX
8
SIDEBOARD
10
-38.907349
20
-23.734432
30
100.023643
70
192
0
VERTEX
8
SIDEBOARD
10
-38.907349
20
-23.734447
30
0.000007
70
192
0
VERTEX
8
SIDEBOARD
10
-38.907349
20
23.693172
30
0.000006
70
192
0
VERTEX
8
SIDEBOARD
10
38.929634
20
23.693180
30
100.023643
70
192
0
VERTEX
8
SIDEBOARD
10
38.929634
20
-23.734442
30
100.023643
70
192
0
VERTEX
8
SIDEBOARD
10
38.929634
20
-23.734459
30
0.000007
70
192
0
VERTEX
8
SIDEBOARD
10
38.929634
20
23.693161
30
0.000006
70
192
0
VERTEX
8
SIDEBOARD
10
40.847893
20
23.693180
30
100.023643
70
192
0
VERTEX
8
SIDEBOARD
10
40.847893
20
-23.734442
30
100.023643
70
192
0
VERTEX
8
SIDEBOARD
10
40.847893
20
-23.734457
30
0.000007
70
192
0
VERTEX
8
SIDEBOARD
10
40.847893
20
23.693161
30
0.000006
70
192
0
VERTEX
8
SIDEBOARD
10
38.929619
20
-23.734444
30
10.039863
70
192
0
VERTEX
8
SIDEBOARD
10
38.929619
20
-23.734446
30
0.000007
70
192
0
VERTEX
8
SIDEBOARD
10
-38.907349
20
-23.734446
30
0.000007
70
192
0
VERTEX
8
SIDEBOARD
10
-38.907349
20
-23.734444
30
10.039863
70
192
0
VERTEX
8
SIDEBOARD
10
38.929619
20
-21.734444
30
8.335799
70
192
0
VERTEX
8
SIDEBOARD
10
38.929619
20
-21.734446
30
0.000006
70
192
0
VERTEX
8
SIDEBOARD
10
-38.907349
20
-21.734446
30
0.000006
70
192
0
VERTEX
8
SIDEBOARD
10
-38.907349
20
-21.734444
30
8.335799
70
192
0
VERTEX
8
SIDEBOARD
10
38.929619
20
23.693176
30
10.039854
70
192
0
VERTEX
8
SIDEBOARD
10
-38.907349
20
23.693176
30
10.039854
70
192
0
VERTEX
8
SIDEBOARD
10
38.929619
20
23.693174
30
8.335791
70
192
0
VERTEX
8
SIDEBOARD
10
-38.907349
20
23.693174
30
8.335791
70
192
0
VERTEX
8
SIDEBOARD
10
0
20
0
30
0
70
128
71
1
72
4
73
-3
0
VERTEX
8
SIDEBOARD
10
0
20
0
30
0
70
128
71
-1
72
3
73
2
0
VERTEX
8
SIDEBOARD
10
0
20
0
30
0
70
128
71
1
72
2
73
-6
0
VERTEX
8
SIDEBOARD
10
0
20
0
30
0
70
128
71
-1
72
6
73
5
0
VERTEX
8
SIDEBOARD
10
0
20
0
30
0
70
128
71
2
72
3
73
-7
0
VERTEX
8
SIDEBOARD
10
0
20
0
30
0
70
128
71
-2
72
7
73
6
0
VERTEX
8
SIDEBOARD
10
0
20
0
30
0
70
128
71
3
72
4
73
-8
0
VERTEX
8
SIDEBOARD
10
0
20
0
30
0
70
128
71
-3
72
8
73
7
0
VERTEX
8
SIDEBOARD
10
0
20
0
30
0
70
128
71
4
72
1
73
-5
0
VERTEX
8
SIDEBOARD
10
0
20
0
30
0
70
128
71
-4
72
5
73
8
0
VERTEX
8
SIDEBOARD
10
0
20
0
30
0
70
128
71
7
72
8
73
-5
0
VERTEX
8
SIDEBOARD
10
0
20
0
30
0
70
128
71
6
72
-7
73
5
0
VERTEX
8
SIDEBOARD
10
0
20
0
30
0
70
128
71
10
72
-9
73
-13
0
VERTEX
8
SIDEBOARD
10
0
20
0
30
0
70
128
71
-10
72
13
73
-16
0
VERTEX
8
SIDEBOARD
10
0
20
0
30
0
70
128
71
11
72
-10
73
-16
0
VERTEX
8
SIDEBOARD
10
0
20
0
30
0
70
128
71
-11
72
16
73
-15
0
VERTEX
8
SIDEBOARD
10
0
20
0
30
0
70
128
71
12
72
-11
73
-15
0
VERTEX
8
SIDEBOARD
10
0
20
0
30
0
70
128
71
-12
72
15
73
-14
0
VERTEX
8
SIDEBOARD
10
0
20
0
30
0
70
128
71
-13
72
9
73
-12
0
VERTEX
8
SIDEBOARD
10
0
20
0
30
0
70
128
71
14
72
-13
73
-12
0
VERTEX
8
SIDEBOARD
10
0
20
0
30
0
70
128
71
9
72
10
73
-18
0
VERTEX
8
SIDEBOARD
10
0
20
0
30
0
70
128
71
-9
72
18
73
17
0
VERTEX
8
SIDEBOARD
10
0
20
0
30
0
70
128
71
10
72
11
73
-19
0
VERTEX
8
SIDEBOARD
10
0
20
0
30
0
70
128
71
-10
72
19
73
18
0
VERTEX
8
SIDEBOARD
10
0
20
0
30
0
70
128
71
11
72
12
73
-20
0
VERTEX
8
SIDEBOARD
10
0
20
0
30
0
70
128
71
-11
72
20
73
19
0
VERTEX
8
SIDEBOARD
10
0
20
0
30
0
70
128
71
12
72
9
73
-17
0
VERTEX
8
SIDEBOARD
10
0
20
0
30
0
70
128
71
-12
72
17
73
20
0
VERTEX
8
SIDEBOARD
10
0
20
0
30
0
70
128
71
13
72
14
73
-22
0
VERTEX
8
SIDEBOARD
10
0
20
0
30
0
70
128
71
-13
72
22
73
21
0
VERTEX
8
SIDEBOARD
10
0
20
0
30
0
70
128
71
14
72
15
73
-23
0
VERTEX
8
SIDEBOARD
10
0
20
0
30
0
70
128
71
-14
72
23
73
22
0
VERTEX
8
SIDEBOARD
10
0
20
0
30
0
70
128
71
15
72
16
73
-24
0
VERTEX
8
SIDEBOARD
10
0
20
0
30
0
70
128
71
-15
72
24
73
23
0
VERTEX
8
SIDEBOARD
10
0
20
0
30
0
70
128
71
16
72
13
73
-21
0
VERTEX
8
SIDEBOARD
10
0
20
0
30
0
70
128
71
-16
72
21
73
24
0
VERTEX
8
SIDEBOARD
10
0
20
0
30
0
70
128
71
-21
72
17
73
-18
0
VERTEX
8
SIDEBOARD
10
0
20
0
30
0
70
128
71
24
72
-21
73
-18
0
VERTEX
8
SIDEBOARD
10
0
20
0
30
0
70
128
71
-24
72
18
73
-19
0
VERTEX
8
SIDEBOARD
10
0
20
0
30
0
70
128
71
23
72
-24
73
-19
0
VERTEX
8
SIDEBOARD
10
0
20
0
30
0
70
128
71
-23
72
19
73
-20
0
VERTEX
8
SIDEBOARD
10
0
20
0
30
0
70
128
71
22
72
-23
73
-20
0
VERTEX
8
SIDEBOARD
10
0
20
0
30
0
70
128
71
20
72
-17
73
-21
0
VERTEX
8
SIDEBOARD
10
0
20
0
30
0
70
128
71
-20
72
21
73
-22
0
VERTEX
8
SIDEBOARD
10
0
20
0
30
0
70
128
71
25
72
26
73
-27
0
VERTEX
8
SIDEBOARD
10
0
20
0
30
0
70
128
71
-25
72
27
73
28
0
VERTEX
8
SIDEBOARD
10
0
20
0
30
0
70
128
71
25
72
29
73
-30
0
VERTEX
8
SIDEBOARD
10
0
20
0
30
0
70
128
71
-25
72
30
73
26
0
VERTEX
8
SIDEBOARD
10
0
20
0
30
0
70
128
71
26
72
30
73
-31
0
VERTEX
8
SIDEBOARD
10
0
20
0
30
0
70
128
71
-26
72
31
73
27
0
VERTEX
8
SIDEBOARD
10
0
20
0
30
0
70
128
71
27
72
31
73
-32
0
VERTEX
8
SIDEBOARD
10
0
20
0
30
0
70
128
71
-27
72
32
73
28
0
VERTEX
8
SIDEBOARD
10
0
20
0
30
0
70
128
71
28
72
32
73
-29
0
VERTEX
8
SIDEBOARD
10
0
20
0
30
0
70
128
71
-28
72
29
73
25
0
VERTEX
8
SIDEBOARD
10
0
20
0
30
0
70
128
71
29
72
32
73
-31
0
VERTEX
8
SIDEBOARD
10
0
20
0
30
0
70
128
71
-29
72
31
73
30
0
VERTEX
8
SIDEBOARD
10
0
20
0
30
0
70
128
71
33
72
34
73
-35
0
VERTEX
8
SIDEBOARD
10
0
20
0
30
0
70
128
71
-33
72
35
73
36
0
VERTEX
8
SIDEBOARD
10
0
20
0
30
0
70
128
71
33
72
37
73
-38
0
VERTEX
8
SIDEBOARD
10
0
20
0
30
0
70
128
71
-33
72
38
73
34
0
VERTEX
8
SIDEBOARD
10
0
20
0
30
0
70
128
71
34
72
38
73
-39
0
VERTEX
8
SIDEBOARD
10
0
20
0
30
0
70
128
71
-34
72
39
73
35
0
VERTEX
8
SIDEBOARD
10
0
20
0
30
0
70
128
71
35
72
39
73
-40
0
VERTEX
8
SIDEBOARD
10
0
20
0
30
0
70
128
71
-35
72
40
73
36
0
VERTEX
8
SIDEBOARD
10
0
20
0
30
0
70
128
71
36
72
40
73
-37
0
VERTEX
8
SIDEBOARD
10
0
20
0
30
0
70
128
71
-36
72
37
73
33
0
VERTEX
8
SIDEBOARD
10
0
20
0
30
0
70
128
71
37
72
40
73
-39
0
VERTEX
8
SIDEBOARD
10
0
20
0
30
0
70
128
71
-37
72
39
73
38
0
VERTEX
8
SIDEBOARD
10
0
20
0
30
0
70
128
71
41
72
42
73
-43
0
VERTEX
8
SIDEBOARD
10
0
20
0
30
0
70
128
71
-41
72
43
73
44
0
VERTEX
8
SIDEBOARD
10
0
20
0
30
0
70
128
71
41
72
45
73
-46
0
VERTEX
8
SIDEBOARD
10
0
20
0
30
0
70
128
71
-41
72
46
73
42
0
VERTEX
8
SIDEBOARD
10
0
20
0
30
0
70
128
71
42
72
46
73
-47
0
VERTEX
8
SIDEBOARD
10
0
20
0
30
0
70
128
71
-42
72
47
73
43
0
VERTEX
8
SIDEBOARD
10
0
20
0
30
0
70
128
71
43
72
47
73
-48
0
VERTEX
8
SIDEBOARD
10
0
20
0
30
0
70
128
71
-43
72
48
73
44
0
VERTEX
8
SIDEBOARD
10
0
20
0
30
0
70
128
71
44
72
48
73
-45
0
VERTEX
8
SIDEBOARD
10
0
20
0
30
0
70
128
71
-44
72
45
73
41
0
VERTEX
8
SIDEBOARD
10
0
20
0
30
0
70
128
71
45
72
48
73
-47
0
VERTEX
8
SIDEBOARD
10
0
20
0
30
0
70
128
71
-45
72
47
73
46
0
VERTEX
8
SIDEBOARD
10
0
20
0
30
0
70
128
71
49
72
50
73
-51
0
VERTEX
8
SIDEBOARD
10
0
20
0
30
0
70
128
71
-49
72
51
73
52
0
VERTEX
8
SIDEBOARD
10
0
20
0
30
0
70
128
71
49
72
53
73
-54
0
VERTEX
8
SIDEBOARD
10
0
20
0
30
0
70
128
71
-49
72
54
73
50
0
VERTEX
8
SIDEBOARD
10
0
20
0
30
0
70
128
71
50
72
54
73
-55
0
VERTEX
8
SIDEBOARD
10
0
20
0
30
0
70
128
71
-50
72
55
73
51
0
VERTEX
8
SIDEBOARD
10
0
20
0
30
0
70
128
71
51
72
55
73
-56
0
VERTEX
8
SIDEBOARD
10
0
20
0
30
0
70
128
71
-51
72
56
73
52
0
VERTEX
8
SIDEBOARD
10
0
20
0
30
0
70
128
71
52
72
56
73
-53
0
VERTEX
8
SIDEBOARD
10
0
20
0
30
0
70
128
71
-52
72
53
73
49
0
VERTEX
8
SIDEBOARD
10
0
20
0
30
0
70
128
71
53
72
56
73
-55
0
VERTEX
8
SIDEBOARD
10
0
20
0
30
0
70
128
71
-53
72
55
73
54
0
VERTEX
8
SIDEBOARD
10
0
20
0
30
0
70
128
71
57
72
58
73
-59
0
VERTEX
8
SIDEBOARD
10
0
20
0
30
0
70
128
71
-57
72
59
73
60
0
VERTEX
8
SIDEBOARD
10
0
20
0
30
0
70
128
71
57
72
60
73
-61
0
VERTEX
8
SIDEBOARD
10
0
20
0
30
0
70
128
71
-57
72
61
73
62
0
VERTEX
8
SIDEBOARD
10
0
20
0
30
0
70
128
71
60
72
59
73
-63
0
VERTEX
8
SIDEBOARD
10
0
20
0
30
0
70
128
71
-60
72
63
73
61
0
VERTEX
8
SIDEBOARD
10
0
20
0
30
0
70
128
71
59
72
58
73
-64
0
VERTEX
8
SIDEBOARD
10
0
20
0
30
0
70
128
71
-59
72
64
73
63
0
VERTEX
8
SIDEBOARD
10
0
20
0
30
0
70
128
71
58
72
57
73
-62
0
VERTEX
8
SIDEBOARD
10
0
20
0
30
0
70
128
71
-58
72
62
73
64
0
VERTEX
8
SIDEBOARD
10
0
20
0
30
0
70
128
71
63
72
64
73
-62
0
VERTEX
8
SIDEBOARD
10
0
20
0
30
0
70
128
71
61
72
-63
73
62
0
VERTEX
8
SIDEBOARD
10
0
20
0
30
0
70
128
71
65
72
68
73
-67
0
VERTEX
8
SIDEBOARD
10
0
20
0
30
0
70
128
71
-65
72
67
73
66
0
VERTEX
8
SIDEBOARD
10
0
20
0
30
0
70
128
71
65
72
66
73
-70
0
VERTEX
8
SIDEBOARD
10
0
20
0
30
0
70
128
71
-65
72
70
73
69
0
VERTEX
8
SIDEBOARD
10
0
20
0
30
0
70
128
71
66
72
67
73
-71
0
VERTEX
8
SIDEBOARD
10
0
20
0
30
0
70
128
71
-66
72
71
73
70
0
VERTEX
8
SIDEBOARD
10
0
20
0
30
0
70
128
71
67
72
68
73
-72
0
VERTEX
8
SIDEBOARD
10
0
20
0
30
0
70
128
71
-67
72
72
73
71
0
VERTEX
8
SIDEBOARD
10
0
20
0
30
0
70
128
71
68
72
65
73
-69
0
VERTEX
8
SIDEBOARD
10
0
20
0
30
0
70
128
71
-68
72
69
73
72
0
VERTEX
8
SIDEBOARD
10
0
20
0
30
0
70
128
71
71
72
72
73
-69
0
VERTEX
8
SIDEBOARD
10
0
20
0
30
0
70
128
71
70
72
-71
73
69
0
VERTEX
8
SIDEBOARD
10
0
20
0
30
0
70
128
71
73
72
76
73
-75
0
VERTEX
8
SIDEBOARD
10
0
20
0
30
0
70
128
71
-73
72
75
73
74
0
VERTEX
8
SIDEBOARD
10
0
20
0
30
0
70
128
71
73
72
74
73
-78
0
VERTEX
8
SIDEBOARD
10
0
20
0
30
0
70
128
71
-73
72
78
73
77
0
VERTEX
8
SIDEBOARD
10
0
20
0
30
0
70
128
71
74
72
75
73
-79
0
VERTEX
8
SIDEBOARD
10
0
20
0
30
0
70
128
71
-74
72
79
73
78
0
VERTEX
8
SIDEBOARD
10
0
20
0
30
0
70
128
71
75
72
76
73
-80
0
VERTEX
8
SIDEBOARD
10
0
20
0
30
0
70
128
71
-75
72
80
73
79
0
VERTEX
8
SIDEBOARD
10
0
20
0
30
0
70
128
71
76
72
73
73
-77
0
VERTEX
8
SIDEBOARD
10
0
20
0
30
0
70
128
71
-76
72
77
73
80
0
VERTEX
8
SIDEBOARD
10
0
20
0
30
0
70
128
71
79
72
80
73
-77
0
VERTEX
8
SIDEBOARD
10
0
20
0
30
0
70
128
71
78
72
-79
73
77
0
VERTEX
8
SIDEBOARD
10
0
20
0
30
0
70
128
71
81
72
84
73
-83
0
VERTEX
8
SIDEBOARD
10
0
20
0
30
0
70
128
71
-81
72
83
73
82
0
VERTEX
8
SIDEBOARD
10
0
20
0
30
0
70
128
71
81
72
82
73
-86
0
VERTEX
8
SIDEBOARD
10
0
20
0
30
0
70
128
71
-81
72
86
73
85
0
VERTEX
8
SIDEBOARD
10
0
20
0
30
0
70
128
71
82
72
83
73
-87
0
VERTEX
8
SIDEBOARD
10
0
20
0
30
0
70
128
71
-82
72
87
73
86
0
VERTEX
8
SIDEBOARD
10
0
20
0
30
0
70
128
71
83
72
84
73
-88
0
VERTEX
8
SIDEBOARD
10
0
20
0
30
0
70
128
71
-83
72
88
73
87
0
VERTEX
8
SIDEBOARD
10
0
20
0
30
0
70
128
71
90
72
89
73
-91
0
VERTEX
8
SIDEBOARD
10
0
20
0
30
0
70
128
71
-90
72
91
73
92
0
VERTEX
8
SIDEBOARD
10
0
20
0
30
0
70
128
71
87
72
88
73
-85
0
VERTEX
8
SIDEBOARD
10
0
20
0
30
0
70
128
71
86
72
-87
73
85
0
VERTEX
8
SIDEBOARD
10
0
20
0
30
0
70
128
71
84
72
81
73
-89
0
VERTEX
8
SIDEBOARD
10
0
20
0
30
0
70
128
71
89
72
90
73
-84
0
VERTEX
8
SIDEBOARD
10
0
20
0
30
0
70
128
71
81
72
85
73
-91
0
VERTEX
8
SIDEBOARD
10
0
20
0
30
0
70
128
71
91
72
89
73
-81
0
VERTEX
8
SIDEBOARD
10
0
20
0
30
0
70
128
71
88
72
84
73
-90
0
VERTEX
8
SIDEBOARD
10
0
20
0
30
0
70
128
71
90
72
92
73
-88
0
VERTEX
8
SIDEBOARD
10
0
20
0
30
0
70
128
71
85
72
88
73
-92
0
VERTEX
8
SIDEBOARD
10
0
20
0
30
0
70
128
71
92
72
91
73
-85
0
SEQEND
8
SIDEBOARD
0
POLYLINE
8
BOX05
66
1
70
64
71
168
72
306
62
171
0
VERTEX
8
BOX05
10
-37.952515
20
-23.734440
30
15.422024
70
192
0
VERTEX
8
BOX05
10
-37.952503
20
-23.734438
30
22.169052
70
192
0
VERTEX
8
BOX05
10
-37.952503
20
20.750286
30
22.169056
70
192
0
VERTEX
8
BOX05
10
-37.952515
20
20.750282
30
15.422029
70
192
0
VERTEX
8
BOX05
10
-38.907349
20
20.750278
30
15.776012
70
192
0
VERTEX
8
BOX05
10
-38.907349
20
-23.734442
30
15.776007
70
192
0
VERTEX
8
BOX05
10
-38.553364
20
20.750286
30
22.169056
70
192
0
VERTEX
8
BOX05
10
-38.907349
20
-23.734434
30
21.815069
70
192
0
VERTEX
8
BOX05
10
-38.553364
20
20.750278
30
15.422030
70
192
0
VERTEX
8
BOX05
10
-38.553364
20
-23.734444
30
15.422025
70
192
0
VERTEX
8
BOX05
10
-38.907349
20
20.750286
30
21.815075
70
192
0
VERTEX
8
BOX05
10
-38.553364
20
-23.734434
30
22.169052
70
192
0
VERTEX
8
BOX05
10
37.974781
20
-23.734438
30
15.422024
70
192
0
VERTEX
8
BOX05
10
37.974773
20
-23.734438
30
22.169052
70
192
0
VERTEX
8
BOX05
10
37.974773
20
20.750290
30
22.169056
70
192
0
VERTEX
8
BOX05
10
37.974781
20
20.750286
30
15.422029
70
192
0
VERTEX
8
BOX05
10
38.929619
20
20.750286
30
15.776012
70
192
0
VERTEX
8
BOX05
10
38.929619
20
-23.734442
30
15.776007
70
192
0
VERTEX
8
BOX05
10
38.575634
20
20.750290
30
22.169056
70
192
0
VERTEX
8
BOX05
10
38.929619
20
-23.734434
30
21.815069
70
192
0
VERTEX
8
BOX05
10
38.575634
20
20.750286
30
15.422029
70
192
0
VERTEX
8
BOX05
10
38.575634
20
-23.734442
30
15.422024
70
192
0
VERTEX
8
BOX05
10
38.929619
20
20.750290
30
21.815075
70
192
0
VERTEX
8
BOX05
10
38.575634
20
-23.734434
30
22.169052
70
192
0
VERTEX
8
BOX05
10
-37.919628
20
22.475956
30
10.649509
70
192
0
VERTEX
8
BOX05
10
-37.919628
20
22.475952
30
26.428150
70
192
0
VERTEX
8
BOX05
10
37.974781
20
22.475952
30
26.428150
70
192
0
VERTEX
8
BOX05
10
37.974781
20
22.475956
30
10.649509
70
192
0
VERTEX
8
BOX05
10
37.974773
20
-23.734440
30
10.649499
70
192
0
VERTEX
8
BOX05
10
-37.919636
20
-23.734440
30
10.649504
70
192
0
VERTEX
8
BOX05
10
37.974773
20
-23.734442
30
26.428135
70
192
0
VERTEX
8
BOX05
10
-37.919628
20
-23.734446
30
26.428139
70
192
0
VERTEX
8
BOX05
10
-36.193966
20
20.750286
30
26.428591
70
192
0
VERTEX
8
BOX05
10
36.249119
20
20.750290
30
26.428593
70
192
0
VERTEX
8
BOX05
10
36.249111
20
-23.734442
30
26.428577
70
192
0
VERTEX
8
BOX05
10
-36.193966
20
-23.734446
30
26.428581
70
192
0
VERTEX
8
BOX05
10
-36.193966
20
20.750290
30
12.633365
70
192
0
VERTEX
8
BOX05
10
36.249115
20
20.750290
30
12.633365
70
192
0
VERTEX
8
BOX05
10
36.249111
20
-23.734438
30
12.633349
70
192
0
VERTEX
8
BOX05
10
-36.193966
20
-23.734440
30
12.633352
70
192
0
VERTEX
8
BOX05
10
-39.559422
20
-25.675058
30
27.280228
70
192
0
VERTEX
8
BOX05
10
40.440578
20
-25.675062
30
27.280228
70
192
0
VERTEX
8
BOX05
10
40.440578
20
-25.675062
30
10.649498
70
192
0
VERTEX
8
BOX05
10
-39.559422
20
-25.675058
30
10.649498
70
192
0
VERTEX
8
BOX05
10
-39.559422
20
-23.734438
30
27.280228
70
192
0
VERTEX
8
BOX05
10
40.440578
20
-23.734442
30
27.280224
70
192
0
VERTEX
8
BOX05
10
40.440578
20
-23.734442
30
10.649498
70
192
0
VERTEX
8
BOX05
10
-39.559422
20
-23.734438
30
10.649498
70
192
0
VERTEX
8
BOX05
10
32.068447
20
-26.231003
30
20.059334
70
192
0
VERTEX
8
BOX05
10
32.068447
20
-28.196091
30
20.059925
70
192
0
VERTEX
8
BOX05
10
31.974850
20
-28.196091
30
19.004688
70
192
0
VERTEX
8
BOX05
10
31.708309
20
-28.196091
30
18.539204
70
192
0
VERTEX
8
BOX05
10
31.290096
20
-28.196091
30
18.128452
70
192
0
VERTEX
8
BOX05
10
30.741634
20
-28.196152
30
17.785770
70
192
0
VERTEX
8
BOX05
10
30.084255
20
-28.196152
30
17.524494
70
192
0
VERTEX
8
BOX05
10
29.339291
20
-28.196152
30
17.357929
70
192
0
VERTEX
8
BOX05
10
28.528042
20
-28.196152
30
17.299427
70
192
0
VERTEX
8
BOX05
10
27.716824
20
-28.196152
30
17.357914
70
192
0
VERTEX
8
BOX05
10
26.971828
20
-28.196152
30
17.524479
70
192
0
VERTEX
8
BOX05
10
26.314449
20
-28.196152
30
17.785755
70
192
0
VERTEX
8
BOX05
10
25.765987
20
-28.196152
30
18.128452
70
192
0
VERTEX
8
BOX05
10
25.347805
20
-28.196152
30
18.539204
70
192
0
VERTEX
8
BOX05
10
25.081264
20
-28.196091
30
19.004673
70
192
0
VERTEX
8
BOX05
10
24.987637
20
-28.196091
30
20.059925
70
192
0
VERTEX
8
BOX05
10
24.987637
20
-26.231003
30
20.059334
70
192
0
VERTEX
8
BOX05
10
25.081264
20
-26.238083
30
18.956779
70
192
0
VERTEX
8
BOX05
10
25.347805
20
-26.238083
30
18.491295
70
192
0
VERTEX
8
BOX05
10
25.765987
20
-26.238083
30
18.080544
70
192
0
VERTEX
8
BOX05
10
26.314449
20
-26.238083
30
17.737846
70
192
0
VERTEX
8
BOX05
10
26.971828
20
-26.238083
30
17.476570
70
192
0
VERTEX
8
BOX05
10
27.716824
20
-26.238083
30
17.310020
70
192
0
VERTEX
8
BOX05
10
28.528042
20
-26.238083
30
17.251534
70
192
0
VERTEX
8
BOX05
10
29.339291
20
-26.238083
30
17.310036
70
192
0
VERTEX
8
BOX05
10
30.084255
20
-26.238083
30
17.476585
70
192
0
VERTEX
8
BOX05
10
30.741634
20
-26.238083
30
17.737862
70
192
0
VERTEX
8
BOX05
10
31.290096
20
-26.238083
30
18.080559
70
192
0
VERTEX
8
BOX05
10
31.708309
20
-26.238083
30
18.491310
70
192
0
VERTEX
8
BOX05
10
31.974850
20
-26.238083
30
18.956795
70
192
0
VERTEX
8
BOX05
10
32.068447
20
-26.392868
30
19.851494
70
192
0
VERTEX
8
BOX05
10
32.068447
20
-28.048386
30
19.852085
70
192
0
VERTEX
8
BOX05
10
31.974850
20
-28.048386
30
19.004688
70
192
0
VERTEX
8
BOX05
10
31.708309
20
-28.048386
30
18.539204
70
192
0
VERTEX
8
BOX05
10
31.290096
20
-28.048386
30
18.128452
70
192
0
VERTEX
8
BOX05
10
30.741634
20
-28.048386
30
17.785770
70
192
0
VERTEX
8
BOX05
10
30.084255
20
-28.048386
30
17.524494
70
192
0
VERTEX
8
BOX05
10
29.339291
20
-28.048386
30
17.357929
70
192
0
VERTEX
8
BOX05
10
28.528042
20
-28.048386
30
17.299427
70
192
0
VERTEX
8
BOX05
10
27.716824
20
-28.048386
30
17.357914
70
192
0
VERTEX
8
BOX05
10
26.971828
20
-28.048386
30
17.524479
70
192
0
VERTEX
8
BOX05
10
26.314449
20
-28.048386
30
17.785755
70
192
0
VERTEX
8
BOX05
10
25.765987
20
-28.048386
30
18.128452
70
192
0
VERTEX
8
BOX05
10
25.347805
20
-28.048386
30
18.539204
70
192
0
VERTEX
8
BOX05
10
25.081264
20
-28.048386
30
19.004673
70
192
0
VERTEX
8
BOX05
10
24.987637
20
-28.048386
30
19.852085
70
192
0
VERTEX
8
BOX05
10
24.987637
20
-26.392868
30
19.851494
70
192
0
VERTEX
8
BOX05
10
25.081264
20
-26.385788
30
18.956779
70
192
0
VERTEX
8
BOX05
10
25.347805
20
-26.385788
30
18.491295
70
192
0
VERTEX
8
BOX05
10
25.765987
20
-26.385788
30
18.080544
70
192
0
VERTEX
8
BOX05
10
26.314449
20
-26.385788
30
17.737846
70
192
0
VERTEX
8
BOX05
10
26.971828
20
-26.385788
30
17.476570
70
192
0
VERTEX
8
BOX05
10
27.716824
20
-26.385788
30
17.310020
70
192
0
VERTEX
8
BOX05
10
28.528042
20
-26.385788
30
17.251534
70
192
0
VERTEX
8
BOX05
10
29.339291
20
-26.385788
30
17.310036
70
192
0
VERTEX
8
BOX05
10
30.084255
20
-26.385788
30
17.476585
70
192
0
VERTEX
8
BOX05
10
30.741634
20
-26.385788
30
17.737862
70
192
0
VERTEX
8
BOX05
10
31.290096
20
-26.385788
30
18.080559
70
192
0
VERTEX
8
BOX05
10
31.708309
20
-26.385788
30
18.491310
70
192
0
VERTEX
8
BOX05
10
31.974850
20
-26.385788
30
18.956795
70
192
0
VERTEX
8
BOX05
10
-28.702503
20
-26.238083
30
17.310036
70
192
0
VERTEX
8
BOX05
10
-29.513752
20
-26.238083
30
17.251534
70
192
0
VERTEX
8
BOX05
10
-30.324970
20
-26.238083
30
17.310020
70
192
0
VERTEX
8
BOX05
10
-31.069965
20
-26.238083
30
17.476570
70
192
0
VERTEX
8
BOX05
10
-27.957539
20
-26.238083
30
17.476585
70
192
0
VERTEX
8
BOX05
10
-31.727345
20
-26.238083
30
17.737846
70
192
0
VERTEX
8
BOX05
10
-27.300159
20
-26.238083
30
17.737862
70
192
0
VERTEX
8
BOX05
10
-26.751698
20
-26.238083
30
18.080559
70
192
0
VERTEX
8
BOX05
10
-32.275806
20
-26.238083
30
18.080544
70
192
0
VERTEX
8
BOX05
10
-26.333485
20
-26.238083
30
18.491310
70
192
0
VERTEX
8
BOX05
10
-32.693989
20
-26.238083
30
18.491295
70
192
0
VERTEX
8
BOX05
10
-32.960529
20
-26.238083
30
18.956779
70
192
0
VERTEX
8
BOX05
10
-26.066944
20
-26.238083
30
18.956795
70
192
0
VERTEX
8
BOX05
10
-33.054157
20
-26.231003
30
20.059334
70
192
0
VERTEX
8
BOX05
10
-25.973347
20
-26.231003
30
20.059334
70
192
0
VERTEX
8
BOX05
10
-33.054157
20
-28.196091
30
20.059925
70
192
0
VERTEX
8
BOX05
10
-25.973347
20
-28.196091
30
20.059925
70
192
0
VERTEX
8
BOX05
10
-32.960529
20
-28.196091
30
19.004673
70
192
0
VERTEX
8
BOX05
10
-26.066944
20
-28.196091
30
19.004688
70
192
0
VERTEX
8
BOX05
10
-32.693989
20
-28.196152
30
18.539204
70
192
0
VERTEX
8
BOX05
10
-26.333485
20
-28.196091
30
18.539204
70
192
0
VERTEX
8
BOX05
10
-32.275806
20
-28.196152
30
18.128452
70
192
0
VERTEX
8
BOX05
10
-26.751698
20
-28.196091
30
18.128452
70
192
0
VERTEX
8
BOX05
10
-27.300159
20
-28.196152
30
17.785770
70
192
0
VERTEX
8
BOX05
10
-31.727345
20
-28.196152
30
17.785755
70
192
0
VERTEX
8
BOX05
10
-27.957539
20
-28.196152
30
17.524494
70
192
0
VERTEX
8
BOX05
10
-31.069965
20
-28.196152
30
17.524479
70
192
0
VERTEX
8
BOX05
10
-30.324970
20
-28.196152
30
17.357914
70
192
0
VERTEX
8
BOX05
10
-28.702503
20
-28.196152
30
17.357929
70
192
0
VERTEX
8
BOX05
10
-29.513752
20
-28.196152
30
17.299427
70
192
0
VERTEX
8
BOX05
10
-25.973347
20
-28.048386
30
19.852085
70
192
0
VERTEX
8
BOX05
10
-25.973347
20
-26.392868
30
19.851494
70
192
0
VERTEX
8
BOX05
10
-26.066944
20
-28.048386
30
19.004688
70
192
0
VERTEX
8
BOX05
10
-26.333485
20
-28.048386
30
18.539204
70
192
0
VERTEX
8
BOX05
10
-26.751698
20
-28.048386
30
18.128452
70
192
0
VERTEX
8
BOX05
10
-27.300159
20
-28.048386
30
17.785770
70
192
0
VERTEX
8
BOX05
10
-27.957539
20
-28.048386
30
17.524494
70
192
0
VERTEX
8
BOX05
10
-28.702503
20
-28.048386
30
17.357929
70
192
0
VERTEX
8
BOX05
10
-29.513752
20
-28.048386
30
17.299427
70
192
0
VERTEX
8
BOX05
10
-30.324970
20
-28.048386
30
17.357914
70
192
0
VERTEX
8
BOX05
10
-31.069965
20
-28.048386
30
17.524479
70
192
0
VERTEX
8
BOX05
10
-31.727345
20
-28.048386
30
17.785755
70
192
0
VERTEX
8
BOX05
10
-32.275806
20
-28.048386
30
18.128452
70
192
0
VERTEX
8
BOX05
10
-32.693989
20
-28.048386
30
18.539204
70
192
0
VERTEX
8
BOX05
10
-32.960529
20
-28.048386
30
19.004673
70
192
0
VERTEX
8
BOX05
10
-33.054157
20
-28.048386
30
19.852085
70
192
0
VERTEX
8
BOX05
10
-33.054157
20
-26.392868
30
19.851494
70
192
0
VERTEX
8
BOX05
10
-32.960529
20
-26.385788
30
18.956779
70
192
0
VERTEX
8
BOX05
10
-32.693989
20
-26.385788
30
18.491295
70
192
0
VERTEX
8
BOX05
10
-32.275806
20
-26.385788
30
18.080544
70
192
0
VERTEX
8
BOX05
10
-31.727345
20
-26.385788
30
17.737846
70
192
0
VERTEX
8
BOX05
10
-31.069965
20
-26.385788
30
17.476570
70
192
0
VERTEX
8
BOX05
10
-30.324970
20
-26.385788
30
17.310020
70
192
0
VERTEX
8
BOX05
10
-29.513752
20
-26.385788
30
17.251534
70
192
0
VERTEX
8
BOX05
10
-28.702503
20
-26.385788
30
17.310036
70
192
0
VERTEX
8
BOX05
10
-27.957539
20
-26.385788
30
17.476585
70
192
0
VERTEX
8
BOX05
10
-27.300159
20
-26.385788
30
17.737862
70
192
0
VERTEX
8
BOX05
10
-26.751698
20
-26.385788
30
18.080559
70
192
0
VERTEX
8
BOX05
10
-26.333485
20
-26.385788
30
18.491310
70
192
0
VERTEX
8
BOX05
10
-26.066944
20
-26.385788
30
18.956795
70
192
0
VERTEX
8
BOX05
10
0
20
0
30
0
70
128
71
2
72
-1
73
3
0
VERTEX
8
BOX05
10
0
20
0
30
0
70
128
71
4
72
-3
73
1
0
VERTEX
8
BOX05
10
0
20
0
30
0
70
128
71
4
72
-1
73
9
0
VERTEX
8
BOX05
10
0
20
0
30
0
70
128
71
10
72
-9
73
1
0
VERTEX
8
BOX05
10
0
20
0
30
0
70
128
71
3
72
-4
73
7
0
VERTEX
8
BOX05
10
0
20
0
30
0
70
128
71
-9
72
-11
73
4
0
VERTEX
8
BOX05
10
0
20
0
30
0
70
128
71
2
72
-3
73
12
0
VERTEX
8
BOX05
10
0
20
0
30
0
70
128
71
7
72
-12
73
3
0
VERTEX
8
BOX05
10
0
20
0
30
0
70
128
71
1
72
-2
73
10
0
VERTEX
8
BOX05
10
0
20
0
30
0
70
128
71
-12
72
-6
73
2
0
VERTEX
8
BOX05
10
0
20
0
30
0
70
128
71
11
72
-5
73
8
0
VERTEX
8
BOX05
10
0
20
0
30
0
70
128
71
6
72
-8
73
5
0
VERTEX
8
BOX05
10
0
20
0
30
0
70
128
71
5
72
-11
73
9
0
VERTEX
8
BOX05
10
0
20
0
30
0
70
128
71
8
72
-6
73
12
0
VERTEX
8
BOX05
10
0
20
0
30
0
70
128
71
5
72
9
73
-10
0
VERTEX
8
BOX05
10
0
20
0
30
0
70
128
71
10
72
6
73
-5
0
VERTEX
8
BOX05
10
0
20
0
30
0
70
128
71
-7
72
-4
73
11
0
VERTEX
8
BOX05
10
0
20
0
30
0
70
128
71
7
72
11
73
-8
0
VERTEX
8
BOX05
10
0
20
0
30
0
70
128
71
8
72
12
73
-7
0
VERTEX
8
BOX05
10
0
20
0
30
0
70
128
71
-10
72
-2
73
6
0
VERTEX
8
BOX05
10
0
20
0
30
0
70
128
71
-15
72
13
73
14
0
VERTEX
8
BOX05
10
0
20
0
30
0
70
128
71
-13
72
15
73
16
0
VERTEX
8
BOX05
10
0
20
0
30
0
70
128
71
-21
72
13
73
16
0
VERTEX
8
BOX05
10
0
20
0
30
0
70
128
71
-13
72
21
73
22
0
VERTEX
8
BOX05
10
0
20
0
30
0
70
128
71
-19
72
16
73
15
0
VERTEX
8
BOX05
10
0
20
0
30
0
70
128
71
-16
72
-23
73
21
0
VERTEX
8
BOX05
10
0
20
0
30
0
70
128
71
-24
72
15
73
14
0
VERTEX
8
BOX05
10
0
20
0
30
0
70
128
71
-15
72
24
73
19
0
VERTEX
8
BOX05
10
0
20
0
30
0
70
128
71
-22
72
14
73
13
0
VERTEX
8
BOX05
10
0
20
0
30
0
70
128
71
-14
72
-18
73
24
0
VERTEX
8
BOX05
10
0
20
0
30
0
70
128
71
-20
72
17
73
23
0
VERTEX
8
BOX05
10
0
20
0
30
0
70
128
71
-17
72
20
73
18
0
VERTEX
8
BOX05
10
0
20
0
30
0
70
128
71
-21
72
23
73
17
0
VERTEX
8
BOX05
10
0
20
0
30
0
70
128
71
-24
72
18
73
20
0
VERTEX
8
BOX05
10
0
20
0
30
0
70
128
71
22
72
21
73
-17
0
VERTEX
8
BOX05
10
0
20
0
30
0
70
128
71
17
72
18
73
-22
0
VERTEX
8
BOX05
10
0
20
0
30
0
70
128
71
-23
72
-16
73
19
0
VERTEX
8
BOX05
10
0
20
0
30
0
70
128
71
20
72
23
73
-19
0
VERTEX
8
BOX05
10
0
20
0
30
0
70
128
71
19
72
24
73
-20
0
VERTEX
8
BOX05
10
0
20
0
30
0
70
128
71
-18
72
-14
73
22
0
VERTEX
8
BOX05
10
0
20
0
30
0
70
128
71
-27
72
25
73
26
0
VERTEX
8
BOX05
10
0
20
0
30
0
70
128
71
-25
72
27
73
28
0
VERTEX
8
BOX05
10
0
20
0
30
0
70
128
71
-29
72
25
73
28
0
VERTEX
8
BOX05
10
0
20
0
30
0
70
128
71
-25
72
29
73
30
0
VERTEX
8
BOX05
10
0
20
0
30
0
70
128
71
-31
72
28
73
27
0
VERTEX
8
BOX05
10
0
20
0
30
0
70
128
71
-28
72
31
73
29
0
VERTEX
8
BOX05
10
0
20
0
30
0
70
128
71
-40
72
38
73
37
0
VERTEX
8
BOX05
10
0
20
0
30
0
70
128
71
-38
72
40
73
39
0
VERTEX
8
BOX05
10
0
20
0
30
0
70
128
71
-30
72
26
73
25
0
VERTEX
8
BOX05
10
0
20
0
30
0
70
128
71
-26
72
30
73
32
0
VERTEX
8
BOX05
10
0
20
0
30
0
70
128
71
-33
72
27
73
26
0
VERTEX
8
BOX05
10
0
20
0
30
0
70
128
71
-27
72
33
73
34
0
VERTEX
8
BOX05
10
0
20
0
30
0
70
128
71
-34
72
31
73
27
0
VERTEX
8
BOX05
10
0
20
0
30
0
70
128
71
-31
72
34
73
35
0
VERTEX
8
BOX05
10
0
20
0
30
0
70
128
71
-36
72
26
73
32
0
VERTEX
8
BOX05
10
0
20
0
30
0
70
128
71
-26
72
36
73
33
0
VERTEX
8
BOX05
10
0
20
0
30
0
70
128
71
-37
72
34
73
33
0
VERTEX
8
BOX05
10
0
20
0
30
0
70
128
71
-34
72
37
73
38
0
VERTEX
8
BOX05
10
0
20
0
30
0
70
128
71
-40
72
33
73
36
0
VERTEX
8
BOX05
10
0
20
0
30
0
70
128
71
-33
72
40
73
37
0
VERTEX
8
BOX05
10
0
20
0
30
0
70
128
71
-38
72
35
73
34
0
VERTEX
8
BOX05
10
0
20
0
30
0
70
128
71
-35
72
38
73
39
0
VERTEX
8
BOX05
10
0
20
0
30
0
70
128
71
41
72
44
73
-43
0
VERTEX
8
BOX05
10
0
20
0
30
0
70
128
71
42
72
-41
73
43
0
VERTEX
8
BOX05
10
0
20
0
30
0
70
128
71
41
72
42
73
-46
0
VERTEX
8
BOX05
10
0
20
0
30
0
70
128
71
-41
72
46
73
45
0
VERTEX
8
BOX05
10
0
20
0
30
0
70
128
71
42
72
43
73
-47
0
VERTEX
8
BOX05
10
0
20
0
30
0
70
128
71
-42
72
47
73
46
0
VERTEX
8
BOX05
10
0
20
0
30
0
70
128
71
43
72
44
73
-48
0
VERTEX
8
BOX05
10
0
20
0
30
0
70
128
71
-43
72
48
73
47
0
VERTEX
8
BOX05
10
0
20
0
30
0
70
128
71
44
72
41
73
-45
0
VERTEX
8
BOX05
10
0
20
0
30
0
70
128
71
-44
72
45
73
48
0
VERTEX
8
BOX05
10
0
20
0
30
0
70
128
71
47
72
48
73
-45
0
VERTEX
8
BOX05
10
0
20
0
30
0
70
128
71
-47
72
45
73
46
0
VERTEX
8
BOX05
10
0
20
0
30
0
70
128
71
73
72
72
73
-71
0
VERTEX
8
BOX05
10
0
20
0
30
0
70
128
71
-73
72
71
73
-70
0
VERTEX
8
BOX05
10
0
20
0
30
0
70
128
71
74
72
-73
73
-70
0
VERTEX
8
BOX05
10
0
20
0
30
0
70
128
71
-74
72
70
73
-69
0
VERTEX
8
BOX05
10
0
20
0
30
0
70
128
71
75
72
-74
73
-69
0
VERTEX
8
BOX05
10
0
20
0
30
0
70
128
71
76
72
-75
73
-69
0
VERTEX
8
BOX05
10
0
20
0
30
0
70
128
71
-76
72
69
73
-68
0
VERTEX
8
BOX05
10
0
20
0
30
0
70
128
71
77
72
-76
73
-68
0
VERTEX
8
BOX05
10
0
20
0
30
0
70
128
71
-77
72
68
73
-67
0
VERTEX
8
BOX05
10
0
20
0
30
0
70
128
71
-77
72
67
73
-66
0
VERTEX
8
BOX05
10
0
20
0
30
0
70
128
71
78
72
-77
73
-66
0
VERTEX
8
BOX05
10
0
20
0
30
0
70
128
71
-78
72
66
73
-65
0
VERTEX
8
BOX05
10
0
20
0
30
0
70
128
71
49
72
-78
73
65
0
VERTEX
8
BOX05
10
0
20
0
30
0
70
128
71
49
72
65
73
-64
0
VERTEX
8
BOX05
10
0
20
0
30
0
70
128
71
50
72
-49
73
64
0
VERTEX
8
BOX05
10
0
20
0
30
0
70
128
71
50
72
64
73
-63
0
VERTEX
8
BOX05
10
0
20
0
30
0
70
128
71
51
72
-50
73
-63
0
VERTEX
8
BOX05
10
0
20
0
30
0
70
128
71
-51
72
63
73
-62
0
VERTEX
8
BOX05
10
0
20
0
30
0
70
128
71
52
72
-51
73
-62
0
VERTEX
8
BOX05
10
0
20
0
30
0
70
128
71
-52
72
62
73
-61
0
VERTEX
8
BOX05
10
0
20
0
30
0
70
128
71
53
72
-52
73
-61
0
VERTEX
8
BOX05
10
0
20
0
30
0
70
128
71
54
72
-53
73
-61
0
VERTEX
8
BOX05
10
0
20
0
30
0
70
128
71
-54
72
61
73
-60
0
VERTEX
8
BOX05
10
0
20
0
30
0
70
128
71
55
72
-54
73
-60
0
VERTEX
8
BOX05
10
0
20
0
30
0
70
128
71
-55
72
60
73
-59
0
VERTEX
8
BOX05
10
0
20
0
30
0
70
128
71
-55
72
59
73
-58
0
VERTEX
8
BOX05
10
0
20
0
30
0
70
128
71
56
72
-55
73
-58
0
VERTEX
8
BOX05
10
0
20
0
30
0
70
128
71
-56
72
58
73
57
0
VERTEX
8
BOX05
10
0
20
0
30
0
70
128
71
49
72
50
73
-80
0
VERTEX
8
BOX05
10
0
20
0
30
0
70
128
71
-49
72
80
73
79
0
VERTEX
8
BOX05
10
0
20
0
30
0
70
128
71
50
72
51
73
-81
0
VERTEX
8
BOX05
10
0
20
0
30
0
70
128
71
-50
72
81
73
80
0
VERTEX
8
BOX05
10
0
20
0
30
0
70
128
71
51
72
52
73
-82
0
VERTEX
8
BOX05
10
0
20
0
30
0
70
128
71
-51
72
82
73
81
0
VERTEX
8
BOX05
10
0
20
0
30
0
70
128
71
52
72
53
73
-83
0
VERTEX
8
BOX05
10
0
20
0
30
0
70
128
71
-52
72
83
73
82
0
VERTEX
8
BOX05
10
0
20
0
30
0
70
128
71
53
72
54
73
-84
0
VERTEX
8
BOX05
10
0
20
0
30
0
70
128
71
-53
72
84
73
83
0
VERTEX
8
BOX05
10
0
20
0
30
0
70
128
71
54
72
55
73
-85
0
VERTEX
8
BOX05
10
0
20
0
30
0
70
128
71
-54
72
85
73
84
0
VERTEX
8
BOX05
10
0
20
0
30
0
70
128
71
55
72
56
73
-86
0
VERTEX
8
BOX05
10
0
20
0
30
0
70
128
71
-55
72
86
73
85
0
VERTEX
8
BOX05
10
0
20
0
30
0
70
128
71
56
72
57
73
-87
0
VERTEX
8
BOX05
10
0
20
0
30
0
70
128
71
-56
72
87
73
86
0
VERTEX
8
BOX05
10
0
20
0
30
0
70
128
71
57
72
58
73
-88
0
VERTEX
8
BOX05
10
0
20
0
30
0
70
128
71
-57
72
88
73
87
0
VERTEX
8
BOX05
10
0
20
0
30
0
70
128
71
58
72
59
73
-89
0
VERTEX
8
BOX05
10
0
20
0
30
0
70
128
71
-58
72
89
73
88
0
VERTEX
8
BOX05
10
0
20
0
30
0
70
128
71
59
72
60
73
-90
0
VERTEX
8
BOX05
10
0
20
0
30
0
70
128
71
-59
72
90
73
89
0
VERTEX
8
BOX05
10
0
20
0
30
0
70
128
71
60
72
61
73
-91
0
VERTEX
8
BOX05
10
0
20
0
30
0
70
128
71
-60
72
91
73
90
0
VERTEX
8
BOX05
10
0
20
0
30
0
70
128
71
61
72
62
73
-92
0
VERTEX
8
BOX05
10
0
20
0
30
0
70
128
71
-61
72
92
73
91
0
VERTEX
8
BOX05
10
0
20
0
30
0
70
128
71
62
72
63
73
-93
0
VERTEX
8
BOX05
10
0
20
0
30
0
70
128
71
-62
72
93
73
92
0
VERTEX
8
BOX05
10
0
20
0
30
0
70
128
71
63
72
64
73
-94
0
VERTEX
8
BOX05
10
0
20
0
30
0
70
128
71
-63
72
94
73
93
0
VERTEX
8
BOX05
10
0
20
0
30
0
70
128
71
64
72
65
73
-95
0
VERTEX
8
BOX05
10
0
20
0
30
0
70
128
71
-64
72
95
73
94
0
VERTEX
8
BOX05
10
0
20
0
30
0
70
128
71
65
72
66
73
-96
0
VERTEX
8
BOX05
10
0
20
0
30
0
70
128
71
-65
72
96
73
95
0
VERTEX
8
BOX05
10
0
20
0
30
0
70
128
71
66
72
67
73
-97
0
VERTEX
8
BOX05
10
0
20
0
30
0
70
128
71
-66
72
97
73
96
0
VERTEX
8
BOX05
10
0
20
0
30
0
70
128
71
67
72
68
73
-98
0
VERTEX
8
BOX05
10
0
20
0
30
0
70
128
71
-67
72
98
73
97
0
VERTEX
8
BOX05
10
0
20
0
30
0
70
128
71
68
72
69
73
-99
0
VERTEX
8
BOX05
10
0
20
0
30
0
70
128
71
-68
72
99
73
98
0
VERTEX
8
BOX05
10
0
20
0
30
0
70
128
71
69
72
70
73
-100
0
VERTEX
8
BOX05
10
0
20
0
30
0
70
128
71
-69
72
100
73
99
0
VERTEX
8
BOX05
10
0
20
0
30
0
70
128
71
70
72
71
73
-101
0
VERTEX
8
BOX05
10
0
20
0
30
0
70
128
71
-70
72
101
73
100
0
VERTEX
8
BOX05
10
0
20
0
30
0
70
128
71
71
72
72
73
-102
0
VERTEX
8
BOX05
10
0
20
0
30
0
70
128
71
-71
72
102
73
101
0
VERTEX
8
BOX05
10
0
20
0
30
0
70
128
71
72
72
73
73
-103
0
VERTEX
8
BOX05
10
0
20
0
30
0
70
128
71
-72
72
103
73
102
0
VERTEX
8
BOX05
10
0
20
0
30
0
70
128
71
73
72
74
73
-104
0
VERTEX
8
BOX05
10
0
20
0
30
0
70
128
71
-73
72
104
73
103
0
VERTEX
8
BOX05
10
0
20
0
30
0
70
128
71
74
72
75
73
-105
0
VERTEX
8
BOX05
10
0
20
0
30
0
70
128
71
-74
72
105
73
104
0
VERTEX
8
BOX05
10
0
20
0
30
0
70
128
71
75
72
76
73
-106
0
VERTEX
8
BOX05
10
0
20
0
30
0
70
128
71
-75
72
106
73
105
0
VERTEX
8
BOX05
10
0
20
0
30
0
70
128
71
76
72
77
73
-107
0
VERTEX
8
BOX05
10
0
20
0
30
0
70
128
71
-76
72
107
73
106
0
VERTEX
8
BOX05
10
0
20
0
30
0
70
128
71
77
72
78
73
-108
0
VERTEX
8
BOX05
10
0
20
0
30
0
70
128
71
-77
72
108
73
107
0
VERTEX
8
BOX05
10
0
20
0
30
0
70
128
71
78
72
49
73
-79
0
VERTEX
8
BOX05
10
0
20
0
30
0
70
128
71
-78
72
79
73
108
0
VERTEX
8
BOX05
10
0
20
0
30
0
70
128
71
101
72
102
73
-103
0
VERTEX
8
BOX05
10
0
20
0
30
0
70
128
71
100
72
-101
73
-103
0
VERTEX
8
BOX05
10
0
20
0
30
0
70
128
71
-100
72
103
73
-104
0
VERTEX
8
BOX05
10
0
20
0
30
0
70
128
71
99
72
-100
73
-104
0
VERTEX
8
BOX05
10
0
20
0
30
0
70
128
71
-99
72
104
73
-105
0
VERTEX
8
BOX05
10
0
20
0
30
0
70
128
71
-99
72
105
73
-106
0
VERTEX
8
BOX05
10
0
20
0
30
0
70
128
71
98
72
-99
73
-106
0
VERTEX
8
BOX05
10
0
20
0
30
0
70
128
71
-98
72
106
73
-107
0
VERTEX
8
BOX05
10
0
20
0
30
0
70
128
71
97
72
-98
73
-107
0
VERTEX
8
BOX05
10
0
20
0
30
0
70
128
71
96
72
-97
73
-107
0
VERTEX
8
BOX05
10
0
20
0
30
0
70
128
71
-96
72
107
73
-108
0
VERTEX
8
BOX05
10
0
20
0
30
0
70
128
71
95
72
-96
73
-108
0
VERTEX
8
BOX05
10
0
20
0
30
0
70
128
71
-95
72
108
73
79
0
VERTEX
8
BOX05
10
0
20
0
30
0
70
128
71
94
72
95
73
-79
0
VERTEX
8
BOX05
10
0
20
0
30
0
70
128
71
-94
72
79
73
80
0
VERTEX
8
BOX05
10
0
20
0
30
0
70
128
71
93
72
94
73
-80
0
VERTEX
8
BOX05
10
0
20
0
30
0
70
128
71
-93
72
80
73
-81
0
VERTEX
8
BOX05
10
0
20
0
30
0
70
128
71
92
72
-93
73
-81
0
VERTEX
8
BOX05
10
0
20
0
30
0
70
128
71
-92
72
81
73
-82
0
VERTEX
8
BOX05
10
0
20
0
30
0
70
128
71
91
72
-92
73
-82
0
VERTEX
8
BOX05
10
0
20
0
30
0
70
128
71
-91
72
82
73
-83
0
VERTEX
8
BOX05
10
0
20
0
30
0
70
128
71
-91
72
83
73
-84
0
VERTEX
8
BOX05
10
0
20
0
30
0
70
128
71
90
72
-91
73
-84
0
VERTEX
8
BOX05
10
0
20
0
30
0
70
128
71
-90
72
84
73
-85
0
VERTEX
8
BOX05
10
0
20
0
30
0
70
128
71
89
72
-90
73
-85
0
VERTEX
8
BOX05
10
0
20
0
30
0
70
128
71
88
72
-89
73
-85
0
VERTEX
8
BOX05
10
0
20
0
30
0
70
128
71
-88
72
85
73
-86
0
VERTEX
8
BOX05
10
0
20
0
30
0
70
128
71
87
72
-88
73
86
0
VERTEX
8
BOX05
10
0
20
0
30
0
70
128
71
109
72
110
73
-111
0
VERTEX
8
BOX05
10
0
20
0
30
0
70
128
71
-109
72
111
73
-112
0
VERTEX
8
BOX05
10
0
20
0
30
0
70
128
71
113
72
-109
73
-112
0
VERTEX
8
BOX05
10
0
20
0
30
0
70
128
71
-113
72
112
73
-114
0
VERTEX
8
BOX05
10
0
20
0
30
0
70
128
71
115
72
-113
73
-114
0
VERTEX
8
BOX05
10
0
20
0
30
0
70
128
71
116
72
-115
73
-114
0
VERTEX
8
BOX05
10
0
20
0
30
0
70
128
71
-116
72
114
73
-117
0
VERTEX
8
BOX05
10
0
20
0
30
0
70
128
71
118
72
-116
73
-117
0
VERTEX
8
BOX05
10
0
20
0
30
0
70
128
71
-118
72
117
73
-119
0
VERTEX
8
BOX05
10
0
20
0
30
0
70
128
71
-118
72
119
73
-120
0
VERTEX
8
BOX05
10
0
20
0
30
0
70
128
71
121
72
-118
73
-120
0
VERTEX
8
BOX05
10
0
20
0
30
0
70
128
71
-121
72
120
73
-122
0
VERTEX
8
BOX05
10
0
20
0
30
0
70
128
71
123
72
-121
73
122
0
VERTEX
8
BOX05
10
0
20
0
30
0
70
128
71
123
72
122
73
-124
0
VERTEX
8
BOX05
10
0
20
0
30
0
70
128
71
125
72
-123
73
124
0
VERTEX
8
BOX05
10
0
20
0
30
0
70
128
71
125
72
124
73
-126
0
VERTEX
8
BOX05
10
0
20
0
30
0
70
128
71
127
72
-125
73
-126
0
VERTEX
8
BOX05
10
0
20
0
30
0
70
128
71
-127
72
126
73
-128
0
VERTEX
8
BOX05
10
0
20
0
30
0
70
128
71
129
72
-127
73
-128
0
VERTEX
8
BOX05
10
0
20
0
30
0
70
128
71
-129
72
128
73
-130
0
VERTEX
8
BOX05
10
0
20
0
30
0
70
128
71
131
72
-129
73
-130
0
VERTEX
8
BOX05
10
0
20
0
30
0
70
128
71
132
72
-131
73
-130
0
VERTEX
8
BOX05
10
0
20
0
30
0
70
128
71
-132
72
130
73
-133
0
VERTEX
8
BOX05
10
0
20
0
30
0
70
128
71
134
72
-132
73
-133
0
VERTEX
8
BOX05
10
0
20
0
30
0
70
128
71
-134
72
133
73
-135
0
VERTEX
8
BOX05
10
0
20
0
30
0
70
128
71
-134
72
135
73
-136
0
VERTEX
8
BOX05
10
0
20
0
30
0
70
128
71
137
72
-134
73
-136
0
VERTEX
8
BOX05
10
0
20
0
30
0
70
128
71
-137
72
136
73
138
0
VERTEX
8
BOX05
10
0
20
0
30
0
70
128
71
123
72
125
73
-139
0
VERTEX
8
BOX05
10
0
20
0
30
0
70
128
71
-123
72
139
73
140
0
VERTEX
8
BOX05
10
0
20
0
30
0
70
128
71
125
72
127
73
-141
0
VERTEX
8
BOX05
10
0
20
0
30
0
70
128
71
-125
72
141
73
139
0
VERTEX
8
BOX05
10
0
20
0
30
0
70
128
71
127
72
129
73
-142
0
VERTEX
8
BOX05
10
0
20
0
30
0
70
128
71
-127
72
142
73
141
0
VERTEX
8
BOX05
10
0
20
0
30
0
70
128
71
129
72
131
73
-143
0
VERTEX
8
BOX05
10
0
20
0
30
0
70
128
71
-129
72
143
73
142
0
VERTEX
8
BOX05
10
0
20
0
30
0
70
128
71
131
72
132
73
-144
0
VERTEX
8
BOX05
10
0
20
0
30
0
70
128
71
-131
72
144
73
143
0
VERTEX
8
BOX05
10
0
20
0
30
0
70
128
71
132
72
134
73
-145
0
VERTEX
8
BOX05
10
0
20
0
30
0
70
128
71
-132
72
145
73
144
0
VERTEX
8
BOX05
10
0
20
0
30
0
70
128
71
134
72
137
73
-146
0
VERTEX
8
BOX05
10
0
20
0
30
0
70
128
71
-134
72
146
73
145
0
VERTEX
8
BOX05
10
0
20
0
30
0
70
128
71
137
72
138
73
-147
0
VERTEX
8
BOX05
10
0
20
0
30
0
70
128
71
-137
72
147
73
146
0
VERTEX
8
BOX05
10
0
20
0
30
0
70
128
71
138
72
136
73
-148
0
VERTEX
8
BOX05
10
0
20
0
30
0
70
128
71
-138
72
148
73
147
0
VERTEX
8
BOX05
10
0
20
0
30
0
70
128
71
136
72
135
73
-149
0
VERTEX
8
BOX05
10
0
20
0
30
0
70
128
71
-136
72
149
73
148
0
VERTEX
8
BOX05
10
0
20
0
30
0
70
128
71
135
72
133
73
-150
0
VERTEX
8
BOX05
10
0
20
0
30
0
70
128
71
-135
72
150
73
149
0
VERTEX
8
BOX05
10
0
20
0
30
0
70
128
71
133
72
130
73
-151
0
VERTEX
8
BOX05
10
0
20
0
30
0
70
128
71
-133
72
151
73
150
0
VERTEX
8
BOX05
10
0
20
0
30
0
70
128
71
130
72
128
73
-152
0
VERTEX
8
BOX05
10
0
20
0
30
0
70
128
71
-130
72
152
73
151
0
VERTEX
8
BOX05
10
0
20
0
30
0
70
128
71
128
72
126
73
-153
0
VERTEX
8
BOX05
10
0
20
0
30
0
70
128
71
-128
72
153
73
152
0
VERTEX
8
BOX05
10
0
20
0
30
0
70
128
71
126
72
124
73
-154
0
VERTEX
8
BOX05
10
0
20
0
30
0
70
128
71
-126
72
154
73
153
0
VERTEX
8
BOX05
10
0
20
0
30
0
70
128
71
124
72
122
73
-155
0
VERTEX
8
BOX05
10
0
20
0
30
0
70
128
71
-124
72
155
73
154
0
VERTEX
8
BOX05
10
0
20
0
30
0
70
128
71
122
72
120
73
-156
0
VERTEX
8
BOX05
10
0
20
0
30
0
70
128
71
-122
72
156
73
155
0
VERTEX
8
BOX05
10
0
20
0
30
0
70
128
71
120
72
119
73
-157
0
VERTEX
8
BOX05
10
0
20
0
30
0
70
128
71
-120
72
157
73
156
0
VERTEX
8
BOX05
10
0
20
0
30
0
70
128
71
119
72
117
73
-158
0
VERTEX
8
BOX05
10
0
20
0
30
0
70
128
71
-119
72
158
73
157
0
VERTEX
8
BOX05
10
0
20
0
30
0
70
128
71
117
72
114
73
-159
0
VERTEX
8
BOX05
10
0
20
0
30
0
70
128
71
-117
72
159
73
158
0
VERTEX
8
BOX05
10
0
20
0
30
0
70
128
71
114
72
112
73
-160
0
VERTEX
8
BOX05
10
0
20
0
30
0
70
128
71
-114
72
160
73
159
0
VERTEX
8
BOX05
10
0
20
0
30
0
70
128
71
112
72
111
73
-161
0
VERTEX
8
BOX05
10
0
20
0
30
0
70
128
71
-112
72
161
73
160
0
VERTEX
8
BOX05
10
0
20
0
30
0
70
128
71
111
72
110
73
-162
0
VERTEX
8
BOX05
10
0
20
0
30
0
70
128
71
-111
72
162
73
161
0
VERTEX
8
BOX05
10
0
20
0
30
0
70
128
71
110
72
109
73
-163
0
VERTEX
8
BOX05
10
0
20
0
30
0
70
128
71
-110
72
163
73
162
0
VERTEX
8
BOX05
10
0
20
0
30
0
70
128
71
109
72
113
73
-164
0
VERTEX
8
BOX05
10
0
20
0
30
0
70
128
71
-109
72
164
73
163
0
VERTEX
8
BOX05
10
0
20
0
30
0
70
128
71
113
72
115
73
-165
0
VERTEX
8
BOX05
10
0
20
0
30
0
70
128
71
-113
72
165
73
164
0
VERTEX
8
BOX05
10
0
20
0
30
0
70
128
71
115
72
116
73
-166
0
VERTEX
8
BOX05
10
0
20
0
30
0
70
128
71
-115
72
166
73
165
0
VERTEX
8
BOX05
10
0
20
0
30
0
70
128
71
116
72
118
73
-167
0
VERTEX
8
BOX05
10
0
20
0
30
0
70
128
71
-116
72
167
73
166
0
VERTEX
8
BOX05
10
0
20
0
30
0
70
128
71
118
72
121
73
-168
0
VERTEX
8
BOX05
10
0
20
0
30
0
70
128
71
-118
72
168
73
167
0
VERTEX
8
BOX05
10
0
20
0
30
0
70
128
71
121
72
123
73
-140
0
VERTEX
8
BOX05
10
0
20
0
30
0
70
128
71
-121
72
140
73
168
0
VERTEX
8
BOX05
10
0
20
0
30
0
70
128
71
161
72
162
73
-163
0
VERTEX
8
BOX05
10
0
20
0
30
0
70
128
71
160
72
-161
73
-163
0
VERTEX
8
BOX05
10
0
20
0
30
0
70
128
71
-160
72
163
73
-164
0
VERTEX
8
BOX05
10
0
20
0
30
0
70
128
71
159
72
-160
73
-164
0
VERTEX
8
BOX05
10
0
20
0
30
0
70
128
71
-159
72
164
73
-165
0
VERTEX
8
BOX05
10
0
20
0
30
0
70
128
71
-159
72
165
73
-166
0
VERTEX
8
BOX05
10
0
20
0
30
0
70
128
71
158
72
-159
73
-166
0
VERTEX
8
BOX05
10
0
20
0
30
0
70
128
71
-158
72
166
73
-167
0
VERTEX
8
BOX05
10
0
20
0
30
0
70
128
71
157
72
-158
73
-167
0
VERTEX
8
BOX05
10
0
20
0
30
0
70
128
71
156
72
-157
73
-167
0
VERTEX
8
BOX05
10
0
20
0
30
0
70
128
71
-156
72
167
73
-168
0
VERTEX
8
BOX05
10
0
20
0
30
0
70
128
71
155
72
-156
73
-168
0
VERTEX
8
BOX05
10
0
20
0
30
0
70
128
71
-155
72
168
73
140
0
VERTEX
8
BOX05
10
0
20
0
30
0
70
128
71
154
72
155
73
-140
0
VERTEX
8
BOX05
10
0
20
0
30
0
70
128
71
-154
72
140
73
139
0
VERTEX
8
BOX05
10
0
20
0
30
0
70
128
71
153
72
154
73
-139
0
VERTEX
8
BOX05
10
0
20
0
30
0
70
128
71
-153
72
139
73
-141
0
VERTEX
8
BOX05
10
0
20
0
30
0
70
128
71
152
72
-153
73
-141
0
VERTEX
8
BOX05
10
0
20
0
30
0
70
128
71
-152
72
141
73
-142
0
VERTEX
8
BOX05
10
0
20
0
30
0
70
128
71
151
72
-152
73
-142
0
VERTEX
8
BOX05
10
0
20
0
30
0
70
128
71
-151
72
142
73
-143
0
VERTEX
8
BOX05
10
0
20
0
30
0
70
128
71
-151
72
143
73
-144
0
VERTEX
8
BOX05
10
0
20
0
30
0
70
128
71
150
72
-151
73
-144
0
VERTEX
8
BOX05
10
0
20
0
30
0
70
128
71
-150
72
144
73
-145
0
VERTEX
8
BOX05
10
0
20
0
30
0
70
128
71
149
72
-150
73
-145
0
VERTEX
8
BOX05
10
0
20
0
30
0
70
128
71
148
72
-149
73
-145
0
VERTEX
8
BOX05
10
0
20
0
30
0
70
128
71
-148
72
145
73
-146
0
VERTEX
8
BOX05
10
0
20
0
30
0
70
128
71
147
72
-148
73
146
0
SEQEND
8
BOX05
0
POLYLINE
8
BOX04
66
1
70
64
71
168
72
306
62
171
0
VERTEX
8
BOX04
10
-37.952515
20
-23.734440
30
32.462391
70
192
0
VERTEX
8
BOX04
10
-37.952503
20
-23.734438
30
39.209419
70
192
0
VERTEX
8
BOX04
10
-37.952503
20
20.750286
30
39.209423
70
192
0
VERTEX
8
BOX04
10
-37.952515
20
20.750282
30
32.462395
70
192
0
VERTEX
8
BOX04
10
-38.907349
20
20.750278
30
32.816380
70
192
0
VERTEX
8
BOX04
10
-38.907349
20
-23.734442
30
32.816376
70
192
0
VERTEX
8
BOX04
10
-38.553364
20
20.750286
30
39.209423
70
192
0
VERTEX
8
BOX04
10
-38.907349
20
-23.734434
30
38.855438
70
192
0
VERTEX
8
BOX04
10
-38.553364
20
20.750278
30
32.462399
70
192
0
VERTEX
8
BOX04
10
-38.553364
20
-23.734444
30
32.462391
70
192
0
VERTEX
8
BOX04
10
-38.907349
20
20.750286
30
38.855442
70
192
0
VERTEX
8
BOX04
10
-38.553364
20
-23.734434
30
39.209419
70
192
0
VERTEX
8
BOX04
10
37.974781
20
-23.734438
30
32.462391
70
192
0
VERTEX
8
BOX04
10
37.974773
20
-23.734438
30
39.209419
70
192
0
VERTEX
8
BOX04
10
37.974773
20
20.750290
30
39.209423
70
192
0
VERTEX
8
BOX04
10
37.974781
20
20.750286
30
32.462395
70
192
0
VERTEX
8
BOX04
10
38.929619
20
20.750286
30
32.816380
70
192
0
VERTEX
8
BOX04
10
38.929619
20
-23.734442
30
32.816372
70
192
0
VERTEX
8
BOX04
10
38.575634
20
20.750290
30
39.209423
70
192
0
VERTEX
8
BOX04
10
38.929619
20
-23.734434
30
38.855434
70
192
0
VERTEX
8
BOX04
10
38.575634
20
20.750286
30
32.462399
70
192
0
VERTEX
8
BOX04
10
38.575634
20
-23.734442
30
32.462391
70
192
0
VERTEX
8
BOX04
10
38.929619
20
20.750290
30
38.855442
70
192
0
VERTEX
8
BOX04
10
38.575634
20
-23.734434
30
39.209419
70
192
0
VERTEX
8
BOX04
10
-37.919628
20
22.475956
30
27.689877
70
192
0
VERTEX
8
BOX04
10
-37.919628
20
22.475952
30
43.468517
70
192
0
VERTEX
8
BOX04
10
37.974781
20
22.475952
30
43.468517
70
192
0
VERTEX
8
BOX04
10
37.974781
20
22.475956
30
27.689877
70
192
0
VERTEX
8
BOX04
10
37.974773
20
-23.734440
30
27.689865
70
192
0
VERTEX
8
BOX04
10
-37.919636
20
-23.734440
30
27.689871
70
192
0
VERTEX
8
BOX04
10
37.974773
20
-23.734442
30
43.468502
70
192
0
VERTEX
8
BOX04
10
-37.919628
20
-23.734446
30
43.468506
70
192
0
VERTEX
8
BOX04
10
-36.193966
20
20.750286
30
43.468956
70
192
0
VERTEX
8
BOX04
10
36.249119
20
20.750290
30
43.468960
70
192
0
VERTEX
8
BOX04
10
36.249111
20
-23.734442
30
43.468945
70
192
0
VERTEX
8
BOX04
10
-36.193966
20
-23.734446
30
43.468948
70
192
0
VERTEX
8
BOX04
10
-36.193966
20
20.750290
30
29.673733
70
192
0
VERTEX
8
BOX04
10
36.249115
20
20.750290
30
29.673733
70
192
0
VERTEX
8
BOX04
10
36.249111
20
-23.734438
30
29.673717
70
192
0
VERTEX
8
BOX04
10
-36.193966
20
-23.734440
30
29.673719
70
192
0
VERTEX
8
BOX04
10
-39.559422
20
-25.675060
30
45.139862
70
192
0
VERTEX
8
BOX04
10
40.440578
20
-25.675064
30
45.139862
70
192
0
VERTEX
8
BOX04
10
40.440578
20
-25.675062
30
27.689865
70
192
0
VERTEX
8
BOX04
10
-39.559422
20
-25.675058
30
27.689865
70
192
0
VERTEX
8
BOX04
10
-39.559422
20
-23.734440
30
45.139862
70
192
0
VERTEX
8
BOX04
10
40.440578
20
-23.734444
30
45.139862
70
192
0
VERTEX
8
BOX04
10
40.440578
20
-23.734442
30
27.689861
70
192
0
VERTEX
8
BOX04
10
-39.559422
20
-23.734438
30
27.689865
70
192
0
VERTEX
8
BOX04
10
32.068447
20
-26.231001
30
37.466160
70
192
0
VERTEX
8
BOX04
10
32.068447
20
-28.196089
30
37.466755
70
192
0
VERTEX
8
BOX04
10
31.974850
20
-28.196089
30
36.411518
70
192
0
VERTEX
8
BOX04
10
31.708309
20
-28.196089
30
35.946033
70
192
0
VERTEX
8
BOX04
10
31.290096
20
-28.196091
30
35.535282
70
192
0
VERTEX
8
BOX04
10
30.741634
20
-28.196152
30
35.192600
70
192
0
VERTEX
8
BOX04
10
30.084255
20
-28.196152
30
34.931324
70
192
0
VERTEX
8
BOX04
10
29.339291
20
-28.196152
30
34.764759
70
192
0
VERTEX
8
BOX04
10
28.528042
20
-28.196152
30
34.706257
70
192
0
VERTEX
8
BOX04
10
27.716824
20
-28.196152
30
34.764744
70
192
0
VERTEX
8
BOX04
10
26.971828
20
-28.196152
30
34.931309
70
192
0
VERTEX
8
BOX04
10
26.314449
20
-28.196152
30
35.192585
70
192
0
VERTEX
8
BOX04
10
25.765987
20
-28.196152
30
35.535282
70
192
0
VERTEX
8
BOX04
10
25.347805
20
-28.196150
30
35.946033
70
192
0
VERTEX
8
BOX04
10
25.081264
20
-28.196089
30
36.411503
70
192
0
VERTEX
8
BOX04
10
24.987637
20
-28.196089
30
37.466755
70
192
0
VERTEX
8
BOX04
10
24.987637
20
-26.231001
30
37.466160
70
192
0
VERTEX
8
BOX04
10
25.081264
20
-26.238081
30
36.363605
70
192
0
VERTEX
8
BOX04
10
25.347805
20
-26.238081
30
35.898121
70
192
0
VERTEX
8
BOX04
10
25.765987
20
-26.238081
30
35.487370
70
192
0
VERTEX
8
BOX04
10
26.314449
20
-26.238081
30
35.144672
70
192
0
VERTEX
8
BOX04
10
26.971828
20
-26.238081
30
34.883396
70
192
0
VERTEX
8
BOX04
10
27.716824
20
-26.238081
30
34.716846
70
192
0
VERTEX
8
BOX04
10
28.528042
20
-26.238081
30
34.658360
70
192
0
VERTEX
8
BOX04
10
29.339291
20
-26.238081
30
34.716862
70
192
0
VERTEX
8
BOX04
10
30.084255
20
-26.238081
30
34.883411
70
192
0
VERTEX
8
BOX04
10
30.741634
20
-26.238081
30
35.144688
70
192
0
VERTEX
8
BOX04
10
31.290096
20
-26.238081
30
35.487385
70
192
0
VERTEX
8
BOX04
10
31.708309
20
-26.238081
30
35.898136
70
192
0
VERTEX
8
BOX04
10
31.974850
20
-26.238081
30
36.363621
70
192
0
VERTEX
8
BOX04
10
32.068447
20
-26.392866
30
37.258320
70
192
0
VERTEX
8
BOX04
10
32.068447
20
-28.048384
30
37.258915
70
192
0
VERTEX
8
BOX04
10
31.974850
20
-28.048384
30
36.411518
70
192
0
VERTEX
8
BOX04
10
31.708309
20
-28.048384
30
35.946033
70
192
0
VERTEX
8
BOX04
10
31.290096
20
-28.048386
30
35.535282
70
192
0
VERTEX
8
BOX04
10
30.741634
20
-28.048386
30
35.192600
70
192
0
VERTEX
8
BOX04
10
30.084255
20
-28.048386
30
34.931324
70
192
0
VERTEX
8
BOX04
10
29.339291
20
-28.048386
30
34.764759
70
192
0
VERTEX
8
BOX04
10
28.528042
20
-28.048386
30
34.706257
70
192
0
VERTEX
8
BOX04
10
27.716824
20
-28.048386
30
34.764744
70
192
0
VERTEX
8
BOX04
10
26.971828
20
-28.048386
30
34.931309
70
192
0
VERTEX
8
BOX04
10
26.314449
20
-28.048386
30
35.192585
70
192
0
VERTEX
8
BOX04
10
25.765987
20
-28.048386
30
35.535282
70
192
0
VERTEX
8
BOX04
10
25.347805
20
-28.048384
30
35.946033
70
192
0
VERTEX
8
BOX04
10
25.081264
20
-28.048384
30
36.411503
70
192
0
VERTEX
8
BOX04
10
24.987637
20
-28.048384
30
37.258915
70
192
0
VERTEX
8
BOX04
10
24.987637
20
-26.392866
30
37.258320
70
192
0
VERTEX
8
BOX04
10
25.081264
20
-26.385786
30
36.363605
70
192
0
VERTEX
8
BOX04
10
25.347805
20
-26.385786
30
35.898121
70
192
0
VERTEX
8
BOX04
10
25.765987
20
-26.385786
30
35.487370
70
192
0
VERTEX
8
BOX04
10
26.314449
20
-26.385786
30
35.144672
70
192
0
VERTEX
8
BOX04
10
26.971828
20
-26.385786
30
34.883396
70
192
0
VERTEX
8
BOX04
10
27.716824
20
-26.385786
30
34.716846
70
192
0
VERTEX
8
BOX04
10
28.528042
20
-26.385786
30
34.658360
70
192
0
VERTEX
8
BOX04
10
29.339291
20
-26.385786
30
34.716862
70
192
0
VERTEX
8
BOX04
10
30.084255
20
-26.385786
30
34.883411
70
192
0
VERTEX
8
BOX04
10
30.741634
20
-26.385786
30
35.144688
70
192
0
VERTEX
8
BOX04
10
31.290096
20
-26.385786
30
35.487385
70
192
0
VERTEX
8
BOX04
10
31.708309
20
-26.385786
30
35.898136
70
192
0
VERTEX
8
BOX04
10
31.974850
20
-26.385786
30
36.363621
70
192
0
VERTEX
8
BOX04
10
-28.702503
20
-26.238081
30
34.716862
70
192
0
VERTEX
8
BOX04
10
-29.513752
20
-26.238081
30
34.658360
70
192
0
VERTEX
8
BOX04
10
-30.324970
20
-26.238081
30
34.716846
70
192
0
VERTEX
8
BOX04
10
-31.069965
20
-26.238081
30
34.883396
70
192
0
VERTEX
8
BOX04
10
-27.957539
20
-26.238081
30
34.883411
70
192
0
VERTEX
8
BOX04
10
-31.727345
20
-26.238081
30
35.144672
70
192
0
VERTEX
8
BOX04
10
-27.300159
20
-26.238081
30
35.144688
70
192
0
VERTEX
8
BOX04
10
-26.751698
20
-26.238081
30
35.487385
70
192
0
VERTEX
8
BOX04
10
-32.275806
20
-26.238081
30
35.487370
70
192
0
VERTEX
8
BOX04
10
-26.333485
20
-26.238081
30
35.898136
70
192
0
VERTEX
8
BOX04
10
-32.693989
20
-26.238081
30
35.898121
70
192
0
VERTEX
8
BOX04
10
-32.960529
20
-26.238081
30
36.363605
70
192
0
VERTEX
8
BOX04
10
-26.066944
20
-26.238081
30
36.363621
70
192
0
VERTEX
8
BOX04
10
-33.054157
20
-26.231001
30
37.466160
70
192
0
VERTEX
8
BOX04
10
-25.973347
20
-26.231001
30
37.466160
70
192
0
VERTEX
8
BOX04
10
-33.054157
20
-28.196089
30
37.466755
70
192
0
VERTEX
8
BOX04
10
-25.973347
20
-28.196089
30
37.466755
70
192
0
VERTEX
8
BOX04
10
-32.960529
20
-28.196089
30
36.411503
70
192
0
VERTEX
8
BOX04
10
-26.066944
20
-28.196089
30
36.411518
70
192
0
VERTEX
8
BOX04
10
-32.693989
20
-28.196150
30
35.946033
70
192
0
VERTEX
8
BOX04
10
-26.333485
20
-28.196089
30
35.946033
70
192
0
VERTEX
8
BOX04
10
-32.275806
20
-28.196152
30
35.535282
70
192
0
VERTEX
8
BOX04
10
-26.751698
20
-28.196091
30
35.535282
70
192
0
VERTEX
8
BOX04
10
-27.300159
20
-28.196152
30
35.192600
70
192
0
VERTEX
8
BOX04
10
-31.727345
20
-28.196152
30
35.192585
70
192
0
VERTEX
8
BOX04
10
-27.957539
20
-28.196152
30
34.931324
70
192
0
VERTEX
8
BOX04
10
-31.069965
20
-28.196152
30
34.931309
70
192
0
VERTEX
8
BOX04
10
-30.324970
20
-28.196152
30
34.764744
70
192
0
VERTEX
8
BOX04
10
-28.702503
20
-28.196152
30
34.764759
70
192
0
VERTEX
8
BOX04
10
-29.513752
20
-28.196152
30
34.706257
70
192
0
VERTEX
8
BOX04
10
-25.973347
20
-28.048384
30
37.258915
70
192
0
VERTEX
8
BOX04
10
-25.973347
20
-26.392866
30
37.258320
70
192
0
VERTEX
8
BOX04
10
-26.066944
20
-28.048384
30
36.411518
70
192
0
VERTEX
8
BOX04
10
-26.333485
20
-28.048384
30
35.946033
70
192
0
VERTEX
8
BOX04
10
-26.751698
20
-28.048386
30
35.535282
70
192
0
VERTEX
8
BOX04
10
-27.300159
20
-28.048386
30
35.192600
70
192
0
VERTEX
8
BOX04
10
-27.957539
20
-28.048386
30
34.931324
70
192
0
VERTEX
8
BOX04
10
-28.702503
20
-28.048386
30
34.764759
70
192
0
VERTEX
8
BOX04
10
-29.513752
20
-28.048386
30
34.706257
70
192
0
VERTEX
8
BOX04
10
-30.324970
20
-28.048386
30
34.764744
70
192
0
VERTEX
8
BOX04
10
-31.069965
20
-28.048386
30
34.931309
70
192
0
VERTEX
8
BOX04
10
-31.727345
20
-28.048386
30
35.192585
70
192
0
VERTEX
8
BOX04
10
-32.275806
20
-28.048386
30
35.535282
70
192
0
VERTEX
8
BOX04
10
-32.693989
20
-28.048384
30
35.946033
70
192
0
VERTEX
8
BOX04
10
-32.960529
20
-28.048384
30
36.411503
70
192
0
VERTEX
8
BOX04
10
-33.054157
20
-28.048384
30
37.258915
70
192
0
VERTEX
8
BOX04
10
-33.054157
20
-26.392866
30
37.258320
70
192
0
VERTEX
8
BOX04
10
-32.960529
20
-26.385786
30
36.363605
70
192
0
VERTEX
8
BOX04
10
-32.693989
20
-26.385786
30
35.898121
70
192
0
VERTEX
8
BOX04
10
-32.275806
20
-26.385786
30
35.487370
70
192
0
VERTEX
8
BOX04
10
-31.727345
20
-26.385786
30
35.144672
70
192
0
VERTEX
8
BOX04
10
-31.069965
20
-26.385786
30
34.883396
70
192
0
VERTEX
8
BOX04
10
-30.324970
20
-26.385786
30
34.716846
70
192
0
VERTEX
8
BOX04
10
-29.513752
20
-26.385786
30
34.658360
70
192
0
VERTEX
8
BOX04
10
-28.702503
20
-26.385786
30
34.716862
70
192
0
VERTEX
8
BOX04
10
-27.957539
20
-26.385786
30
34.883411
70
192
0
VERTEX
8
BOX04
10
-27.300159
20
-26.385786
30
35.144688
70
192
0
VERTEX
8
BOX04
10
-26.751698
20
-26.385786
30
35.487385
70
192
0
VERTEX
8
BOX04
10
-26.333485
20
-26.385786
30
35.898136
70
192
0
VERTEX
8
BOX04
10
-26.066944
20
-26.385786
30
36.363621
70
192
0
VERTEX
8
BOX04
10
0
20
0
30
0
70
128
71
2
72
-1
73
3
0
VERTEX
8
BOX04
10
0
20
0
30
0
70
128
71
4
72
-3
73
1
0
VERTEX
8
BOX04
10
0
20
0
30
0
70
128
71
4
72
-1
73
9
0
VERTEX
8
BOX04
10
0
20
0
30
0
70
128
71
10
72
-9
73
1
0
VERTEX
8
BOX04
10
0
20
0
30
0
70
128
71
3
72
-4
73
7
0
VERTEX
8
BOX04
10
0
20
0
30
0
70
128
71
-9
72
-11
73
4
0
VERTEX
8
BOX04
10
0
20
0
30
0
70
128
71
2
72
-3
73
12
0
VERTEX
8
BOX04
10
0
20
0
30
0
70
128
71
7
72
-12
73
3
0
VERTEX
8
BOX04
10
0
20
0
30
0
70
128
71
1
72
-2
73
10
0
VERTEX
8
BOX04
10
0
20
0
30
0
70
128
71
-12
72
-6
73
2
0
VERTEX
8
BOX04
10
0
20
0
30
0
70
128
71
11
72
-5
73
8
0
VERTEX
8
BOX04
10
0
20
0
30
0
70
128
71
6
72
-8
73
5
0
VERTEX
8
BOX04
10
0
20
0
30
0
70
128
71
5
72
-11
73
9
0
VERTEX
8
BOX04
10
0
20
0
30
0
70
128
71
8
72
-6
73
12
0
VERTEX
8
BOX04
10
0
20
0
30
0
70
128
71
5
72
9
73
-10
0
VERTEX
8
BOX04
10
0
20
0
30
0
70
128
71
10
72
6
73
-5
0
VERTEX
8
BOX04
10
0
20
0
30
0
70
128
71
-7
72
-4
73
11
0
VERTEX
8
BOX04
10
0
20
0
30
0
70
128
71
7
72
11
73
-8
0
VERTEX
8
BOX04
10
0
20
0
30
0
70
128
71
8
72
12
73
-7
0
VERTEX
8
BOX04
10
0
20
0
30
0
70
128
71
-10
72
-2
73
6
0
VERTEX
8
BOX04
10
0
20
0
30
0
70
128
71
-15
72
13
73
14
0
VERTEX
8
BOX04
10
0
20
0
30
0
70
128
71
-13
72
15
73
16
0
VERTEX
8
BOX04
10
0
20
0
30
0
70
128
71
-21
72
13
73
16
0
VERTEX
8
BOX04
10
0
20
0
30
0
70
128
71
-13
72
21
73
22
0
VERTEX
8
BOX04
10
0
20
0
30
0
70
128
71
-19
72
16
73
15
0
VERTEX
8
BOX04
10
0
20
0
30
0
70
128
71
-16
72
-23
73
21
0
VERTEX
8
BOX04
10
0
20
0
30
0
70
128
71
-24
72
15
73
14
0
VERTEX
8
BOX04
10
0
20
0
30
0
70
128
71
-15
72
24
73
19
0
VERTEX
8
BOX04
10
0
20
0
30
0
70
128
71
-22
72
14
73
13
0
VERTEX
8
BOX04
10
0
20
0
30
0
70
128
71
-14
72
-18
73
24
0
VERTEX
8
BOX04
10
0
20
0
30
0
70
128
71
-20
72
17
73
23
0
VERTEX
8
BOX04
10
0
20
0
30
0
70
128
71
-17
72
20
73
18
0
VERTEX
8
BOX04
10
0
20
0
30
0
70
128
71
-21
72
23
73
17
0
VERTEX
8
BOX04
10
0
20
0
30
0
70
128
71
-24
72
18
73
20
0
VERTEX
8
BOX04
10
0
20
0
30
0
70
128
71
22
72
21
73
-17
0
VERTEX
8
BOX04
10
0
20
0
30
0
70
128
71
17
72
18
73
-22
0
VERTEX
8
BOX04
10
0
20
0
30
0
70
128
71
-23
72
-16
73
19
0
VERTEX
8
BOX04
10
0
20
0
30
0
70
128
71
20
72
23
73
-19
0
VERTEX
8
BOX04
10
0
20
0
30
0
70
128
71
19
72
24
73
-20
0
VERTEX
8
BOX04
10
0
20
0
30
0
70
128
71
-18
72
-14
73
22
0
VERTEX
8
BOX04
10
0
20
0
30
0
70
128
71
-27
72
25
73
26
0
VERTEX
8
BOX04
10
0
20
0
30
0
70
128
71
-25
72
27
73
28
0
VERTEX
8
BOX04
10
0
20
0
30
0
70
128
71
-29
72
25
73
28
0
VERTEX
8
BOX04
10
0
20
0
30
0
70
128
71
-25
72
29
73
30
0
VERTEX
8
BOX04
10
0
20
0
30
0
70
128
71
-31
72
28
73
27
0
VERTEX
8
BOX04
10
0
20
0
30
0
70
128
71
-28
72
31
73
29
0
VERTEX
8
BOX04
10
0
20
0
30
0
70
128
71
-40
72
38
73
37
0
VERTEX
8
BOX04
10
0
20
0
30
0
70
128
71
-38
72
40
73
39
0
VERTEX
8
BOX04
10
0
20
0
30
0
70
128
71
-30
72
26
73
25
0
VERTEX
8
BOX04
10
0
20
0
30
0
70
128
71
-26
72
30
73
32
0
VERTEX
8
BOX04
10
0
20
0
30
0
70
128
71
-33
72
27
73
26
0
VERTEX
8
BOX04
10
0
20
0
30
0
70
128
71
-27
72
33
73
34
0
VERTEX
8
BOX04
10
0
20
0
30
0
70
128
71
-34
72
31
73
27
0
VERTEX
8
BOX04
10
0
20
0
30
0
70
128
71
-31
72
34
73
35
0
VERTEX
8
BOX04
10
0
20
0
30
0
70
128
71
-36
72
26
73
32
0
VERTEX
8
BOX04
10
0
20
0
30
0
70
128
71
-26
72
36
73
33
0
VERTEX
8
BOX04
10
0
20
0
30
0
70
128
71
-37
72
34
73
33
0
VERTEX
8
BOX04
10
0
20
0
30
0
70
128
71
-34
72
37
73
38
0
VERTEX
8
BOX04
10
0
20
0
30
0
70
128
71
-40
72
33
73
36
0
VERTEX
8
BOX04
10
0
20
0
30
0
70
128
71
-33
72
40
73
37
0
VERTEX
8
BOX04
10
0
20
0
30
0
70
128
71
-38
72
35
73
34
0
VERTEX
8
BOX04
10
0
20
0
30
0
70
128
71
-35
72
38
73
39
0
VERTEX
8
BOX04
10
0
20
0
30
0
70
128
71
41
72
44
73
-43
0
VERTEX
8
BOX04
10
0
20
0
30
0
70
128
71
42
72
-41
73
43
0
VERTEX
8
BOX04
10
0
20
0
30
0
70
128
71
41
72
42
73
-46
0
VERTEX
8
BOX04
10
0
20
0
30
0
70
128
71
-41
72
46
73
45
0
VERTEX
8
BOX04
10
0
20
0
30
0
70
128
71
42
72
43
73
-47
0
VERTEX
8
BOX04
10
0
20
0
30
0
70
128
71
-42
72
47
73
46
0
VERTEX
8
BOX04
10
0
20
0
30
0
70
128
71
43
72
44
73
-48
0
VERTEX
8
BOX04
10
0
20
0
30
0
70
128
71
-43
72
48
73
47
0
VERTEX
8
BOX04
10
0
20
0
30
0
70
128
71
44
72
41
73
-45
0
VERTEX
8
BOX04
10
0
20
0
30
0
70
128
71
-44
72
45
73
48
0
VERTEX
8
BOX04
10
0
20
0
30
0
70
128
71
47
72
48
73
-45
0
VERTEX
8
BOX04
10
0
20
0
30
0
70
128
71
-47
72
45
73
46
0
VERTEX
8
BOX04
10
0
20
0
30
0
70
128
71
73
72
72
73
-71
0
VERTEX
8
BOX04
10
0
20
0
30
0
70
128
71
-73
72
71
73
-70
0
VERTEX
8
BOX04
10
0
20
0
30
0
70
128
71
74
72
-73
73
-70
0
VERTEX
8
BOX04
10
0
20
0
30
0
70
128
71
-74
72
70
73
-69
0
VERTEX
8
BOX04
10
0
20
0
30
0
70
128
71
75
72
-74
73
-69
0
VERTEX
8
BOX04
10
0
20
0
30
0
70
128
71
76
72
-75
73
-69
0
VERTEX
8
BOX04
10
0
20
0
30
0
70
128
71
-76
72
69
73
-68
0
VERTEX
8
BOX04
10
0
20
0
30
0
70
128
71
77
72
-76
73
-68
0
VERTEX
8
BOX04
10
0
20
0
30
0
70
128
71
-77
72
68
73
-67
0
VERTEX
8
BOX04
10
0
20
0
30
0
70
128
71
-77
72
67
73
-66
0
VERTEX
8
BOX04
10
0
20
0
30
0
70
128
71
78
72
-77
73
-66
0
VERTEX
8
BOX04
10
0
20
0
30
0
70
128
71
-78
72
66
73
-65
0
VERTEX
8
BOX04
10
0
20
0
30
0
70
128
71
49
72
-78
73
65
0
VERTEX
8
BOX04
10
0
20
0
30
0
70
128
71
49
72
65
73
-64
0
VERTEX
8
BOX04
10
0
20
0
30
0
70
128
71
50
72
-49
73
64
0
VERTEX
8
BOX04
10
0
20
0
30
0
70
128
71
50
72
64
73
-63
0
VERTEX
8
BOX04
10
0
20
0
30
0
70
128
71
51
72
-50
73
-63
0
VERTEX
8
BOX04
10
0
20
0
30
0
70
128
71
-51
72
63
73
-62
0
VERTEX
8
BOX04
10
0
20
0
30
0
70
128
71
52
72
-51
73
-62
0
VERTEX
8
BOX04
10
0
20
0
30
0
70
128
71
-52
72
62
73
-61
0
VERTEX
8
BOX04
10
0
20
0
30
0
70
128
71
53
72
-52
73
-61
0
VERTEX
8
BOX04
10
0
20
0
30
0
70
128
71
54
72
-53
73
-61
0
VERTEX
8
BOX04
10
0
20
0
30
0
70
128
71
-54
72
61
73
-60
0
VERTEX
8
BOX04
10
0
20
0
30
0
70
128
71
55
72
-54
73
-60
0
VERTEX
8
BOX04
10
0
20
0
30
0
70
128
71
-55
72
60
73
-59
0
VERTEX
8
BOX04
10
0
20
0
30
0
70
128
71
-55
72
59
73
-58
0
VERTEX
8
BOX04
10
0
20
0
30
0
70
128
71
56
72
-55
73
-58
0
VERTEX
8
BOX04
10
0
20
0
30
0
70
128
71
-56
72
58
73
57
0
VERTEX
8
BOX04
10
0
20
0
30
0
70
128
71
49
72
50
73
-80
0
VERTEX
8
BOX04
10
0
20
0
30
0
70
128
71
-49
72
80
73
79
0
VERTEX
8
BOX04
10
0
20
0
30
0
70
128
71
50
72
51
73
-81
0
VERTEX
8
BOX04
10
0
20
0
30
0
70
128
71
-50
72
81
73
80
0
VERTEX
8
BOX04
10
0
20
0
30
0
70
128
71
51
72
52
73
-82
0
VERTEX
8
BOX04
10
0
20
0
30
0
70
128
71
-51
72
82
73
81
0
VERTEX
8
BOX04
10
0
20
0
30
0
70
128
71
52
72
53
73
-83
0
VERTEX
8
BOX04
10
0
20
0
30
0
70
128
71
-52
72
83
73
82
0
VERTEX
8
BOX04
10
0
20
0
30
0
70
128
71
53
72
54
73
-84
0
VERTEX
8
BOX04
10
0
20
0
30
0
70
128
71
-53
72
84
73
83
0
VERTEX
8
BOX04
10
0
20
0
30
0
70
128
71
54
72
55
73
-85
0
VERTEX
8
BOX04
10
0
20
0
30
0
70
128
71
-54
72
85
73
84
0
VERTEX
8
BOX04
10
0
20
0
30
0
70
128
71
55
72
56
73
-86
0
VERTEX
8
BOX04
10
0
20
0
30
0
70
128
71
-55
72
86
73
85
0
VERTEX
8
BOX04
10
0
20
0
30
0
70
128
71
56
72
57
73
-87
0
VERTEX
8
BOX04
10
0
20
0
30
0
70
128
71
-56
72
87
73
86
0
VERTEX
8
BOX04
10
0
20
0
30
0
70
128
71
57
72
58
73
-88
0
VERTEX
8
BOX04
10
0
20
0
30
0
70
128
71
-57
72
88
73
87
0
VERTEX
8
BOX04
10
0
20
0
30
0
70
128
71
58
72
59
73
-89
0
VERTEX
8
BOX04
10
0
20
0
30
0
70
128
71
-58
72
89
73
88
0
VERTEX
8
BOX04
10
0
20
0
30
0
70
128
71
59
72
60
73
-90
0
VERTEX
8
BOX04
10
0
20
0
30
0
70
128
71
-59
72
90
73
89
0
VERTEX
8
BOX04
10
0
20
0
30
0
70
128
71
60
72
61
73
-91
0
VERTEX
8
BOX04
10
0
20
0
30
0
70
128
71
-60
72
91
73
90
0
VERTEX
8
BOX04
10
0
20
0
30
0
70
128
71
61
72
62
73
-92
0
VERTEX
8
BOX04
10
0
20
0
30
0
70
128
71
-61
72
92
73
91
0
VERTEX
8
BOX04
10
0
20
0
30
0
70
128
71
62
72
63
73
-93
0
VERTEX
8
BOX04
10
0
20
0
30
0
70
128
71
-62
72
93
73
92
0
VERTEX
8
BOX04
10
0
20
0
30
0
70
128
71
63
72
64
73
-94
0
VERTEX
8
BOX04
10
0
20
0
30
0
70
128
71
-63
72
94
73
93
0
VERTEX
8
BOX04
10
0
20
0
30
0
70
128
71
64
72
65
73
-95
0
VERTEX
8
BOX04
10
0
20
0
30
0
70
128
71
-64
72
95
73
94
0
VERTEX
8
BOX04
10
0
20
0
30
0
70
128
71
65
72
66
73
-96
0
VERTEX
8
BOX04
10
0
20
0
30
0
70
128
71
-65
72
96
73
95
0
VERTEX
8
BOX04
10
0
20
0
30
0
70
128
71
66
72
67
73
-97
0
VERTEX
8
BOX04
10
0
20
0
30
0
70
128
71
-66
72
97
73
96
0
VERTEX
8
BOX04
10
0
20
0
30
0
70
128
71
67
72
68
73
-98
0
VERTEX
8
BOX04
10
0
20
0
30
0
70
128
71
-67
72
98
73
97
0
VERTEX
8
BOX04
10
0
20
0
30
0
70
128
71
68
72
69
73
-99
0
VERTEX
8
BOX04
10
0
20
0
30
0
70
128
71
-68
72
99
73
98
0
VERTEX
8
BOX04
10
0
20
0
30
0
70
128
71
69
72
70
73
-100
0
VERTEX
8
BOX04
10
0
20
0
30
0
70
128
71
-69
72
100
73
99
0
VERTEX
8
BOX04
10
0
20
0
30
0
70
128
71
70
72
71
73
-101
0
VERTEX
8
BOX04
10
0
20
0
30
0
70
128
71
-70
72
101
73
100
0
VERTEX
8
BOX04
10
0
20
0
30
0
70
128
71
71
72
72
73
-102
0
VERTEX
8
BOX04
10
0
20
0
30
0
70
128
71
-71
72
102
73
101
0
VERTEX
8
BOX04
10
0
20
0
30
0
70
128
71
72
72
73
73
-103
0
VERTEX
8
BOX04
10
0
20
0
30
0
70
128
71
-72
72
103
73
102
0
VERTEX
8
BOX04
10
0
20
0
30
0
70
128
71
73
72
74
73
-104
0
VERTEX
8
BOX04
10
0
20
0
30
0
70
128
71
-73
72
104
73
103
0
VERTEX
8
BOX04
10
0
20
0
30
0
70
128
71
74
72
75
73
-105
0
VERTEX
8
BOX04
10
0
20
0
30
0
70
128
71
-74
72
105
73
104
0
VERTEX
8
BOX04
10
0
20
0
30
0
70
128
71
75
72
76
73
-106
0
VERTEX
8
BOX04
10
0
20
0
30
0
70
128
71
-75
72
106
73
105
0
VERTEX
8
BOX04
10
0
20
0
30
0
70
128
71
76
72
77
73
-107
0
VERTEX
8
BOX04
10
0
20
0
30
0
70
128
71
-76
72
107
73
106
0
VERTEX
8
BOX04
10
0
20
0
30
0
70
128
71
77
72
78
73
-108
0
VERTEX
8
BOX04
10
0
20
0
30
0
70
128
71
-77
72
108
73
107
0
VERTEX
8
BOX04
10
0
20
0
30
0
70
128
71
78
72
49
73
-79
0
VERTEX
8
BOX04
10
0
20
0
30
0
70
128
71
-78
72
79
73
108
0
VERTEX
8
BOX04
10
0
20
0
30
0
70
128
71
101
72
102
73
-103
0
VERTEX
8
BOX04
10
0
20
0
30
0
70
128
71
100
72
-101
73
-103
0
VERTEX
8
BOX04
10
0
20
0
30
0
70
128
71
-100
72
103
73
-104
0
VERTEX
8
BOX04
10
0
20
0
30
0
70
128
71
99
72
-100
73
-104
0
VERTEX
8
BOX04
10
0
20
0
30
0
70
128
71
-99
72
104
73
-105
0
VERTEX
8
BOX04
10
0
20
0
30
0
70
128
71
-99
72
105
73
-106
0
VERTEX
8
BOX04
10
0
20
0
30
0
70
128
71
98
72
-99
73
-106
0
VERTEX
8
BOX04
10
0
20
0
30
0
70
128
71
-98
72
106
73
-107
0
VERTEX
8
BOX04
10
0
20
0
30
0
70
128
71
97
72
-98
73
-107
0
VERTEX
8
BOX04
10
0
20
0
30
0
70
128
71
96
72
-97
73
-107
0
VERTEX
8
BOX04
10
0
20
0
30
0
70
128
71
-96
72
107
73
-108
0
VERTEX
8
BOX04
10
0
20
0
30
0
70
128
71
95
72
-96
73
-108
0
VERTEX
8
BOX04
10
0
20
0
30
0
70
128
71
-95
72
108
73
79
0
VERTEX
8
BOX04
10
0
20
0
30
0
70
128
71
94
72
95
73
-79
0
VERTEX
8
BOX04
10
0
20
0
30
0
70
128
71
-94
72
79
73
80
0
VERTEX
8
BOX04
10
0
20
0
30
0
70
128
71
93
72
94
73
-80
0
VERTEX
8
BOX04
10
0
20
0
30
0
70
128
71
-93
72
80
73
-81
0
VERTEX
8
BOX04
10
0
20
0
30
0
70
128
71
92
72
-93
73
-81
0
VERTEX
8
BOX04
10
0
20
0
30
0
70
128
71
-92
72
81
73
-82
0
VERTEX
8
BOX04
10
0
20
0
30
0
70
128
71
91
72
-92
73
-82
0
VERTEX
8
BOX04
10
0
20
0
30
0
70
128
71
-91
72
82
73
-83
0
VERTEX
8
BOX04
10
0
20
0
30
0
70
128
71
-91
72
83
73
-84
0
VERTEX
8
BOX04
10
0
20
0
30
0
70
128
71
90
72
-91
73
-84
0
VERTEX
8
BOX04
10
0
20
0
30
0
70
128
71
-90
72
84
73
-85
0
VERTEX
8
BOX04
10
0
20
0
30
0
70
128
71
89
72
-90
73
-85
0
VERTEX
8
BOX04
10
0
20
0
30
0
70
128
71
88
72
-89
73
-85
0
VERTEX
8
BOX04
10
0
20
0
30
0
70
128
71
-88
72
85
73
-86
0
VERTEX
8
BOX04
10
0
20
0
30
0
70
128
71
87
72
-88
73
86
0
VERTEX
8
BOX04
10
0
20
0
30
0
70
128
71
109
72
110
73
-111
0
VERTEX
8
BOX04
10
0
20
0
30
0
70
128
71
-109
72
111
73
-112
0
VERTEX
8
BOX04
10
0
20
0
30
0
70
128
71
113
72
-109
73
-112
0
VERTEX
8
BOX04
10
0
20
0
30
0
70
128
71
-113
72
112
73
-114
0
VERTEX
8
BOX04
10
0
20
0
30
0
70
128
71
115
72
-113
73
-114
0
VERTEX
8
BOX04
10
0
20
0
30
0
70
128
71
116
72
-115
73
-114
0
VERTEX
8
BOX04
10
0
20
0
30
0
70
128
71
-116
72
114
73
-117
0
VERTEX
8
BOX04
10
0
20
0
30
0
70
128
71
118
72
-116
73
-117
0
VERTEX
8
BOX04
10
0
20
0
30
0
70
128
71
-118
72
117
73
-119
0
VERTEX
8
BOX04
10
0
20
0
30
0
70
128
71
-118
72
119
73
-120
0
VERTEX
8
BOX04
10
0
20
0
30
0
70
128
71
121
72
-118
73
-120
0
VERTEX
8
BOX04
10
0
20
0
30
0
70
128
71
-121
72
120
73
-122
0
VERTEX
8
BOX04
10
0
20
0
30
0
70
128
71
123
72
-121
73
122
0
VERTEX
8
BOX04
10
0
20
0
30
0
70
128
71
123
72
122
73
-124
0
VERTEX
8
BOX04
10
0
20
0
30
0
70
128
71
125
72
-123
73
124
0
VERTEX
8
BOX04
10
0
20
0
30
0
70
128
71
125
72
124
73
-126
0
VERTEX
8
BOX04
10
0
20
0
30
0
70
128
71
127
72
-125
73
-126
0
VERTEX
8
BOX04
10
0
20
0
30
0
70
128
71
-127
72
126
73
-128
0
VERTEX
8
BOX04
10
0
20
0
30
0
70
128
71
129
72
-127
73
-128
0
VERTEX
8
BOX04
10
0
20
0
30
0
70
128
71
-129
72
128
73
-130
0
VERTEX
8
BOX04
10
0
20
0
30
0
70
128
71
131
72
-129
73
-130
0
VERTEX
8
BOX04
10
0
20
0
30
0
70
128
71
132
72
-131
73
-130
0
VERTEX
8
BOX04
10
0
20
0
30
0
70
128
71
-132
72
130
73
-133
0
VERTEX
8
BOX04
10
0
20
0
30
0
70
128
71
134
72
-132
73
-133
0
VERTEX
8
BOX04
10
0
20
0
30
0
70
128
71
-134
72
133
73
-135
0
VERTEX
8
BOX04
10
0
20
0
30
0
70
128
71
-134
72
135
73
-136
0
VERTEX
8
BOX04
10
0
20
0
30
0
70
128
71
137
72
-134
73
-136
0
VERTEX
8
BOX04
10
0
20
0
30
0
70
128
71
-137
72
136
73
138
0
VERTEX
8
BOX04
10
0
20
0
30
0
70
128
71
123
72
125
73
-139
0
VERTEX
8
BOX04
10
0
20
0
30
0
70
128
71
-123
72
139
73
140
0
VERTEX
8
BOX04
10
0
20
0
30
0
70
128
71
125
72
127
73
-141
0
VERTEX
8
BOX04
10
0
20
0
30
0
70
128
71
-125
72
141
73
139
0
VERTEX
8
BOX04
10
0
20
0
30
0
70
128
71
127
72
129
73
-142
0
VERTEX
8
BOX04
10
0
20
0
30
0
70
128
71
-127
72
142
73
141
0
VERTEX
8
BOX04
10
0
20
0
30
0
70
128
71
129
72
131
73
-143
0
VERTEX
8
BOX04
10
0
20
0
30
0
70
128
71
-129
72
143
73
142
0
VERTEX
8
BOX04
10
0
20
0
30
0
70
128
71
131
72
132
73
-144
0
VERTEX
8
BOX04
10
0
20
0
30
0
70
128
71
-131
72
144
73
143
0
VERTEX
8
BOX04
10
0
20
0
30
0
70
128
71
132
72
134
73
-145
0
VERTEX
8
BOX04
10
0
20
0
30
0
70
128
71
-132
72
145
73
144
0
VERTEX
8
BOX04
10
0
20
0
30
0
70
128
71
134
72
137
73
-146
0
VERTEX
8
BOX04
10
0
20
0
30
0
70
128
71
-134
72
146
73
145
0
VERTEX
8
BOX04
10
0
20
0
30
0
70
128
71
137
72
138
73
-147
0
VERTEX
8
BOX04
10
0
20
0
30
0
70
128
71
-137
72
147
73
146
0
VERTEX
8
BOX04
10
0
20
0
30
0
70
128
71
138
72
136
73
-148
0
VERTEX
8
BOX04
10
0
20
0
30
0
70
128
71
-138
72
148
73
147
0
VERTEX
8
BOX04
10
0
20
0
30
0
70
128
71
136
72
135
73
-149
0
VERTEX
8
BOX04
10
0
20
0
30
0
70
128
71
-136
72
149
73
148
0
VERTEX
8
BOX04
10
0
20
0
30
0
70
128
71
135
72
133
73
-150
0
VERTEX
8
BOX04
10
0
20
0
30
0
70
128
71
-135
72
150
73
149
0
VERTEX
8
BOX04
10
0
20
0
30
0
70
128
71
133
72
130
73
-151
0
VERTEX
8
BOX04
10
0
20
0
30
0
70
128
71
-133
72
151
73
150
0
VERTEX
8
BOX04
10
0
20
0
30
0
70
128
71
130
72
128
73
-152
0
VERTEX
8
BOX04
10
0
20
0
30
0
70
128
71
-130
72
152
73
151
0
VERTEX
8
BOX04
10
0
20
0
30
0
70
128
71
128
72
126
73
-153
0
VERTEX
8
BOX04
10
0
20
0
30
0
70
128
71
-128
72
153
73
152
0
VERTEX
8
BOX04
10
0
20
0
30
0
70
128
71
126
72
124
73
-154
0
VERTEX
8
BOX04
10
0
20
0
30
0
70
128
71
-126
72
154
73
153
0
VERTEX
8
BOX04
10
0
20
0
30
0
70
128
71
124
72
122
73
-155
0
VERTEX
8
BOX04
10
0
20
0
30
0
70
128
71
-124
72
155
73
154
0
VERTEX
8
BOX04
10
0
20
0
30
0
70
128
71
122
72
120
73
-156
0
VERTEX
8
BOX04
10
0
20
0
30
0
70
128
71
-122
72
156
73
155
0
VERTEX
8
BOX04
10
0
20
0
30
0
70
128
71
120
72
119
73
-157
0
VERTEX
8
BOX04
10
0
20
0
30
0
70
128
71
-120
72
157
73
156
0
VERTEX
8
BOX04
10
0
20
0
30
0
70
128
71
119
72
117
73
-158
0
VERTEX
8
BOX04
10
0
20
0
30
0
70
128
71
-119
72
158
73
157
0
VERTEX
8
BOX04
10
0
20
0
30
0
70
128
71
117
72
114
73
-159
0
VERTEX
8
BOX04
10
0
20
0
30
0
70
128
71
-117
72
159
73
158
0
VERTEX
8
BOX04
10
0
20
0
30
0
70
128
71
114
72
112
73
-160
0
VERTEX
8
BOX04
10
0
20
0
30
0
70
128
71
-114
72
160
73
159
0
VERTEX
8
BOX04
10
0
20
0
30
0
70
128
71
112
72
111
73
-161
0
VERTEX
8
BOX04
10
0
20
0
30
0
70
128
71
-112
72
161
73
160
0
VERTEX
8
BOX04
10
0
20
0
30
0
70
128
71
111
72
110
73
-162
0
VERTEX
8
BOX04
10
0
20
0
30
0
70
128
71
-111
72
162
73
161
0
VERTEX
8
BOX04
10
0
20
0
30
0
70
128
71
110
72
109
73
-163
0
VERTEX
8
BOX04
10
0
20
0
30
0
70
128
71
-110
72
163
73
162
0
VERTEX
8
BOX04
10
0
20
0
30
0
70
128
71
109
72
113
73
-164
0
VERTEX
8
BOX04
10
0
20
0
30
0
70
128
71
-109
72
164
73
163
0
VERTEX
8
BOX04
10
0
20
0
30
0
70
128
71
113
72
115
73
-165
0
VERTEX
8
BOX04
10
0
20
0
30
0
70
128
71
-113
72
165
73
164
0
VERTEX
8
BOX04
10
0
20
0
30
0
70
128
71
115
72
116
73
-166
0
VERTEX
8
BOX04
10
0
20
0
30
0
70
128
71
-115
72
166
73
165
0
VERTEX
8
BOX04
10
0
20
0
30
0
70
128
71
116
72
118
73
-167
0
VERTEX
8
BOX04
10
0
20
0
30
0
70
128
71
-116
72
167
73
166
0
VERTEX
8
BOX04
10
0
20
0
30
0
70
128
71
118
72
121
73
-168
0
VERTEX
8
BOX04
10
0
20
0
30
0
70
128
71
-118
72
168
73
167
0
VERTEX
8
BOX04
10
0
20
0
30
0
70
128
71
121
72
123
73
-140
0
VERTEX
8
BOX04
10
0
20
0
30
0
70
128
71
-121
72
140
73
168
0
VERTEX
8
BOX04
10
0
20
0
30
0
70
128
71
161
72
162
73
-163
0
VERTEX
8
BOX04
10
0
20
0
30
0
70
128
71
160
72
-161
73
-163
0
VERTEX
8
BOX04
10
0
20
0
30
0
70
128
71
-160
72
163
73
-164
0
VERTEX
8
BOX04
10
0
20
0
30
0
70
128
71
159
72
-160
73
-164
0
VERTEX
8
BOX04
10
0
20
0
30
0
70
128
71
-159
72
164
73
-165
0
VERTEX
8
BOX04
10
0
20
0
30
0
70
128
71
-159
72
165
73
-166
0
VERTEX
8
BOX04
10
0
20
0
30
0
70
128
71
158
72
-159
73
-166
0
VERTEX
8
BOX04
10
0
20
0
30
0
70
128
71
-158
72
166
73
-167
0
VERTEX
8
BOX04
10
0
20
0
30
0
70
128
71
157
72
-158
73
-167
0
VERTEX
8
BOX04
10
0
20
0
30
0
70
128
71
156
72
-157
73
-167
0
VERTEX
8
BOX04
10
0
20
0
30
0
70
128
71
-156
72
167
73
-168
0
VERTEX
8
BOX04
10
0
20
0
30
0
70
128
71
155
72
-156
73
-168
0
VERTEX
8
BOX04
10
0
20
0
30
0
70
128
71
-155
72
168
73
140
0
VERTEX
8
BOX04
10
0
20
0
30
0
70
128
71
154
72
155
73
-140
0
VERTEX
8
BOX04
10
0
20
0
30
0
70
128
71
-154
72
140
73
139
0
VERTEX
8
BOX04
10
0
20
0
30
0
70
128
71
153
72
154
73
-139
0
VERTEX
8
BOX04
10
0
20
0
30
0
70
128
71
-153
72
139
73
-141
0
VERTEX
8
BOX04
10
0
20
0
30
0
70
128
71
152
72
-153
73
-141
0
VERTEX
8
BOX04
10
0
20
0
30
0
70
128
71
-152
72
141
73
-142
0
VERTEX
8
BOX04
10
0
20
0
30
0
70
128
71
151
72
-152
73
-142
0
VERTEX
8
BOX04
10
0
20
0
30
0
70
128
71
-151
72
142
73
-143
0
VERTEX
8
BOX04
10
0
20
0
30
0
70
128
71
-151
72
143
73
-144
0
VERTEX
8
BOX04
10
0
20
0
30
0
70
128
71
150
72
-151
73
-144
0
VERTEX
8
BOX04
10
0
20
0
30
0
70
128
71
-150
72
144
73
-145
0
VERTEX
8
BOX04
10
0
20
0
30
0
70
128
71
149
72
-150
73
-145
0
VERTEX
8
BOX04
10
0
20
0
30
0
70
128
71
148
72
-149
73
-145
0
VERTEX
8
BOX04
10
0
20
0
30
0
70
128
71
-148
72
145
73
-146
0
VERTEX
8
BOX04
10
0
20
0
30
0
70
128
71
147
72
-148
73
146
0
SEQEND
8
BOX04
0
POLYLINE
8
BOX03
66
1
70
64
71
168
72
306
62
171
0
VERTEX
8
BOX03
10
-37.952515
20
-23.734440
30
50.348637
70
192
0
VERTEX
8
BOX03
10
-37.952503
20
-23.734438
30
57.095665
70
192
0
VERTEX
8
BOX03
10
-37.952503
20
20.750286
30
57.095669
70
192
0
VERTEX
8
BOX03
10
-37.952515
20
20.750282
30
50.348640
70
192
0
VERTEX
8
BOX03
10
-38.907349
20
20.750278
30
50.702625
70
192
0
VERTEX
8
BOX03
10
-38.907349
20
-23.734442
30
50.702621
70
192
0
VERTEX
8
BOX03
10
-38.553364
20
20.750286
30
57.095669
70
192
0
VERTEX
8
BOX03
10
-38.907349
20
-23.734434
30
56.741684
70
192
0
VERTEX
8
BOX03
10
-38.553364
20
20.750278
30
50.348644
70
192
0
VERTEX
8
BOX03
10
-38.553364
20
-23.734444
30
50.348637
70
192
0
VERTEX
8
BOX03
10
-38.907349
20
20.750286
30
56.741688
70
192
0
VERTEX
8
BOX03
10
-38.553364
20
-23.734434
30
57.095665
70
192
0
VERTEX
8
BOX03
10
37.974781
20
-23.734438
30
50.348637
70
192
0
VERTEX
8
BOX03
10
37.974773
20
-23.734438
30
57.095665
70
192
0
VERTEX
8
BOX03
10
37.974773
20
20.750290
30
57.095669
70
192
0
VERTEX
8
BOX03
10
37.974781
20
20.750286
30
50.348640
70
192
0
VERTEX
8
BOX03
10
38.929619
20
20.750286
30
50.702625
70
192
0
VERTEX
8
BOX03
10
38.929619
20
-23.734442
30
50.702618
70
192
0
VERTEX
8
BOX03
10
38.575634
20
20.750290
30
57.095669
70
192
0
VERTEX
8
BOX03
10
38.929619
20
-23.734434
30
56.741680
70
192
0
VERTEX
8
BOX03
10
38.575634
20
20.750286
30
50.348644
70
192
0
VERTEX
8
BOX03
10
38.575634
20
-23.734442
30
50.348637
70
192
0
VERTEX
8
BOX03
10
38.929619
20
20.750290
30
56.741688
70
192
0
VERTEX
8
BOX03
10
38.575634
20
-23.734434
30
57.095665
70
192
0
VERTEX
8
BOX03
10
-37.919628
20
22.475956
30
45.576122
70
192
0
VERTEX
8
BOX03
10
-37.919628
20
22.475952
30
61.354763
70
192
0
VERTEX
8
BOX03
10
37.974781
20
22.475952
30
61.354763
70
192
0
VERTEX
8
BOX03
10
37.974781
20
22.475956
30
45.576122
70
192
0
VERTEX
8
BOX03
10
37.974773
20
-23.734440
30
45.576111
70
192
0
VERTEX
8
BOX03
10
-37.919636
20
-23.734440
30
45.576115
70
192
0
VERTEX
8
BOX03
10
37.974773
20
-23.734442
30
61.354748
70
192
0
VERTEX
8
BOX03
10
-37.919628
20
-23.734446
30
61.354752
70
192
0
VERTEX
8
BOX03
10
-36.193966
20
20.750286
30
61.355202
70
192
0
VERTEX
8
BOX03
10
36.249119
20
20.750290
30
61.355206
70
192
0
VERTEX
8
BOX03
10
36.249111
20
-23.734442
30
61.355190
70
192
0
VERTEX
8
BOX03
10
-36.193966
20
-23.734446
30
61.355194
70
192
0
VERTEX
8
BOX03
10
-36.193966
20
20.750290
30
47.559978
70
192
0
VERTEX
8
BOX03
10
36.249115
20
20.750290
30
47.559978
70
192
0
VERTEX
8
BOX03
10
36.249111
20
-23.734438
30
47.559963
70
192
0
VERTEX
8
BOX03
10
-36.193966
20
-23.734440
30
47.559967
70
192
0
VERTEX
8
BOX03
10
-39.559422
20
-25.675060
30
62.807991
70
192
0
VERTEX
8
BOX03
10
40.440578
20
-25.675064
30
62.807991
70
192
0
VERTEX
8
BOX03
10
40.440578
20
-25.675064
30
45.576111
70
192
0
VERTEX
8
BOX03
10
-39.559422
20
-25.675060
30
45.576111
70
192
0
VERTEX
8
BOX03
10
-39.559422
20
-23.734440
30
62.807991
70
192
0
VERTEX
8
BOX03
10
40.440578
20
-23.734444
30
62.807991
70
192
0
VERTEX
8
BOX03
10
40.440578
20
-23.734444
30
45.576111
70
192
0
VERTEX
8
BOX03
10
-39.559422
20
-23.734440
30
45.576111
70
192
0
VERTEX
8
BOX03
10
-28.702503
20
-26.238079
30
52.676285
70
192
0
VERTEX
8
BOX03
10
-29.513752
20
-26.238079
30
52.617783
70
192
0
VERTEX
8
BOX03
10
-30.324970
20
-26.238079
30
52.676270
70
192
0
VERTEX
8
BOX03
10
-31.069965
20
-26.238079
30
52.842819
70
192
0
VERTEX
8
BOX03
10
-27.957539
20
-26.238079
30
52.842834
70
192
0
VERTEX
8
BOX03
10
-31.727345
20
-26.238079
30
53.104095
70
192
0
VERTEX
8
BOX03
10
-27.300159
20
-26.238079
30
53.104111
70
192
0
VERTEX
8
BOX03
10
-26.751698
20
-26.238079
30
53.446808
70
192
0
VERTEX
8
BOX03
10
-32.275806
20
-26.238079
30
53.446793
70
192
0
VERTEX
8
BOX03
10
-26.333485
20
-26.238079
30
53.857559
70
192
0
VERTEX
8
BOX03
10
-32.693989
20
-26.238079
30
53.857544
70
192
0
VERTEX
8
BOX03
10
-32.960529
20
-26.238079
30
54.323029
70
192
0
VERTEX
8
BOX03
10
-26.066944
20
-26.238079
30
54.323044
70
192
0
VERTEX
8
BOX03
10
-33.054157
20
-26.230999
30
55.425583
70
192
0
VERTEX
8
BOX03
10
-25.973347
20
-26.230999
30
55.425583
70
192
0
VERTEX
8
BOX03
10
-33.054157
20
-28.196087
30
55.426178
70
192
0
VERTEX
8
BOX03
10
-25.973347
20
-28.196087
30
55.426178
70
192
0
VERTEX
8
BOX03
10
-32.960529
20
-28.196087
30
54.370926
70
192
0
VERTEX
8
BOX03
10
-26.066944
20
-28.196087
30
54.370941
70
192
0
VERTEX
8
BOX03
10
-32.693989
20
-28.196148
30
53.905457
70
192
0
VERTEX
8
BOX03
10
-26.333485
20
-28.196087
30
53.905457
70
192
0
VERTEX
8
BOX03
10
-32.275806
20
-28.196150
30
53.494705
70
192
0
VERTEX
8
BOX03
10
-26.751698
20
-28.196089
30
53.494705
70
192
0
VERTEX
8
BOX03
10
-27.300159
20
-28.196148
30
53.152023
70
192
0
VERTEX
8
BOX03
10
-31.727345
20
-28.196148
30
53.152008
70
192
0
VERTEX
8
BOX03
10
-27.957539
20
-28.196148
30
52.890747
70
192
0
VERTEX
8
BOX03
10
-31.069965
20
-28.196148
30
52.890732
70
192
0
VERTEX
8
BOX03
10
-30.324970
20
-28.196148
30
52.724167
70
192
0
VERTEX
8
BOX03
10
-28.702503
20
-28.196148
30
52.724182
70
192
0
VERTEX
8
BOX03
10
-29.513752
20
-28.196148
30
52.665680
70
192
0
VERTEX
8
BOX03
10
-25.973347
20
-28.048382
30
55.218338
70
192
0
VERTEX
8
BOX03
10
-25.973347
20
-26.392864
30
55.217743
70
192
0
VERTEX
8
BOX03
10
-26.066944
20
-28.048382
30
54.370941
70
192
0
VERTEX
8
BOX03
10
-26.333485
20
-28.048382
30
53.905457
70
192
0
VERTEX
8
BOX03
10
-26.751698
20
-28.048384
30
53.494705
70
192
0
VERTEX
8
BOX03
10
-27.300159
20
-28.048382
30
53.152023
70
192
0
VERTEX
8
BOX03
10
-27.957539
20
-28.048382
30
52.890747
70
192
0
VERTEX
8
BOX03
10
-28.702503
20
-28.048382
30
52.724182
70
192
0
VERTEX
8
BOX03
10
-29.513752
20
-28.048382
30
52.665680
70
192
0
VERTEX
8
BOX03
10
-30.324970
20
-28.048382
30
52.724167
70
192
0
VERTEX
8
BOX03
10
-31.069965
20
-28.048382
30
52.890732
70
192
0
VERTEX
8
BOX03
10
-31.727345
20
-28.048382
30
53.152008
70
192
0
VERTEX
8
BOX03
10
-32.275806
20
-28.048384
30
53.494705
70
192
0
VERTEX
8
BOX03
10
-32.693989
20
-28.048382
30
53.905457
70
192
0
VERTEX
8
BOX03
10
-32.960529
20
-28.048382
30
54.370926
70
192
0
VERTEX
8
BOX03
10
-33.054157
20
-28.048382
30
55.218338
70
192
0
VERTEX
8
BOX03
10
-33.054157
20
-26.392864
30
55.217743
70
192
0
VERTEX
8
BOX03
10
-32.960529
20
-26.385784
30
54.323029
70
192
0
VERTEX
8
BOX03
10
-32.693989
20
-26.385784
30
53.857544
70
192
0
VERTEX
8
BOX03
10
-32.275806
20
-26.385784
30
53.446793
70
192
0
VERTEX
8
BOX03
10
-31.727345
20
-26.385784
30
53.104095
70
192
0
VERTEX
8
BOX03
10
-31.069965
20
-26.385786
30
52.842819
70
192
0
VERTEX
8
BOX03
10
-30.324970
20
-26.385784
30
52.676270
70
192
0
VERTEX
8
BOX03
10
-29.513752
20
-26.385784
30
52.617783
70
192
0
VERTEX
8
BOX03
10
-28.702503
20
-26.385784
30
52.676285
70
192
0
VERTEX
8
BOX03
10
-27.957539
20
-26.385786
30
52.842834
70
192
0
VERTEX
8
BOX03
10
-27.300159
20
-26.385784
30
53.104111
70
192
0
VERTEX
8
BOX03
10
-26.751698
20
-26.385784
30
53.446808
70
192
0
VERTEX
8
BOX03
10
-26.333485
20
-26.385784
30
53.857559
70
192
0
VERTEX
8
BOX03
10
-26.066944
20
-26.385784
30
54.323044
70
192
0
VERTEX
8
BOX03
10
32.068447
20
-26.230999
30
55.425583
70
192
0
VERTEX
8
BOX03
10
32.068447
20
-28.196087
30
55.426178
70
192
0
VERTEX
8
BOX03
10
31.974850
20
-28.196087
30
54.370941
70
192
0
VERTEX
8
BOX03
10
31.708309
20
-28.196087
30
53.905457
70
192
0
VERTEX
8
BOX03
10
31.290096
20
-28.196089
30
53.494705
70
192
0
VERTEX
8
BOX03
10
30.741634
20
-28.196148
30
53.152023
70
192
0
VERTEX
8
BOX03
10
30.084255
20
-28.196148
30
52.890747
70
192
0
VERTEX
8
BOX03
10
29.339291
20
-28.196148
30
52.724182
70
192
0
VERTEX
8
BOX03
10
28.528042
20
-28.196148
30
52.665680
70
192
0
VERTEX
8
BOX03
10
27.716824
20
-28.196148
30
52.724167
70
192
0
VERTEX
8
BOX03
10
26.971828
20
-28.196148
30
52.890732
70
192
0
VERTEX
8
BOX03
10
26.314449
20
-28.196148
30
53.152008
70
192
0
VERTEX
8
BOX03
10
25.765987
20
-28.196150
30
53.494705
70
192
0
VERTEX
8
BOX03
10
25.347805
20
-28.196148
30
53.905457
70
192
0
VERTEX
8
BOX03
10
25.081264
20
-28.196087
30
54.370926
70
192
0
VERTEX
8
BOX03
10
24.987637
20
-28.196087
30
55.426178
70
192
0
VERTEX
8
BOX03
10
24.987637
20
-26.230999
30
55.425583
70
192
0
VERTEX
8
BOX03
10
25.081264
20
-26.238079
30
54.323029
70
192
0
VERTEX
8
BOX03
10
25.347805
20
-26.238079
30
53.857544
70
192
0
VERTEX
8
BOX03
10
25.765987
20
-26.238079
30
53.446793
70
192
0
VERTEX
8
BOX03
10
26.314449
20
-26.238079
30
53.104095
70
192
0
VERTEX
8
BOX03
10
26.971828
20
-26.238079
30
52.842819
70
192
0
VERTEX
8
BOX03
10
27.716824
20
-26.238079
30
52.676270
70
192
0
VERTEX
8
BOX03
10
28.528042
20
-26.238079
30
52.617783
70
192
0
VERTEX
8
BOX03
10
29.339291
20
-26.238079
30
52.676285
70
192
0
VERTEX
8
BOX03
10
30.084255
20
-26.238081
30
52.842834
70
192
0
VERTEX
8
BOX03
10
30.741634
20
-26.238079
30
53.104111
70
192
0
VERTEX
8
BOX03
10
31.290096
20
-26.238079
30
53.446808
70
192
0
VERTEX
8
BOX03
10
31.708309
20
-26.238079
30
53.857559
70
192
0
VERTEX
8
BOX03
10
31.974850
20
-26.238079
30
54.323044
70
192
0
VERTEX
8
BOX03
10
32.068447
20
-26.392864
30
55.217743
70
192
0
VERTEX
8
BOX03
10
32.068447
20
-28.048382
30
55.218338
70
192
0
VERTEX
8
BOX03
10
31.974850
20
-28.048382
30
54.370941
70
192
0
VERTEX
8
BOX03
10
31.708309
20
-28.048382
30
53.905457
70
192
0
VERTEX
8
BOX03
10
31.290096
20
-28.048384
30
53.494705
70
192
0
VERTEX
8
BOX03
10
30.741634
20
-28.048382
30
53.152023
70
192
0
VERTEX
8
BOX03
10
30.084255
20
-28.048382
30
52.890747
70
192
0
VERTEX
8
BOX03
10
29.339291
20
-28.048382
30
52.724182
70
192
0
VERTEX
8
BOX03
10
28.528042
20
-28.048382
30
52.665680
70
192
0
VERTEX
8
BOX03
10
27.716824
20
-28.048382
30
52.724167
70
192
0
VERTEX
8
BOX03
10
26.971828
20
-28.048382
30
52.890732
70
192
0
VERTEX
8
BOX03
10
26.314449
20
-28.048382
30
53.152008
70
192
0
VERTEX
8
BOX03
10
25.765987
20
-28.048384
30
53.494705
70
192
0
VERTEX
8
BOX03
10
25.347805
20
-28.048382
30
53.905457
70
192
0
VERTEX
8
BOX03
10
25.081264
20
-28.048382
30
54.370926
70
192
0
VERTEX
8
BOX03
10
24.987637
20
-28.048382
30
55.218338
70
192
0
VERTEX
8
BOX03
10
24.987637
20
-26.392864
30
55.217743
70
192
0
VERTEX
8
BOX03
10
25.081264
20
-26.385784
30
54.323029
70
192
0
VERTEX
8
BOX03
10
25.347805
20
-26.385784
30
53.857544
70
192
0
VERTEX
8
BOX03
10
25.765987
20
-26.385784
30
53.446793
70
192
0
VERTEX
8
BOX03
10
26.314449
20
-26.385786
30
53.104095
70
192
0
VERTEX
8
BOX03
10
26.971828
20
-26.385786
30
52.842819
70
192
0
VERTEX
8
BOX03
10
27.716824
20
-26.385784
30
52.676270
70
192
0
VERTEX
8
BOX03
10
28.528042
20
-26.385786
30
52.617783
70
192
0
VERTEX
8
BOX03
10
29.339291
20
-26.385784
30
52.676285
70
192
0
VERTEX
8
BOX03
10
30.084255
20
-26.385786
30
52.842834
70
192
0
VERTEX
8
BOX03
10
30.741634
20
-26.385784
30
53.104111
70
192
0
VERTEX
8
BOX03
10
31.290096
20
-26.385784
30
53.446808
70
192
0
VERTEX
8
BOX03
10
31.708309
20
-26.385784
30
53.857559
70
192
0
VERTEX
8
BOX03
10
31.974850
20
-26.385784
30
54.323044
70
192
0
VERTEX
8
BOX03
10
0
20
0
30
0
70
128
71
2
72
-1
73
3
0
VERTEX
8
BOX03
10
0
20
0
30
0
70
128
71
4
72
-3
73
1
0
VERTEX
8
BOX03
10
0
20
0
30
0
70
128
71
4
72
-1
73
9
0
VERTEX
8
BOX03
10
0
20
0
30
0
70
128
71
10
72
-9
73
1
0
VERTEX
8
BOX03
10
0
20
0
30
0
70
128
71
3
72
-4
73
7
0
VERTEX
8
BOX03
10
0
20
0
30
0
70
128
71
-9
72
-11
73
4
0
VERTEX
8
BOX03
10
0
20
0
30
0
70
128
71
2
72
-3
73
12
0
VERTEX
8
BOX03
10
0
20
0
30
0
70
128
71
7
72
-12
73
3
0
VERTEX
8
BOX03
10
0
20
0
30
0
70
128
71
1
72
-2
73
10
0
VERTEX
8
BOX03
10
0
20
0
30
0
70
128
71
-12
72
-6
73
2
0
VERTEX
8
BOX03
10
0
20
0
30
0
70
128
71
11
72
-5
73
8
0
VERTEX
8
BOX03
10
0
20
0
30
0
70
128
71
6
72
-8
73
5
0
VERTEX
8
BOX03
10
0
20
0
30
0
70
128
71
5
72
-11
73
9
0
VERTEX
8
BOX03
10
0
20
0
30
0
70
128
71
8
72
-6
73
12
0
VERTEX
8
BOX03
10
0
20
0
30
0
70
128
71
5
72
9
73
-10
0
VERTEX
8
BOX03
10
0
20
0
30
0
70
128
71
10
72
6
73
-5
0
VERTEX
8
BOX03
10
0
20
0
30
0
70
128
71
-7
72
-4
73
11
0
VERTEX
8
BOX03
10
0
20
0
30
0
70
128
71
7
72
11
73
-8
0
VERTEX
8
BOX03
10
0
20
0
30
0
70
128
71
8
72
12
73
-7
0
VERTEX
8
BOX03
10
0
20
0
30
0
70
128
71
-10
72
-2
73
6
0
VERTEX
8
BOX03
10
0
20
0
30
0
70
128
71
-15
72
13
73
14
0
VERTEX
8
BOX03
10
0
20
0
30
0
70
128
71
-13
72
15
73
16
0
VERTEX
8
BOX03
10
0
20
0
30
0
70
128
71
-21
72
13
73
16
0
VERTEX
8
BOX03
10
0
20
0
30
0
70
128
71
-13
72
21
73
22
0
VERTEX
8
BOX03
10
0
20
0
30
0
70
128
71
-19
72
16
73
15
0
VERTEX
8
BOX03
10
0
20
0
30
0
70
128
71
-16
72
-23
73
21
0
VERTEX
8
BOX03
10
0
20
0
30
0
70
128
71
-24
72
15
73
14
0
VERTEX
8
BOX03
10
0
20
0
30
0
70
128
71
-15
72
24
73
19
0
VERTEX
8
BOX03
10
0
20
0
30
0
70
128
71
-22
72
14
73
13
0
VERTEX
8
BOX03
10
0
20
0
30
0
70
128
71
-14
72
-18
73
24
0
VERTEX
8
BOX03
10
0
20
0
30
0
70
128
71
-20
72
17
73
23
0
VERTEX
8
BOX03
10
0
20
0
30
0
70
128
71
-17
72
20
73
18
0
VERTEX
8
BOX03
10
0
20
0
30
0
70
128
71
-21
72
23
73
17
0
VERTEX
8
BOX03
10
0
20
0
30
0
70
128
71
-24
72
18
73
20
0
VERTEX
8
BOX03
10
0
20
0
30
0
70
128
71
22
72
21
73
-17
0
VERTEX
8
BOX03
10
0
20
0
30
0
70
128
71
17
72
18
73
-22
0
VERTEX
8
BOX03
10
0
20
0
30
0
70
128
71
-23
72
-16
73
19
0
VERTEX
8
BOX03
10
0
20
0
30
0
70
128
71
20
72
23
73
-19
0
VERTEX
8
BOX03
10
0
20
0
30
0
70
128
71
19
72
24
73
-20
0
VERTEX
8
BOX03
10
0
20
0
30
0
70
128
71
-18
72
-14
73
22
0
VERTEX
8
BOX03
10
0
20
0
30
0
70
128
71
-27
72
25
73
26
0
VERTEX
8
BOX03
10
0
20
0
30
0
70
128
71
-25
72
27
73
28
0
VERTEX
8
BOX03
10
0
20
0
30
0
70
128
71
-29
72
25
73
28
0
VERTEX
8
BOX03
10
0
20
0
30
0
70
128
71
-25
72
29
73
30
0
VERTEX
8
BOX03
10
0
20
0
30
0
70
128
71
-31
72
28
73
27
0
VERTEX
8
BOX03
10
0
20
0
30
0
70
128
71
-28
72
31
73
29
0
VERTEX
8
BOX03
10
0
20
0
30
0
70
128
71
-40
72
38
73
37
0
VERTEX
8
BOX03
10
0
20
0
30
0
70
128
71
-38
72
40
73
39
0
VERTEX
8
BOX03
10
0
20
0
30
0
70
128
71
-30
72
26
73
25
0
VERTEX
8
BOX03
10
0
20
0
30
0
70
128
71
-26
72
30
73
32
0
VERTEX
8
BOX03
10
0
20
0
30
0
70
128
71
-33
72
27
73
26
0
VERTEX
8
BOX03
10
0
20
0
30
0
70
128
71
-27
72
33
73
34
0
VERTEX
8
BOX03
10
0
20
0
30
0
70
128
71
-34
72
31
73
27
0
VERTEX
8
BOX03
10
0
20
0
30
0
70
128
71
-31
72
34
73
35
0
VERTEX
8
BOX03
10
0
20
0
30
0
70
128
71
-36
72
26
73
32
0
VERTEX
8
BOX03
10
0
20
0
30
0
70
128
71
-26
72
36
73
33
0
VERTEX
8
BOX03
10
0
20
0
30
0
70
128
71
-37
72
34
73
33
0
VERTEX
8
BOX03
10
0
20
0
30
0
70
128
71
-34
72
37
73
38
0
VERTEX
8
BOX03
10
0
20
0
30
0
70
128
71
-40
72
33
73
36
0
VERTEX
8
BOX03
10
0
20
0
30
0
70
128
71
-33
72
40
73
37
0
VERTEX
8
BOX03
10
0
20
0
30
0
70
128
71
-38
72
35
73
34
0
VERTEX
8
BOX03
10
0
20
0
30
0
70
128
71
-35
72
38
73
39
0
VERTEX
8
BOX03
10
0
20
0
30
0
70
128
71
41
72
44
73
-43
0
VERTEX
8
BOX03
10
0
20
0
30
0
70
128
71
42
72
-41
73
43
0
VERTEX
8
BOX03
10
0
20
0
30
0
70
128
71
41
72
42
73
-46
0
VERTEX
8
BOX03
10
0
20
0
30
0
70
128
71
-41
72
46
73
45
0
VERTEX
8
BOX03
10
0
20
0
30
0
70
128
71
42
72
43
73
-47
0
VERTEX
8
BOX03
10
0
20
0
30
0
70
128
71
-42
72
47
73
46
0
VERTEX
8
BOX03
10
0
20
0
30
0
70
128
71
43
72
44
73
-48
0
VERTEX
8
BOX03
10
0
20
0
30
0
70
128
71
-43
72
48
73
47
0
VERTEX
8
BOX03
10
0
20
0
30
0
70
128
71
44
72
41
73
-45
0
VERTEX
8
BOX03
10
0
20
0
30
0
70
128
71
-44
72
45
73
48
0
VERTEX
8
BOX03
10
0
20
0
30
0
70
128
71
47
72
48
73
-45
0
VERTEX
8
BOX03
10
0
20
0
30
0
70
128
71
-47
72
45
73
46
0
VERTEX
8
BOX03
10
0
20
0
30
0
70
128
71
49
72
50
73
-51
0
VERTEX
8
BOX03
10
0
20
0
30
0
70
128
71
-49
72
51
73
-52
0
VERTEX
8
BOX03
10
0
20
0
30
0
70
128
71
53
72
-49
73
-52
0
VERTEX
8
BOX03
10
0
20
0
30
0
70
128
71
-53
72
52
73
-54
0
VERTEX
8
BOX03
10
0
20
0
30
0
70
128
71
55
72
-53
73
-54
0
VERTEX
8
BOX03
10
0
20
0
30
0
70
128
71
56
72
-55
73
-54
0
VERTEX
8
BOX03
10
0
20
0
30
0
70
128
71
-56
72
54
73
-57
0
VERTEX
8
BOX03
10
0
20
0
30
0
70
128
71
58
72
-56
73
-57
0
VERTEX
8
BOX03
10
0
20
0
30
0
70
128
71
-58
72
57
73
-59
0
VERTEX
8
BOX03
10
0
20
0
30
0
70
128
71
-58
72
59
73
-60
0
VERTEX
8
BOX03
10
0
20
0
30
0
70
128
71
61
72
-58
73
-60
0
VERTEX
8
BOX03
10
0
20
0
30
0
70
128
71
-61
72
60
73
-62
0
VERTEX
8
BOX03
10
0
20
0
30
0
70
128
71
63
72
-61
73
62
0
VERTEX
8
BOX03
10
0
20
0
30
0
70
128
71
63
72
62
73
-64
0
VERTEX
8
BOX03
10
0
20
0
30
0
70
128
71
65
72
-63
73
64
0
VERTEX
8
BOX03
10
0
20
0
30
0
70
128
71
65
72
64
73
-66
0
VERTEX
8
BOX03
10
0
20
0
30
0
70
128
71
67
72
-65
73
-66
0
VERTEX
8
BOX03
10
0
20
0
30
0
70
128
71
-67
72
66
73
-68
0
VERTEX
8
BOX03
10
0
20
0
30
0
70
128
71
69
72
-67
73
-68
0
VERTEX
8
BOX03
10
0
20
0
30
0
70
128
71
-69
72
68
73
-70
0
VERTEX
8
BOX03
10
0
20
0
30
0
70
128
71
71
72
-69
73
-70
0
VERTEX
8
BOX03
10
0
20
0
30
0
70
128
71
72
72
-71
73
-70
0
VERTEX
8
BOX03
10
0
20
0
30
0
70
128
71
-72
72
70
73
-73
0
VERTEX
8
BOX03
10
0
20
0
30
0
70
128
71
74
72
-72
73
-73
0
VERTEX
8
BOX03
10
0
20
0
30
0
70
128
71
-74
72
73
73
-75
0
VERTEX
8
BOX03
10
0
20
0
30
0
70
128
71
-74
72
75
73
-76
0
VERTEX
8
BOX03
10
0
20
0
30
0
70
128
71
77
72
-74
73
-76
0
VERTEX
8
BOX03
10
0
20
0
30
0
70
128
71
-77
72
76
73
78
0
VERTEX
8
BOX03
10
0
20
0
30
0
70
128
71
63
72
65
73
-79
0
VERTEX
8
BOX03
10
0
20
0
30
0
70
128
71
-63
72
79
73
80
0
VERTEX
8
BOX03
10
0
20
0
30
0
70
128
71
65
72
67
73
-81
0
VERTEX
8
BOX03
10
0
20
0
30
0
70
128
71
-65
72
81
73
79
0
VERTEX
8
BOX03
10
0
20
0
30
0
70
128
71
67
72
69
73
-82
0
VERTEX
8
BOX03
10
0
20
0
30
0
70
128
71
-67
72
82
73
81
0
VERTEX
8
BOX03
10
0
20
0
30
0
70
128
71
69
72
71
73
-83
0
VERTEX
8
BOX03
10
0
20
0
30
0
70
128
71
-69
72
83
73
82
0
VERTEX
8
BOX03
10
0
20
0
30
0
70
128
71
71
72
72
73
-84
0
VERTEX
8
BOX03
10
0
20
0
30
0
70
128
71
-71
72
84
73
83
0
VERTEX
8
BOX03
10
0
20
0
30
0
70
128
71
72
72
74
73
-85
0
VERTEX
8
BOX03
10
0
20
0
30
0
70
128
71
-72
72
85
73
84
0
VERTEX
8
BOX03
10
0
20
0
30
0
70
128
71
74
72
77
73
-86
0
VERTEX
8
BOX03
10
0
20
0
30
0
70
128
71
-74
72
86
73
85
0
VERTEX
8
BOX03
10
0
20
0
30
0
70
128
71
77
72
78
73
-87
0
VERTEX
8
BOX03
10
0
20
0
30
0
70
128
71
-77
72
87
73
86
0
VERTEX
8
BOX03
10
0
20
0
30
0
70
128
71
78
72
76
73
-88
0
VERTEX
8
BOX03
10
0
20
0
30
0
70
128
71
-78
72
88
73
87
0
VERTEX
8
BOX03
10
0
20
0
30
0
70
128
71
76
72
75
73
-89
0
VERTEX
8
BOX03
10
0
20
0
30
0
70
128
71
-76
72
89
73
88
0
VERTEX
8
BOX03
10
0
20
0
30
0
70
128
71
75
72
73
73
-90
0
VERTEX
8
BOX03
10
0
20
0
30
0
70
128
71
-75
72
90
73
89
0
VERTEX
8
BOX03
10
0
20
0
30
0
70
128
71
73
72
70
73
-91
0
VERTEX
8
BOX03
10
0
20
0
30
0
70
128
71
-73
72
91
73
90
0
VERTEX
8
BOX03
10
0
20
0
30
0
70
128
71
70
72
68
73
-92
0
VERTEX
8
BOX03
10
0
20
0
30
0
70
128
71
-70
72
92
73
91
0
VERTEX
8
BOX03
10
0
20
0
30
0
70
128
71
68
72
66
73
-93
0
VERTEX
8
BOX03
10
0
20
0
30
0
70
128
71
-68
72
93
73
92
0
VERTEX
8
BOX03
10
0
20
0
30
0
70
128
71
66
72
64
73
-94
0
VERTEX
8
BOX03
10
0
20
0
30
0
70
128
71
-66
72
94
73
93
0
VERTEX
8
BOX03
10
0
20
0
30
0
70
128
71
64
72
62
73
-95
0
VERTEX
8
BOX03
10
0
20
0
30
0
70
128
71
-64
72
95
73
94
0
VERTEX
8
BOX03
10
0
20
0
30
0
70
128
71
62
72
60
73
-96
0
VERTEX
8
BOX03
10
0
20
0
30
0
70
128
71
-62
72
96
73
95
0
VERTEX
8
BOX03
10
0
20
0
30
0
70
128
71
60
72
59
73
-97
0
VERTEX
8
BOX03
10
0
20
0
30
0
70
128
71
-60
72
97
73
96
0
VERTEX
8
BOX03
10
0
20
0
30
0
70
128
71
59
72
57
73
-98
0
VERTEX
8
BOX03
10
0
20
0
30
0
70
128
71
-59
72
98
73
97
0
VERTEX
8
BOX03
10
0
20
0
30
0
70
128
71
57
72
54
73
-99
0
VERTEX
8
BOX03
10
0
20
0
30
0
70
128
71
-57
72
99
73
98
0
VERTEX
8
BOX03
10
0
20
0
30
0
70
128
71
54
72
52
73
-100
0
VERTEX
8
BOX03
10
0
20
0
30
0
70
128
71
-54
72
100
73
99
0
VERTEX
8
BOX03
10
0
20
0
30
0
70
128
71
52
72
51
73
-101
0
VERTEX
8
BOX03
10
0
20
0
30
0
70
128
71
-52
72
101
73
100
0
VERTEX
8
BOX03
10
0
20
0
30
0
70
128
71
51
72
50
73
-102
0
VERTEX
8
BOX03
10
0
20
0
30
0
70
128
71
-51
72
102
73
101
0
VERTEX
8
BOX03
10
0
20
0
30
0
70
128
71
50
72
49
73
-103
0
VERTEX
8
BOX03
10
0
20
0
30
0
70
128
71
-50
72
103
73
102
0
VERTEX
8
BOX03
10
0
20
0
30
0
70
128
71
49
72
53
73
-104
0
VERTEX
8
BOX03
10
0
20
0
30
0
70
128
71
-49
72
104
73
103
0
VERTEX
8
BOX03
10
0
20
0
30
0
70
128
71
53
72
55
73
-105
0
VERTEX
8
BOX03
10
0
20
0
30
0
70
128
71
-53
72
105
73
104
0
VERTEX
8
BOX03
10
0
20
0
30
0
70
128
71
55
72
56
73
-106
0
VERTEX
8
BOX03
10
0
20
0
30
0
70
128
71
-55
72
106
73
105
0
VERTEX
8
BOX03
10
0
20
0
30
0
70
128
71
56
72
58
73
-107
0
VERTEX
8
BOX03
10
0
20
0
30
0
70
128
71
-56
72
107
73
106
0
VERTEX
8
BOX03
10
0
20
0
30
0
70
128
71
58
72
61
73
-108
0
VERTEX
8
BOX03
10
0
20
0
30
0
70
128
71
-58
72
108
73
107
0
VERTEX
8
BOX03
10
0
20
0
30
0
70
128
71
61
72
63
73
-80
0
VERTEX
8
BOX03
10
0
20
0
30
0
70
128
71
-61
72
80
73
108
0
VERTEX
8
BOX03
10
0
20
0
30
0
70
128
71
101
72
102
73
-103
0
VERTEX
8
BOX03
10
0
20
0
30
0
70
128
71
100
72
-101
73
-103
0
VERTEX
8
BOX03
10
0
20
0
30
0
70
128
71
-100
72
103
73
-104
0
VERTEX
8
BOX03
10
0
20
0
30
0
70
128
71
99
72
-100
73
-104
0
VERTEX
8
BOX03
10
0
20
0
30
0
70
128
71
-99
72
104
73
-105
0
VERTEX
8
BOX03
10
0
20
0
30
0
70
128
71
-99
72
105
73
-106
0
VERTEX
8
BOX03
10
0
20
0
30
0
70
128
71
98
72
-99
73
-106
0
VERTEX
8
BOX03
10
0
20
0
30
0
70
128
71
-98
72
106
73
-107
0
VERTEX
8
BOX03
10
0
20
0
30
0
70
128
71
97
72
-98
73
-107
0
VERTEX
8
BOX03
10
0
20
0
30
0
70
128
71
96
72
-97
73
-107
0
VERTEX
8
BOX03
10
0
20
0
30
0
70
128
71
-96
72
107
73
-108
0
VERTEX
8
BOX03
10
0
20
0
30
0
70
128
71
95
72
-96
73
-108
0
VERTEX
8
BOX03
10
0
20
0
30
0
70
128
71
-95
72
108
73
80
0
VERTEX
8
BOX03
10
0
20
0
30
0
70
128
71
94
72
95
73
-80
0
VERTEX
8
BOX03
10
0
20
0
30
0
70
128
71
-94
72
80
73
79
0
VERTEX
8
BOX03
10
0
20
0
30
0
70
128
71
93
72
94
73
-79
0
VERTEX
8
BOX03
10
0
20
0
30
0
70
128
71
-93
72
79
73
-81
0
VERTEX
8
BOX03
10
0
20
0
30
0
70
128
71
92
72
-93
73
-81
0
VERTEX
8
BOX03
10
0
20
0
30
0
70
128
71
-92
72
81
73
-82
0
VERTEX
8
BOX03
10
0
20
0
30
0
70
128
71
91
72
-92
73
-82
0
VERTEX
8
BOX03
10
0
20
0
30
0
70
128
71
-91
72
82
73
-83
0
VERTEX
8
BOX03
10
0
20
0
30
0
70
128
71
-91
72
83
73
-84
0
VERTEX
8
BOX03
10
0
20
0
30
0
70
128
71
90
72
-91
73
-84
0
VERTEX
8
BOX03
10
0
20
0
30
0
70
128
71
-90
72
84
73
-85
0
VERTEX
8
BOX03
10
0
20
0
30
0
70
128
71
89
72
-90
73
-85
0
VERTEX
8
BOX03
10
0
20
0
30
0
70
128
71
88
72
-89
73
-85
0
VERTEX
8
BOX03
10
0
20
0
30
0
70
128
71
-88
72
85
73
-86
0
VERTEX
8
BOX03
10
0
20
0
30
0
70
128
71
87
72
-88
73
86
0
VERTEX
8
BOX03
10
0
20
0
30
0
70
128
71
133
72
132
73
-131
0
VERTEX
8
BOX03
10
0
20
0
30
0
70
128
71
-133
72
131
73
-130
0
VERTEX
8
BOX03
10
0
20
0
30
0
70
128
71
134
72
-133
73
-130
0
VERTEX
8
BOX03
10
0
20
0
30
0
70
128
71
-134
72
130
73
-129
0
VERTEX
8
BOX03
10
0
20
0
30
0
70
128
71
135
72
-134
73
-129
0
VERTEX
8
BOX03
10
0
20
0
30
0
70
128
71
136
72
-135
73
-129
0
VERTEX
8
BOX03
10
0
20
0
30
0
70
128
71
-136
72
129
73
-128
0
VERTEX
8
BOX03
10
0
20
0
30
0
70
128
71
137
72
-136
73
-128
0
VERTEX
8
BOX03
10
0
20
0
30
0
70
128
71
-137
72
128
73
-127
0
VERTEX
8
BOX03
10
0
20
0
30
0
70
128
71
-137
72
127
73
-126
0
VERTEX
8
BOX03
10
0
20
0
30
0
70
128
71
138
72
-137
73
-126
0
VERTEX
8
BOX03
10
0
20
0
30
0
70
128
71
-138
72
126
73
-125
0
VERTEX
8
BOX03
10
0
20
0
30
0
70
128
71
109
72
-138
73
125
0
VERTEX
8
BOX03
10
0
20
0
30
0
70
128
71
109
72
125
73
-124
0
VERTEX
8
BOX03
10
0
20
0
30
0
70
128
71
110
72
-109
73
124
0
VERTEX
8
BOX03
10
0
20
0
30
0
70
128
71
110
72
124
73
-123
0
VERTEX
8
BOX03
10
0
20
0
30
0
70
128
71
111
72
-110
73
-123
0
VERTEX
8
BOX03
10
0
20
0
30
0
70
128
71
-111
72
123
73
-122
0
VERTEX
8
BOX03
10
0
20
0
30
0
70
128
71
112
72
-111
73
-122
0
VERTEX
8
BOX03
10
0
20
0
30
0
70
128
71
-112
72
122
73
-121
0
VERTEX
8
BOX03
10
0
20
0
30
0
70
128
71
113
72
-112
73
-121
0
VERTEX
8
BOX03
10
0
20
0
30
0
70
128
71
114
72
-113
73
-121
0
VERTEX
8
BOX03
10
0
20
0
30
0
70
128
71
-114
72
121
73
-120
0
VERTEX
8
BOX03
10
0
20
0
30
0
70
128
71
115
72
-114
73
-120
0
VERTEX
8
BOX03
10
0
20
0
30
0
70
128
71
-115
72
120
73
-119
0
VERTEX
8
BOX03
10
0
20
0
30
0
70
128
71
-115
72
119
73
-118
0
VERTEX
8
BOX03
10
0
20
0
30
0
70
128
71
116
72
-115
73
-118
0
VERTEX
8
BOX03
10
0
20
0
30
0
70
128
71
-116
72
118
73
117
0
VERTEX
8
BOX03
10
0
20
0
30
0
70
128
71
109
72
110
73
-140
0
VERTEX
8
BOX03
10
0
20
0
30
0
70
128
71
-109
72
140
73
139
0
VERTEX
8
BOX03
10
0
20
0
30
0
70
128
71
110
72
111
73
-141
0
VERTEX
8
BOX03
10
0
20
0
30
0
70
128
71
-110
72
141
73
140
0
VERTEX
8
BOX03
10
0
20
0
30
0
70
128
71
111
72
112
73
-142
0
VERTEX
8
BOX03
10
0
20
0
30
0
70
128
71
-111
72
142
73
141
0
VERTEX
8
BOX03
10
0
20
0
30
0
70
128
71
112
72
113
73
-143
0
VERTEX
8
BOX03
10
0
20
0
30
0
70
128
71
-112
72
143
73
142
0
VERTEX
8
BOX03
10
0
20
0
30
0
70
128
71
113
72
114
73
-144
0
VERTEX
8
BOX03
10
0
20
0
30
0
70
128
71
-113
72
144
73
143
0
VERTEX
8
BOX03
10
0
20
0
30
0
70
128
71
114
72
115
73
-145
0
VERTEX
8
BOX03
10
0
20
0
30
0
70
128
71
-114
72
145
73
144
0
VERTEX
8
BOX03
10
0
20
0
30
0
70
128
71
115
72
116
73
-146
0
VERTEX
8
BOX03
10
0
20
0
30
0
70
128
71
-115
72
146
73
145
0
VERTEX
8
BOX03
10
0
20
0
30
0
70
128
71
116
72
117
73
-147
0
VERTEX
8
BOX03
10
0
20
0
30
0
70
128
71
-116
72
147
73
146
0
VERTEX
8
BOX03
10
0
20
0
30
0
70
128
71
117
72
118
73
-148
0
VERTEX
8
BOX03
10
0
20
0
30
0
70
128
71
-117
72
148
73
147
0
VERTEX
8
BOX03
10
0
20
0
30
0
70
128
71
118
72
119
73
-149
0
VERTEX
8
BOX03
10
0
20
0
30
0
70
128
71
-118
72
149
73
148
0
VERTEX
8
BOX03
10
0
20
0
30
0
70
128
71
119
72
120
73
-150
0
VERTEX
8
BOX03
10
0
20
0
30
0
70
128
71
-119
72
150
73
149
0
VERTEX
8
BOX03
10
0
20
0
30
0
70
128
71
120
72
121
73
-151
0
VERTEX
8
BOX03
10
0
20
0
30
0
70
128
71
-120
72
151
73
150
0
VERTEX
8
BOX03
10
0
20
0
30
0
70
128
71
121
72
122
73
-152
0
VERTEX
8
BOX03
10
0
20
0
30
0
70
128
71
-121
72
152
73
151
0
VERTEX
8
BOX03
10
0
20
0
30
0
70
128
71
122
72
123
73
-153
0
VERTEX
8
BOX03
10
0
20
0
30
0
70
128
71
-122
72
153
73
152
0
VERTEX
8
BOX03
10
0
20
0
30
0
70
128
71
123
72
124
73
-154
0
VERTEX
8
BOX03
10
0
20
0
30
0
70
128
71
-123
72
154
73
153
0
VERTEX
8
BOX03
10
0
20
0
30
0
70
128
71
124
72
125
73
-155
0
VERTEX
8
BOX03
10
0
20
0
30
0
70
128
71
-124
72
155
73
154
0
VERTEX
8
BOX03
10
0
20
0
30
0
70
128
71
125
72
126
73
-156
0
VERTEX
8
BOX03
10
0
20
0
30
0
70
128
71
-125
72
156
73
155
0
VERTEX
8
BOX03
10
0
20
0
30
0
70
128
71
126
72
127
73
-157
0
VERTEX
8
BOX03
10
0
20
0
30
0
70
128
71
-126
72
157
73
156
0
VERTEX
8
BOX03
10
0
20
0
30
0
70
128
71
127
72
128
73
-158
0
VERTEX
8
BOX03
10
0
20
0
30
0
70
128
71
-127
72
158
73
157
0
VERTEX
8
BOX03
10
0
20
0
30
0
70
128
71
128
72
129
73
-159
0
VERTEX
8
BOX03
10
0
20
0
30
0
70
128
71
-128
72
159
73
158
0
VERTEX
8
BOX03
10
0
20
0
30
0
70
128
71
129
72
130
73
-160
0
VERTEX
8
BOX03
10
0
20
0
30
0
70
128
71
-129
72
160
73
159
0
VERTEX
8
BOX03
10
0
20
0
30
0
70
128
71
130
72
131
73
-161
0
VERTEX
8
BOX03
10
0
20
0
30
0
70
128
71
-130
72
161
73
160
0
VERTEX
8
BOX03
10
0
20
0
30
0
70
128
71
131
72
132
73
-162
0
VERTEX
8
BOX03
10
0
20
0
30
0
70
128
71
-131
72
162
73
161
0
VERTEX
8
BOX03
10
0
20
0
30
0
70
128
71
132
72
133
73
-163
0
VERTEX
8
BOX03
10
0
20
0
30
0
70
128
71
-132
72
163
73
162
0
VERTEX
8
BOX03
10
0
20
0
30
0
70
128
71
133
72
134
73
-164
0
VERTEX
8
BOX03
10
0
20
0
30
0
70
128
71
-133
72
164
73
163
0
VERTEX
8
BOX03
10
0
20
0
30
0
70
128
71
134
72
135
73
-165
0
VERTEX
8
BOX03
10
0
20
0
30
0
70
128
71
-134
72
165
73
164
0
VERTEX
8
BOX03
10
0
20
0
30
0
70
128
71
135
72
136
73
-166
0
VERTEX
8
BOX03
10
0
20
0
30
0
70
128
71
-135
72
166
73
165
0
VERTEX
8
BOX03
10
0
20
0
30
0
70
128
71
136
72
137
73
-167
0
VERTEX
8
BOX03
10
0
20
0
30
0
70
128
71
-136
72
167
73
166
0
VERTEX
8
BOX03
10
0
20
0
30
0
70
128
71
137
72
138
73
-168
0
VERTEX
8
BOX03
10
0
20
0
30
0
70
128
71
-137
72
168
73
167
0
VERTEX
8
BOX03
10
0
20
0
30
0
70
128
71
138
72
109
73
-139
0
VERTEX
8
BOX03
10
0
20
0
30
0
70
128
71
-138
72
139
73
168
0
VERTEX
8
BOX03
10
0
20
0
30
0
70
128
71
161
72
162
73
-163
0
VERTEX
8
BOX03
10
0
20
0
30
0
70
128
71
160
72
-161
73
-163
0
VERTEX
8
BOX03
10
0
20
0
30
0
70
128
71
-160
72
163
73
-164
0
VERTEX
8
BOX03
10
0
20
0
30
0
70
128
71
159
72
-160
73
-164
0
VERTEX
8
BOX03
10
0
20
0
30
0
70
128
71
-159
72
164
73
-165
0
VERTEX
8
BOX03
10
0
20
0
30
0
70
128
71
-159
72
165
73
-166
0
VERTEX
8
BOX03
10
0
20
0
30
0
70
128
71
158
72
-159
73
-166
0
VERTEX
8
BOX03
10
0
20
0
30
0
70
128
71
-158
72
166
73
-167
0
VERTEX
8
BOX03
10
0
20
0
30
0
70
128
71
157
72
-158
73
-167
0
VERTEX
8
BOX03
10
0
20
0
30
0
70
128
71
156
72
-157
73
-167
0
VERTEX
8
BOX03
10
0
20
0
30
0
70
128
71
-156
72
167
73
-168
0
VERTEX
8
BOX03
10
0
20
0
30
0
70
128
71
155
72
-156
73
-168
0
VERTEX
8
BOX03
10
0
20
0
30
0
70
128
71
-155
72
168
73
139
0
VERTEX
8
BOX03
10
0
20
0
30
0
70
128
71
154
72
155
73
-139
0
VERTEX
8
BOX03
10
0
20
0
30
0
70
128
71
-154
72
139
73
140
0
VERTEX
8
BOX03
10
0
20
0
30
0
70
128
71
153
72
154
73
-140
0
VERTEX
8
BOX03
10
0
20
0
30
0
70
128
71
-153
72
140
73
-141
0
VERTEX
8
BOX03
10
0
20
0
30
0
70
128
71
152
72
-153
73
-141
0
VERTEX
8
BOX03
10
0
20
0
30
0
70
128
71
-152
72
141
73
-142
0
VERTEX
8
BOX03
10
0
20
0
30
0
70
128
71
151
72
-152
73
-142
0
VERTEX
8
BOX03
10
0
20
0
30
0
70
128
71
-151
72
142
73
-143
0
VERTEX
8
BOX03
10
0
20
0
30
0
70
128
71
-151
72
143
73
-144
0
VERTEX
8
BOX03
10
0
20
0
30
0
70
128
71
150
72
-151
73
-144
0
VERTEX
8
BOX03
10
0
20
0
30
0
70
128
71
-150
72
144
73
-145
0
VERTEX
8
BOX03
10
0
20
0
30
0
70
128
71
149
72
-150
73
-145
0
VERTEX
8
BOX03
10
0
20
0
30
0
70
128
71
148
72
-149
73
-145
0
VERTEX
8
BOX03
10
0
20
0
30
0
70
128
71
-148
72
145
73
-146
0
VERTEX
8
BOX03
10
0
20
0
30
0
70
128
71
147
72
-148
73
146
0
SEQEND
8
BOX03
0
POLYLINE
8
BOX02
66
1
70
64
71
168
72
306
62
171
0
VERTEX
8
BOX02
10
-37.952515
20
-23.734440
30
68.077805
70
192
0
VERTEX
8
BOX02
10
-37.952503
20
-23.734438
30
74.824829
70
192
0
VERTEX
8
BOX02
10
-37.952503
20
20.750286
30
74.824837
70
192
0
VERTEX
8
BOX02
10
-37.952515
20
20.750282
30
68.077805
70
192
0
VERTEX
8
BOX02
10
-38.907349
20
20.750278
30
68.431793
70
192
0
VERTEX
8
BOX02
10
-38.907349
20
-23.734442
30
68.431786
70
192
0
VERTEX
8
BOX02
10
-38.553364
20
20.750286
30
74.824837
70
192
0
VERTEX
8
BOX02
10
-38.907349
20
-23.734434
30
74.470848
70
192
0
VERTEX
8
BOX02
10
-38.553364
20
20.750278
30
68.077805
70
192
0
VERTEX
8
BOX02
10
-38.553364
20
-23.734444
30
68.077805
70
192
0
VERTEX
8
BOX02
10
-38.907349
20
20.750286
30
74.470848
70
192
0
VERTEX
8
BOX02
10
-38.553364
20
-23.734434
30
74.824829
70
192
0
VERTEX
8
BOX02
10
37.974781
20
-23.734438
30
68.077797
70
192
0
VERTEX
8
BOX02
10
37.974773
20
-23.734438
30
74.824829
70
192
0
VERTEX
8
BOX02
10
37.974773
20
20.750290
30
74.824837
70
192
0
VERTEX
8
BOX02
10
37.974781
20
20.750286
30
68.077805
70
192
0
VERTEX
8
BOX02
10
38.929619
20
20.750286
30
68.431786
70
192
0
VERTEX
8
BOX02
10
38.929619
20
-23.734442
30
68.431786
70
192
0
VERTEX
8
BOX02
10
38.575634
20
20.750290
30
74.824837
70
192
0
VERTEX
8
BOX02
10
38.929619
20
-23.734434
30
74.470848
70
192
0
VERTEX
8
BOX02
10
38.575634
20
20.750286
30
68.077805
70
192
0
VERTEX
8
BOX02
10
38.575634
20
-23.734442
30
68.077805
70
192
0
VERTEX
8
BOX02
10
38.929619
20
20.750290
30
74.470848
70
192
0
VERTEX
8
BOX02
10
38.575634
20
-23.734434
30
74.824829
70
192
0
VERTEX
8
BOX02
10
-37.919628
20
22.475956
30
63.305286
70
192
0
VERTEX
8
BOX02
10
-37.919628
20
22.475952
30
79.083923
70
192
0
VERTEX
8
BOX02
10
37.974781
20
22.475952
30
79.083923
70
192
0
VERTEX
8
BOX02
10
37.974781
20
22.475956
30
63.305286
70
192
0
VERTEX
8
BOX02
10
37.974773
20
-23.734440
30
63.305275
70
192
0
VERTEX
8
BOX02
10
-37.919636
20
-23.734440
30
63.305279
70
192
0
VERTEX
8
BOX02
10
37.974773
20
-23.734442
30
79.083908
70
192
0
VERTEX
8
BOX02
10
-37.919628
20
-23.734446
30
79.083916
70
192
0
VERTEX
8
BOX02
10
-36.193966
20
20.750286
30
79.084366
70
192
0
VERTEX
8
BOX02
10
36.249119
20
20.750290
30
79.084366
70
192
0
VERTEX
8
BOX02
10
36.249111
20
-23.734442
30
79.084358
70
192
0
VERTEX
8
BOX02
10
-36.193966
20
-23.734446
30
79.084358
70
192
0
VERTEX
8
BOX02
10
-36.193966
20
20.750290
30
65.289139
70
192
0
VERTEX
8
BOX02
10
36.249115
20
20.750290
30
65.289139
70
192
0
VERTEX
8
BOX02
10
36.249111
20
-23.734438
30
65.289124
70
192
0
VERTEX
8
BOX02
10
-36.193966
20
-23.734440
30
65.289131
70
192
0
VERTEX
8
BOX02
10
-39.559422
20
-25.675062
30
80.537163
70
192
0
VERTEX
8
BOX02
10
40.440578
20
-25.675064
30
80.537163
70
192
0
VERTEX
8
BOX02
10
40.440578
20
-25.675064
30
63.305283
70
192
0
VERTEX
8
BOX02
10
-39.559422
20
-25.675060
30
63.305283
70
192
0
VERTEX
8
BOX02
10
-39.559422
20
-23.734442
30
80.537163
70
192
0
VERTEX
8
BOX02
10
40.440578
20
-23.734444
30
80.537163
70
192
0
VERTEX
8
BOX02
10
40.440578
20
-23.734444
30
63.305279
70
192
0
VERTEX
8
BOX02
10
-39.559422
20
-23.734440
30
63.305279
70
192
0
VERTEX
8
BOX02
10
32.068447
20
-26.230999
30
73.108711
70
192
0
VERTEX
8
BOX02
10
32.068447
20
-28.196087
30
73.109306
70
192
0
VERTEX
8
BOX02
10
31.974850
20
-28.196087
30
72.054070
70
192
0
VERTEX
8
BOX02
10
31.708309
20
-28.196087
30
71.588585
70
192
0
VERTEX
8
BOX02
10
31.290096
20
-28.196087
30
71.177834
70
192
0
VERTEX
8
BOX02
10
30.741634
20
-28.196148
30
70.835152
70
192
0
VERTEX
8
BOX02
10
30.084255
20
-28.196148
30
70.573875
70
192
0
VERTEX
8
BOX02
10
29.339291
20
-28.196148
30
70.407310
70
192
0
VERTEX
8
BOX02
10
28.528042
20
-28.196148
30
70.348808
70
192
0
VERTEX
8
BOX02
10
27.716824
20
-28.196148
30
70.407295
70
192
0
VERTEX
8
BOX02
10
26.971828
20
-28.196148
30
70.573860
70
192
0
VERTEX
8
BOX02
10
26.314449
20
-28.196148
30
70.835136
70
192
0
VERTEX
8
BOX02
10
25.765987
20
-28.196148
30
71.177834
70
192
0
VERTEX
8
BOX02
10
25.347805
20
-28.196148
30
71.588585
70
192
0
VERTEX
8
BOX02
10
25.081264
20
-28.196087
30
72.054054
70
192
0
VERTEX
8
BOX02
10
24.987637
20
-28.196087
30
73.109306
70
192
0
VERTEX
8
BOX02
10
24.987637
20
-26.230999
30
73.108711
70
192
0
VERTEX
8
BOX02
10
25.081264
20
-26.238079
30
72.006157
70
192
0
VERTEX
8
BOX02
10
25.347805
20
-26.238079
30
71.540672
70
192
0
VERTEX
8
BOX02
10
25.765987
20
-26.238079
30
71.129921
70
192
0
VERTEX
8
BOX02
10
26.314449
20
-26.238079
30
70.787224
70
192
0
VERTEX
8
BOX02
10
26.971828
20
-26.238079
30
70.525948
70
192
0
VERTEX
8
BOX02
10
27.716824
20
-26.238079
30
70.359398
70
192
0
VERTEX
8
BOX02
10
28.528042
20
-26.238079
30
70.300911
70
192
0
VERTEX
8
BOX02
10
29.339291
20
-26.238079
30
70.359413
70
192
0
VERTEX
8
BOX02
10
30.084255
20
-26.238079
30
70.525963
70
192
0
VERTEX
8
BOX02
10
30.741634
20
-26.238079
30
70.787239
70
192
0
VERTEX
8
BOX02
10
31.290096
20
-26.238079
30
71.129936
70
192
0
VERTEX
8
BOX02
10
31.708309
20
-26.238079
30
71.540688
70
192
0
VERTEX
8
BOX02
10
31.974850
20
-26.238079
30
72.006172
70
192
0
VERTEX
8
BOX02
10
32.068447
20
-26.392864
30
72.900871
70
192
0
VERTEX
8
BOX02
10
32.068447
20
-28.048382
30
72.901466
70
192
0
VERTEX
8
BOX02
10
31.974850
20
-28.048382
30
72.054070
70
192
0
VERTEX
8
BOX02
10
31.708309
20
-28.048382
30
71.588585
70
192
0
VERTEX
8
BOX02
10
31.290096
20
-28.048382
30
71.177834
70
192
0
VERTEX
8
BOX02
10
30.741634
20
-28.048382
30
70.835152
70
192
0
VERTEX
8
BOX02
10
30.084255
20
-28.048382
30
70.573875
70
192
0
VERTEX
8
BOX02
10
29.339291
20
-28.048382
30
70.407310
70
192
0
VERTEX
8
BOX02
10
28.528042
20
-28.048382
30
70.348808
70
192
0
VERTEX
8
BOX02
10
27.716824
20
-28.048382
30
70.407295
70
192
0
VERTEX
8
BOX02
10
26.971828
20
-28.048382
30
70.573860
70
192
0
VERTEX
8
BOX02
10
26.314449
20
-28.048382
30
70.835136
70
192
0
VERTEX
8
BOX02
10
25.765987
20
-28.048382
30
71.177834
70
192
0
VERTEX
8
BOX02
10
25.347805
20
-28.048382
30
71.588585
70
192
0
VERTEX
8
BOX02
10
25.081264
20
-28.048382
30
72.054054
70
192
0
VERTEX
8
BOX02
10
24.987637
20
-28.048382
30
72.901466
70
192
0
VERTEX
8
BOX02
10
24.987637
20
-26.392864
30
72.900871
70
192
0
VERTEX
8
BOX02
10
25.081264
20
-26.385784
30
72.006157
70
192
0
VERTEX
8
BOX02
10
25.347805
20
-26.385784
30
71.540672
70
192
0
VERTEX
8
BOX02
10
25.765987
20
-26.385784
30
71.129921
70
192
0
VERTEX
8
BOX02
10
26.314449
20
-26.385784
30
70.787224
70
192
0
VERTEX
8
BOX02
10
26.971828
20
-26.385784
30
70.525948
70
192
0
VERTEX
8
BOX02
10
27.716824
20
-26.385784
30
70.359398
70
192
0
VERTEX
8
BOX02
10
28.528042
20
-26.385784
30
70.300911
70
192
0
VERTEX
8
BOX02
10
29.339291
20
-26.385784
30
70.359413
70
192
0
VERTEX
8
BOX02
10
30.084255
20
-26.385784
30
70.525963
70
192
0
VERTEX
8
BOX02
10
30.741634
20
-26.385784
30
70.787239
70
192
0
VERTEX
8
BOX02
10
31.290096
20
-26.385784
30
71.129936
70
192
0
VERTEX
8
BOX02
10
31.708309
20
-26.385784
30
71.540688
70
192
0
VERTEX
8
BOX02
10
31.974850
20
-26.385784
30
72.006172
70
192
0
VERTEX
8
BOX02
10
-28.702503
20
-26.238079
30
70.359413
70
192
0
VERTEX
8
BOX02
10
-29.513752
20
-26.238079
30
70.300911
70
192
0
VERTEX
8
BOX02
10
-30.324970
20
-26.238079
30
70.359398
70
192
0
VERTEX
8
BOX02
10
-31.069965
20
-26.238079
30
70.525948
70
192
0
VERTEX
8
BOX02
10
-27.957539
20
-26.238079
30
70.525963
70
192
0
VERTEX
8
BOX02
10
-31.727345
20
-26.238079
30
70.787224
70
192
0
VERTEX
8
BOX02
10
-27.300159
20
-26.238079
30
70.787239
70
192
0
VERTEX
8
BOX02
10
-26.751698
20
-26.238079
30
71.129936
70
192
0
VERTEX
8
BOX02
10
-32.275806
20
-26.238079
30
71.129921
70
192
0
VERTEX
8
BOX02
10
-26.333485
20
-26.238079
30
71.540688
70
192
0
VERTEX
8
BOX02
10
-32.693989
20
-26.238079
30
71.540672
70
192
0
VERTEX
8
BOX02
10
-32.960529
20
-26.238079
30
72.006157
70
192
0
VERTEX
8
BOX02
10
-26.066944
20
-26.238079
30
72.006172
70
192
0
VERTEX
8
BOX02
10
-33.054157
20
-26.230999
30
73.108711
70
192
0
VERTEX
8
BOX02
10
-25.973347
20
-26.230999
30
73.108711
70
192
0
VERTEX
8
BOX02
10
-33.054157
20
-28.196087
30
73.109306
70
192
0
VERTEX
8
BOX02
10
-25.973347
20
-28.196087
30
73.109306
70
192
0
VERTEX
8
BOX02
10
-32.960529
20
-28.196087
30
72.054054
70
192
0
VERTEX
8
BOX02
10
-26.066944
20
-28.196087
30
72.054070
70
192
0
VERTEX
8
BOX02
10
-32.693989
20
-28.196148
30
71.588585
70
192
0
VERTEX
8
BOX02
10
-26.333485
20
-28.196087
30
71.588585
70
192
0
VERTEX
8
BOX02
10
-32.275806
20
-28.196148
30
71.177834
70
192
0
VERTEX
8
BOX02
10
-26.751698
20
-28.196087
30
71.177834
70
192
0
VERTEX
8
BOX02
10
-27.300159
20
-28.196148
30
70.835152
70
192
0
VERTEX
8
BOX02
10
-31.727345
20
-28.196148
30
70.835136
70
192
0
VERTEX
8
BOX02
10
-27.957539
20
-28.196148
30
70.573875
70
192
0
VERTEX
8
BOX02
10
-31.069965
20
-28.196148
30
70.573860
70
192
0
VERTEX
8
BOX02
10
-30.324970
20
-28.196148
30
70.407295
70
192
0
VERTEX
8
BOX02
10
-28.702503
20
-28.196148
30
70.407310
70
192
0
VERTEX
8
BOX02
10
-29.513752
20
-28.196148
30
70.348808
70
192
0
VERTEX
8
BOX02
10
-25.973347
20
-28.048382
30
72.901466
70
192
0
VERTEX
8
BOX02
10
-25.973347
20
-26.392864
30
72.900871
70
192
0
VERTEX
8
BOX02
10
-26.066944
20
-28.048382
30
72.054070
70
192
0
VERTEX
8
BOX02
10
-26.333485
20
-28.048382
30
71.588585
70
192
0
VERTEX
8
BOX02
10
-26.751698
20
-28.048382
30
71.177834
70
192
0
VERTEX
8
BOX02
10
-27.300159
20
-28.048382
30
70.835152
70
192
0
VERTEX
8
BOX02
10
-27.957539
20
-28.048382
30
70.573875
70
192
0
VERTEX
8
BOX02
10
-28.702503
20
-28.048382
30
70.407310
70
192
0
VERTEX
8
BOX02
10
-29.513752
20
-28.048382
30
70.348808
70
192
0
VERTEX
8
BOX02
10
-30.324970
20
-28.048382
30
70.407295
70
192
0
VERTEX
8
BOX02
10
-31.069965
20
-28.048382
30
70.573860
70
192
0
VERTEX
8
BOX02
10
-31.727345
20
-28.048382
30
70.835136
70
192
0
VERTEX
8
BOX02
10
-32.275806
20
-28.048382
30
71.177834
70
192
0
VERTEX
8
BOX02
10
-32.693989
20
-28.048382
30
71.588585
70
192
0
VERTEX
8
BOX02
10
-32.960529
20
-28.048382
30
72.054054
70
192
0
VERTEX
8
BOX02
10
-33.054157
20
-28.048382
30
72.901466
70
192
0
VERTEX
8
BOX02
10
-33.054157
20
-26.392864
30
72.900871
70
192
0
VERTEX
8
BOX02
10
-32.960529
20
-26.385784
30
72.006157
70
192
0
VERTEX
8
BOX02
10
-32.693989
20
-26.385784
30
71.540672
70
192
0
VERTEX
8
BOX02
10
-32.275806
20
-26.385784
30
71.129921
70
192
0
VERTEX
8
BOX02
10
-31.727345
20
-26.385784
30
70.787224
70
192
0
VERTEX
8
BOX02
10
-31.069965
20
-26.385784
30
70.525948
70
192
0
VERTEX
8
BOX02
10
-30.324970
20
-26.385784
30
70.359398
70
192
0
VERTEX
8
BOX02
10
-29.513752
20
-26.385784
30
70.300911
70
192
0
VERTEX
8
BOX02
10
-28.702503
20
-26.385784
30
70.359413
70
192
0
VERTEX
8
BOX02
10
-27.957539
20
-26.385784
30
70.525963
70
192
0
VERTEX
8
BOX02
10
-27.300159
20
-26.385784
30
70.787239
70
192
0
VERTEX
8
BOX02
10
-26.751698
20
-26.385784
30
71.129936
70
192
0
VERTEX
8
BOX02
10
-26.333485
20
-26.385784
30
71.540688
70
192
0
VERTEX
8
BOX02
10
-26.066944
20
-26.385784
30
72.006172
70
192
0
VERTEX
8
BOX02
10
0
20
0
30
0
70
128
71
2
72
-1
73
3
0
VERTEX
8
BOX02
10
0
20
0
30
0
70
128
71
4
72
-3
73
1
0
VERTEX
8
BOX02
10
0
20
0
30
0
70
128
71
4
72
-1
73
9
0
VERTEX
8
BOX02
10
0
20
0
30
0
70
128
71
10
72
-9
73
1
0
VERTEX
8
BOX02
10
0
20
0
30
0
70
128
71
3
72
-4
73
7
0
VERTEX
8
BOX02
10
0
20
0
30
0
70
128
71
-9
72
-11
73
4
0
VERTEX
8
BOX02
10
0
20
0
30
0
70
128
71
2
72
-3
73
12
0
VERTEX
8
BOX02
10
0
20
0
30
0
70
128
71
7
72
-12
73
3
0
VERTEX
8
BOX02
10
0
20
0
30
0
70
128
71
1
72
-2
73
10
0
VERTEX
8
BOX02
10
0
20
0
30
0
70
128
71
-12
72
-6
73
2
0
VERTEX
8
BOX02
10
0
20
0
30
0
70
128
71
11
72
-5
73
8
0
VERTEX
8
BOX02
10
0
20
0
30
0
70
128
71
6
72
-8
73
5
0
VERTEX
8
BOX02
10
0
20
0
30
0
70
128
71
5
72
-11
73
9
0
VERTEX
8
BOX02
10
0
20
0
30
0
70
128
71
8
72
-6
73
12
0
VERTEX
8
BOX02
10
0
20
0
30
0
70
128
71
5
72
9
73
-10
0
VERTEX
8
BOX02
10
0
20
0
30
0
70
128
71
10
72
6
73
-5
0
VERTEX
8
BOX02
10
0
20
0
30
0
70
128
71
-7
72
-4
73
11
0
VERTEX
8
BOX02
10
0
20
0
30
0
70
128
71
7
72
11
73
-8
0
VERTEX
8
BOX02
10
0
20
0
30
0
70
128
71
8
72
12
73
-7
0
VERTEX
8
BOX02
10
0
20
0
30
0
70
128
71
-10
72
-2
73
6
0
VERTEX
8
BOX02
10
0
20
0
30
0
70
128
71
-15
72
13
73
14
0
VERTEX
8
BOX02
10
0
20
0
30
0
70
128
71
-13
72
15
73
16
0
VERTEX
8
BOX02
10
0
20
0
30
0
70
128
71
-21
72
13
73
16
0
VERTEX
8
BOX02
10
0
20
0
30
0
70
128
71
-13
72
21
73
22
0
VERTEX
8
BOX02
10
0
20
0
30
0
70
128
71
-19
72
16
73
15
0
VERTEX
8
BOX02
10
0
20
0
30
0
70
128
71
-16
72
-23
73
21
0
VERTEX
8
BOX02
10
0
20
0
30
0
70
128
71
-24
72
15
73
14
0
VERTEX
8
BOX02
10
0
20
0
30
0
70
128
71
-15
72
24
73
19
0
VERTEX
8
BOX02
10
0
20
0
30
0
70
128
71
-22
72
14
73
13
0
VERTEX
8
BOX02
10
0
20
0
30
0
70
128
71
-14
72
-18
73
24
0
VERTEX
8
BOX02
10
0
20
0
30
0
70
128
71
-20
72
17
73
23
0
VERTEX
8
BOX02
10
0
20
0
30
0
70
128
71
-17
72
20
73
18
0
VERTEX
8
BOX02
10
0
20
0
30
0
70
128
71
-21
72
23
73
17
0
VERTEX
8
BOX02
10
0
20
0
30
0
70
128
71
-24
72
18
73
20
0
VERTEX
8
BOX02
10
0
20
0
30
0
70
128
71
22
72
21
73
-17
0
VERTEX
8
BOX02
10
0
20
0
30
0
70
128
71
17
72
18
73
-22
0
VERTEX
8
BOX02
10
0
20
0
30
0
70
128
71
-23
72
-16
73
19
0
VERTEX
8
BOX02
10
0
20
0
30
0
70
128
71
20
72
23
73
-19
0
VERTEX
8
BOX02
10
0
20
0
30
0
70
128
71
19
72
24
73
-20
0
VERTEX
8
BOX02
10
0
20
0
30
0
70
128
71
-18
72
-14
73
22
0
VERTEX
8
BOX02
10
0
20
0
30
0
70
128
71
-27
72
25
73
26
0
VERTEX
8
BOX02
10
0
20
0
30
0
70
128
71
-25
72
27
73
28
0
VERTEX
8
BOX02
10
0
20
0
30
0
70
128
71
-29
72
25
73
28
0
VERTEX
8
BOX02
10
0
20
0
30
0
70
128
71
-25
72
29
73
30
0
VERTEX
8
BOX02
10
0
20
0
30
0
70
128
71
-31
72
28
73
27
0
VERTEX
8
BOX02
10
0
20
0
30
0
70
128
71
-28
72
31
73
29
0
VERTEX
8
BOX02
10
0
20
0
30
0
70
128
71
-40
72
38
73
37
0
VERTEX
8
BOX02
10
0
20
0
30
0
70
128
71
-38
72
40
73
39
0
VERTEX
8
BOX02
10
0
20
0
30
0
70
128
71
-30
72
26
73
25
0
VERTEX
8
BOX02
10
0
20
0
30
0
70
128
71
-26
72
30
73
32
0
VERTEX
8
BOX02
10
0
20
0
30
0
70
128
71
-33
72
27
73
26
0
VERTEX
8
BOX02
10
0
20
0
30
0
70
128
71
-27
72
33
73
34
0
VERTEX
8
BOX02
10
0
20
0
30
0
70
128
71
-34
72
31
73
27
0
VERTEX
8
BOX02
10
0
20
0
30
0
70
128
71
-31
72
34
73
35
0
VERTEX
8
BOX02
10
0
20
0
30
0
70
128
71
-36
72
26
73
32
0
VERTEX
8
BOX02
10
0
20
0
30
0
70
128
71
-26
72
36
73
33
0
VERTEX
8
BOX02
10
0
20
0
30
0
70
128
71
-37
72
34
73
33
0
VERTEX
8
BOX02
10
0
20
0
30
0
70
128
71
-34
72
37
73
38
0
VERTEX
8
BOX02
10
0
20
0
30
0
70
128
71
-40
72
33
73
36
0
VERTEX
8
BOX02
10
0
20
0
30
0
70
128
71
-33
72
40
73
37
0
VERTEX
8
BOX02
10
0
20
0
30
0
70
128
71
-38
72
35
73
34
0
VERTEX
8
BOX02
10
0
20
0
30
0
70
128
71
-35
72
38
73
39
0
VERTEX
8
BOX02
10
0
20
0
30
0
70
128
71
41
72
44
73
-43
0
VERTEX
8
BOX02
10
0
20
0
30
0
70
128
71
42
72
-41
73
43
0
VERTEX
8
BOX02
10
0
20
0
30
0
70
128
71
41
72
42
73
-46
0
VERTEX
8
BOX02
10
0
20
0
30
0
70
128
71
-41
72
46
73
45
0
VERTEX
8
BOX02
10
0
20
0
30
0
70
128
71
42
72
43
73
-47
0
VERTEX
8
BOX02
10
0
20
0
30
0
70
128
71
-42
72
47
73
46
0
VERTEX
8
BOX02
10
0
20
0
30
0
70
128
71
43
72
44
73
-48
0
VERTEX
8
BOX02
10
0
20
0
30
0
70
128
71
-43
72
48
73
47
0
VERTEX
8
BOX02
10
0
20
0
30
0
70
128
71
44
72
41
73
-45
0
VERTEX
8
BOX02
10
0
20
0
30
0
70
128
71
-44
72
45
73
48
0
VERTEX
8
BOX02
10
0
20
0
30
0
70
128
71
47
72
48
73
-45
0
VERTEX
8
BOX02
10
0
20
0
30
0
70
128
71
-47
72
45
73
46
0
VERTEX
8
BOX02
10
0
20
0
30
0
70
128
71
73
72
72
73
-71
0
VERTEX
8
BOX02
10
0
20
0
30
0
70
128
71
-73
72
71
73
-70
0
VERTEX
8
BOX02
10
0
20
0
30
0
70
128
71
74
72
-73
73
-70
0
VERTEX
8
BOX02
10
0
20
0
30
0
70
128
71
-74
72
70
73
-69
0
VERTEX
8
BOX02
10
0
20
0
30
0
70
128
71
75
72
-74
73
-69
0
VERTEX
8
BOX02
10
0
20
0
30
0
70
128
71
76
72
-75
73
-69
0
VERTEX
8
BOX02
10
0
20
0
30
0
70
128
71
-76
72
69
73
-68
0
VERTEX
8
BOX02
10
0
20
0
30
0
70
128
71
77
72
-76
73
-68
0
VERTEX
8
BOX02
10
0
20
0
30
0
70
128
71
-77
72
68
73
-67
0
VERTEX
8
BOX02
10
0
20
0
30
0
70
128
71
-77
72
67
73
-66
0
VERTEX
8
BOX02
10
0
20
0
30
0
70
128
71
78
72
-77
73
-66
0
VERTEX
8
BOX02
10
0
20
0
30
0
70
128
71
-78
72
66
73
-65
0
VERTEX
8
BOX02
10
0
20
0
30
0
70
128
71
49
72
-78
73
65
0
VERTEX
8
BOX02
10
0
20
0
30
0
70
128
71
49
72
65
73
-64
0
VERTEX
8
BOX02
10
0
20
0
30
0
70
128
71
50
72
-49
73
64
0
VERTEX
8
BOX02
10
0
20
0
30
0
70
128
71
50
72
64
73
-63
0
VERTEX
8
BOX02
10
0
20
0
30
0
70
128
71
51
72
-50
73
-63
0
VERTEX
8
BOX02
10
0
20
0
30
0
70
128
71
-51
72
63
73
-62
0
VERTEX
8
BOX02
10
0
20
0
30
0
70
128
71
52
72
-51
73
-62
0
VERTEX
8
BOX02
10
0
20
0
30
0
70
128
71
-52
72
62
73
-61
0
VERTEX
8
BOX02
10
0
20
0
30
0
70
128
71
53
72
-52
73
-61
0
VERTEX
8
BOX02
10
0
20
0
30
0
70
128
71
54
72
-53
73
-61
0
VERTEX
8
BOX02
10
0
20
0
30
0
70
128
71
-54
72
61
73
-60
0
VERTEX
8
BOX02
10
0
20
0
30
0
70
128
71
55
72
-54
73
-60
0
VERTEX
8
BOX02
10
0
20
0
30
0
70
128
71
-55
72
60
73
-59
0
VERTEX
8
BOX02
10
0
20
0
30
0
70
128
71
-55
72
59
73
-58
0
VERTEX
8
BOX02
10
0
20
0
30
0
70
128
71
56
72
-55
73
-58
0
VERTEX
8
BOX02
10
0
20
0
30
0
70
128
71
-56
72
58
73
57
0
VERTEX
8
BOX02
10
0
20
0
30
0
70
128
71
49
72
50
73
-80
0
VERTEX
8
BOX02
10
0
20
0
30
0
70
128
71
-49
72
80
73
79
0
VERTEX
8
BOX02
10
0
20
0
30
0
70
128
71
50
72
51
73
-81
0
VERTEX
8
BOX02
10
0
20
0
30
0
70
128
71
-50
72
81
73
80
0
VERTEX
8
BOX02
10
0
20
0
30
0
70
128
71
51
72
52
73
-82
0
VERTEX
8
BOX02
10
0
20
0
30
0
70
128
71
-51
72
82
73
81
0
VERTEX
8
BOX02
10
0
20
0
30
0
70
128
71
52
72
53
73
-83
0
VERTEX
8
BOX02
10
0
20
0
30
0
70
128
71
-52
72
83
73
82
0
VERTEX
8
BOX02
10
0
20
0
30
0
70
128
71
53
72
54
73
-84
0
VERTEX
8
BOX02
10
0
20
0
30
0
70
128
71
-53
72
84
73
83
0
VERTEX
8
BOX02
10
0
20
0
30
0
70
128
71
54
72
55
73
-85
0
VERTEX
8
BOX02
10
0
20
0
30
0
70
128
71
-54
72
85
73
84
0
VERTEX
8
BOX02
10
0
20
0
30
0
70
128
71
55
72
56
73
-86
0
VERTEX
8
BOX02
10
0
20
0
30
0
70
128
71
-55
72
86
73
85
0
VERTEX
8
BOX02
10
0
20
0
30
0
70
128
71
56
72
57
73
-87
0
VERTEX
8
BOX02
10
0
20
0
30
0
70
128
71
-56
72
87
73
86
0
VERTEX
8
BOX02
10
0
20
0
30
0
70
128
71
57
72
58
73
-88
0
VERTEX
8
BOX02
10
0
20
0
30
0
70
128
71
-57
72
88
73
87
0
VERTEX
8
BOX02
10
0
20
0
30
0
70
128
71
58
72
59
73
-89
0
VERTEX
8
BOX02
10
0
20
0
30
0
70
128
71
-58
72
89
73
88
0
VERTEX
8
BOX02
10
0
20
0
30
0
70
128
71
59
72
60
73
-90
0
VERTEX
8
BOX02
10
0
20
0
30
0
70
128
71
-59
72
90
73
89
0
VERTEX
8
BOX02
10
0
20
0
30
0
70
128
71
60
72
61
73
-91
0
VERTEX
8
BOX02
10
0
20
0
30
0
70
128
71
-60
72
91
73
90
0
VERTEX
8
BOX02
10
0
20
0
30
0
70
128
71
61
72
62
73
-92
0
VERTEX
8
BOX02
10
0
20
0
30
0
70
128
71
-61
72
92
73
91
0
VERTEX
8
BOX02
10
0
20
0
30
0
70
128
71
62
72
63
73
-93
0
VERTEX
8
BOX02
10
0
20
0
30
0
70
128
71
-62
72
93
73
92
0
VERTEX
8
BOX02
10
0
20
0
30
0
70
128
71
63
72
64
73
-94
0
VERTEX
8
BOX02
10
0
20
0
30
0
70
128
71
-63
72
94
73
93
0
VERTEX
8
BOX02
10
0
20
0
30
0
70
128
71
64
72
65
73
-95
0
VERTEX
8
BOX02
10
0
20
0
30
0
70
128
71
-64
72
95
73
94
0
VERTEX
8
BOX02
10
0
20
0
30
0
70
128
71
65
72
66
73
-96
0
VERTEX
8
BOX02
10
0
20
0
30
0
70
128
71
-65
72
96
73
95
0
VERTEX
8
BOX02
10
0
20
0
30
0
70
128
71
66
72
67
73
-97
0
VERTEX
8
BOX02
10
0
20
0
30
0
70
128
71
-66
72
97
73
96
0
VERTEX
8
BOX02
10
0
20
0
30
0
70
128
71
67
72
68
73
-98
0
VERTEX
8
BOX02
10
0
20
0
30
0
70
128
71
-67
72
98
73
97
0
VERTEX
8
BOX02
10
0
20
0
30
0
70
128
71
68
72
69
73
-99
0
VERTEX
8
BOX02
10
0
20
0
30
0
70
128
71
-68
72
99
73
98
0
VERTEX
8
BOX02
10
0
20
0
30
0
70
128
71
69
72
70
73
-100
0
VERTEX
8
BOX02
10
0
20
0
30
0
70
128
71
-69
72
100
73
99
0
VERTEX
8
BOX02
10
0
20
0
30
0
70
128
71
70
72
71
73
-101
0
VERTEX
8
BOX02
10
0
20
0
30
0
70
128
71
-70
72
101
73
100
0
VERTEX
8
BOX02
10
0
20
0
30
0
70
128
71
71
72
72
73
-102
0
VERTEX
8
BOX02
10
0
20
0
30
0
70
128
71
-71
72
102
73
101
0
VERTEX
8
BOX02
10
0
20
0
30
0
70
128
71
72
72
73
73
-103
0
VERTEX
8
BOX02
10
0
20
0
30
0
70
128
71
-72
72
103
73
102
0
VERTEX
8
BOX02
10
0
20
0
30
0
70
128
71
73
72
74
73
-104
0
VERTEX
8
BOX02
10
0
20
0
30
0
70
128
71
-73
72
104
73
103
0
VERTEX
8
BOX02
10
0
20
0
30
0
70
128
71
74
72
75
73
-105
0
VERTEX
8
BOX02
10
0
20
0
30
0
70
128
71
-74
72
105
73
104
0
VERTEX
8
BOX02
10
0
20
0
30
0
70
128
71
75
72
76
73
-106
0
VERTEX
8
BOX02
10
0
20
0
30
0
70
128
71
-75
72
106
73
105
0
VERTEX
8
BOX02
10
0
20
0
30
0
70
128
71
76
72
77
73
-107
0
VERTEX
8
BOX02
10
0
20
0
30
0
70
128
71
-76
72
107
73
106
0
VERTEX
8
BOX02
10
0
20
0
30
0
70
128
71
77
72
78
73
-108
0
VERTEX
8
BOX02
10
0
20
0
30
0
70
128
71
-77
72
108
73
107
0
VERTEX
8
BOX02
10
0
20
0
30
0
70
128
71
78
72
49
73
-79
0
VERTEX
8
BOX02
10
0
20
0
30
0
70
128
71
-78
72
79
73
108
0
VERTEX
8
BOX02
10
0
20
0
30
0
70
128
71
101
72
102
73
-103
0
VERTEX
8
BOX02
10
0
20
0
30
0
70
128
71
100
72
-101
73
-103
0
VERTEX
8
BOX02
10
0
20
0
30
0
70
128
71
-100
72
103
73
-104
0
VERTEX
8
BOX02
10
0
20
0
30
0
70
128
71
99
72
-100
73
-104
0
VERTEX
8
BOX02
10
0
20
0
30
0
70
128
71
-99
72
104
73
-105
0
VERTEX
8
BOX02
10
0
20
0
30
0
70
128
71
-99
72
105
73
-106
0
VERTEX
8
BOX02
10
0
20
0
30
0
70
128
71
98
72
-99
73
-106
0
VERTEX
8
BOX02
10
0
20
0
30
0
70
128
71
-98
72
106
73
-107
0
VERTEX
8
BOX02
10
0
20
0
30
0
70
128
71
97
72
-98
73
-107
0
VERTEX
8
BOX02
10
0
20
0
30
0
70
128
71
96
72
-97
73
-107
0
VERTEX
8
BOX02
10
0
20
0
30
0
70
128
71
-96
72
107
73
-108
0
VERTEX
8
BOX02
10
0
20
0
30
0
70
128
71
95
72
-96
73
-108
0
VERTEX
8
BOX02
10
0
20
0
30
0
70
128
71
-95
72
108
73
79
0
VERTEX
8
BOX02
10
0
20
0
30
0
70
128
71
94
72
95
73
-79
0
VERTEX
8
BOX02
10
0
20
0
30
0
70
128
71
-94
72
79
73
80
0
VERTEX
8
BOX02
10
0
20
0
30
0
70
128
71
93
72
94
73
-80
0
VERTEX
8
BOX02
10
0
20
0
30
0
70
128
71
-93
72
80
73
-81
0
VERTEX
8
BOX02
10
0
20
0
30
0
70
128
71
92
72
-93
73
-81
0
VERTEX
8
BOX02
10
0
20
0
30
0
70
128
71
-92
72
81
73
-82
0
VERTEX
8
BOX02
10
0
20
0
30
0
70
128
71
91
72
-92
73
-82
0
VERTEX
8
BOX02
10
0
20
0
30
0
70
128
71
-91
72
82
73
-83
0
VERTEX
8
BOX02
10
0
20
0
30
0
70
128
71
-91
72
83
73
-84
0
VERTEX
8
BOX02
10
0
20
0
30
0
70
128
71
90
72
-91
73
-84
0
VERTEX
8
BOX02
10
0
20
0
30
0
70
128
71
-90
72
84
73
-85
0
VERTEX
8
BOX02
10
0
20
0
30
0
70
128
71
89
72
-90
73
-85
0
VERTEX
8
BOX02
10
0
20
0
30
0
70
128
71
88
72
-89
73
-85
0
VERTEX
8
BOX02
10
0
20
0
30
0
70
128
71
-88
72
85
73
-86
0
VERTEX
8
BOX02
10
0
20
0
30
0
70
128
71
87
72
-88
73
86
0
VERTEX
8
BOX02
10
0
20
0
30
0
70
128
71
109
72
110
73
-111
0
VERTEX
8
BOX02
10
0
20
0
30
0
70
128
71
-109
72
111
73
-112
0
VERTEX
8
BOX02
10
0
20
0
30
0
70
128
71
113
72
-109
73
-112
0
VERTEX
8
BOX02
10
0
20
0
30
0
70
128
71
-113
72
112
73
-114
0
VERTEX
8
BOX02
10
0
20
0
30
0
70
128
71
115
72
-113
73
-114
0
VERTEX
8
BOX02
10
0
20
0
30
0
70
128
71
116
72
-115
73
-114
0
VERTEX
8
BOX02
10
0
20
0
30
0
70
128
71
-116
72
114
73
-117
0
VERTEX
8
BOX02
10
0
20
0
30
0
70
128
71
118
72
-116
73
-117
0
VERTEX
8
BOX02
10
0
20
0
30
0
70
128
71
-118
72
117
73
-119
0
VERTEX
8
BOX02
10
0
20
0
30
0
70
128
71
-118
72
119
73
-120
0
VERTEX
8
BOX02
10
0
20
0
30
0
70
128
71
121
72
-118
73
-120
0
VERTEX
8
BOX02
10
0
20
0
30
0
70
128
71
-121
72
120
73
-122
0
VERTEX
8
BOX02
10
0
20
0
30
0
70
128
71
123
72
-121
73
122
0
VERTEX
8
BOX02
10
0
20
0
30
0
70
128
71
123
72
122
73
-124
0
VERTEX
8
BOX02
10
0
20
0
30
0
70
128
71
125
72
-123
73
124
0
VERTEX
8
BOX02
10
0
20
0
30
0
70
128
71
125
72
124
73
-126
0
VERTEX
8
BOX02
10
0
20
0
30
0
70
128
71
127
72
-125
73
-126
0
VERTEX
8
BOX02
10
0
20
0
30
0
70
128
71
-127
72
126
73
-128
0
VERTEX
8
BOX02
10
0
20
0
30
0
70
128
71
129
72
-127
73
-128
0
VERTEX
8
BOX02
10
0
20
0
30
0
70
128
71
-129
72
128
73
-130
0
VERTEX
8
BOX02
10
0
20
0
30
0
70
128
71
131
72
-129
73
-130
0
VERTEX
8
BOX02
10
0
20
0
30
0
70
128
71
132
72
-131
73
-130
0
VERTEX
8
BOX02
10
0
20
0
30
0
70
128
71
-132
72
130
73
-133
0
VERTEX
8
BOX02
10
0
20
0
30
0
70
128
71
134
72
-132
73
-133
0
VERTEX
8
BOX02
10
0
20
0
30
0
70
128
71
-134
72
133
73
-135
0
VERTEX
8
BOX02
10
0
20
0
30
0
70
128
71
-134
72
135
73
-136
0
VERTEX
8
BOX02
10
0
20
0
30
0
70
128
71
137
72
-134
73
-136
0
VERTEX
8
BOX02
10
0
20
0
30
0
70
128
71
-137
72
136
73
138
0
VERTEX
8
BOX02
10
0
20
0
30
0
70
128
71
123
72
125
73
-139
0
VERTEX
8
BOX02
10
0
20
0
30
0
70
128
71
-123
72
139
73
140
0
VERTEX
8
BOX02
10
0
20
0
30
0
70
128
71
125
72
127
73
-141
0
VERTEX
8
BOX02
10
0
20
0
30
0
70
128
71
-125
72
141
73
139
0
VERTEX
8
BOX02
10
0
20
0
30
0
70
128
71
127
72
129
73
-142
0
VERTEX
8
BOX02
10
0
20
0
30
0
70
128
71
-127
72
142
73
141
0
VERTEX
8
BOX02
10
0
20
0
30
0
70
128
71
129
72
131
73
-143
0
VERTEX
8
BOX02
10
0
20
0
30
0
70
128
71
-129
72
143
73
142
0
VERTEX
8
BOX02
10
0
20
0
30
0
70
128
71
131
72
132
73
-144
0
VERTEX
8
BOX02
10
0
20
0
30
0
70
128
71
-131
72
144
73
143
0
VERTEX
8
BOX02
10
0
20
0
30
0
70
128
71
132
72
134
73
-145
0
VERTEX
8
BOX02
10
0
20
0
30
0
70
128
71
-132
72
145
73
144
0
VERTEX
8
BOX02
10
0
20
0
30
0
70
128
71
134
72
137
73
-146
0
VERTEX
8
BOX02
10
0
20
0
30
0
70
128
71
-134
72
146
73
145
0
VERTEX
8
BOX02
10
0
20
0
30
0
70
128
71
137
72
138
73
-147
0
VERTEX
8
BOX02
10
0
20
0
30
0
70
128
71
-137
72
147
73
146
0
VERTEX
8
BOX02
10
0
20
0
30
0
70
128
71
138
72
136
73
-148
0
VERTEX
8
BOX02
10
0
20
0
30
0
70
128
71
-138
72
148
73
147
0
VERTEX
8
BOX02
10
0
20
0
30
0
70
128
71
136
72
135
73
-149
0
VERTEX
8
BOX02
10
0
20
0
30
0
70
128
71
-136
72
149
73
148
0
VERTEX
8
BOX02
10
0
20
0
30
0
70
128
71
135
72
133
73
-150
0
VERTEX
8
BOX02
10
0
20
0
30
0
70
128
71
-135
72
150
73
149
0
VERTEX
8
BOX02
10
0
20
0
30
0
70
128
71
133
72
130
73
-151
0
VERTEX
8
BOX02
10
0
20
0
30
0
70
128
71
-133
72
151
73
150
0
VERTEX
8
BOX02
10
0
20
0
30
0
70
128
71
130
72
128
73
-152
0
VERTEX
8
BOX02
10
0
20
0
30
0
70
128
71
-130
72
152
73
151
0
VERTEX
8
BOX02
10
0
20
0
30
0
70
128
71
128
72
126
73
-153
0
VERTEX
8
BOX02
10
0
20
0
30
0
70
128
71
-128
72
153
73
152
0
VERTEX
8
BOX02
10
0
20
0
30
0
70
128
71
126
72
124
73
-154
0
VERTEX
8
BOX02
10
0
20
0
30
0
70
128
71
-126
72
154
73
153
0
VERTEX
8
BOX02
10
0
20
0
30
0
70
128
71
124
72
122
73
-155
0
VERTEX
8
BOX02
10
0
20
0
30
0
70
128
71
-124
72
155
73
154
0
VERTEX
8
BOX02
10
0
20
0
30
0
70
128
71
122
72
120
73
-156
0
VERTEX
8
BOX02
10
0
20
0
30
0
70
128
71
-122
72
156
73
155
0
VERTEX
8
BOX02
10
0
20
0
30
0
70
128
71
120
72
119
73
-157
0
VERTEX
8
BOX02
10
0
20
0
30
0
70
128
71
-120
72
157
73
156
0
VERTEX
8
BOX02
10
0
20
0
30
0
70
128
71
119
72
117
73
-158
0
VERTEX
8
BOX02
10
0
20
0
30
0
70
128
71
-119
72
158
73
157
0
VERTEX
8
BOX02
10
0
20
0
30
0
70
128
71
117
72
114
73
-159
0
VERTEX
8
BOX02
10
0
20
0
30
0
70
128
71
-117
72
159
73
158
0
VERTEX
8
BOX02
10
0
20
0
30
0
70
128
71
114
72
112
73
-160
0
VERTEX
8
BOX02
10
0
20
0
30
0
70
128
71
-114
72
160
73
159
0
VERTEX
8
BOX02
10
0
20
0
30
0
70
128
71
112
72
111
73
-161
0
VERTEX
8
BOX02
10
0
20
0
30
0
70
128
71
-112
72
161
73
160
0
VERTEX
8
BOX02
10
0
20
0
30
0
70
128
71
111
72
110
73
-162
0
VERTEX
8
BOX02
10
0
20
0
30
0
70
128
71
-111
72
162
73
161
0
VERTEX
8
BOX02
10
0
20
0
30
0
70
128
71
110
72
109
73
-163
0
VERTEX
8
BOX02
10
0
20
0
30
0
70
128
71
-110
72
163
73
162
0
VERTEX
8
BOX02
10
0
20
0
30
0
70
128
71
109
72
113
73
-164
0
VERTEX
8
BOX02
10
0
20
0
30
0
70
128
71
-109
72
164
73
163
0
VERTEX
8
BOX02
10
0
20
0
30
0
70
128
71
113
72
115
73
-165
0
VERTEX
8
BOX02
10
0
20
0
30
0
70
128
71
-113
72
165
73
164
0
VERTEX
8
BOX02
10
0
20
0
30
0
70
128
71
115
72
116
73
-166
0
VERTEX
8
BOX02
10
0
20
0
30
0
70
128
71
-115
72
166
73
165
0
VERTEX
8
BOX02
10
0
20
0
30
0
70
128
71
116
72
118
73
-167
0
VERTEX
8
BOX02
10
0
20
0
30
0
70
128
71
-116
72
167
73
166
0
VERTEX
8
BOX02
10
0
20
0
30
0
70
128
71
118
72
121
73
-168
0
VERTEX
8
BOX02
10
0
20
0
30
0
70
128
71
-118
72
168
73
167
0
VERTEX
8
BOX02
10
0
20
0
30
0
70
128
71
121
72
123
73
-140
0
VERTEX
8
BOX02
10
0
20
0
30
0
70
128
71
-121
72
140
73
168
0
VERTEX
8
BOX02
10
0
20
0
30
0
70
128
71
161
72
162
73
-163
0
VERTEX
8
BOX02
10
0
20
0
30
0
70
128
71
160
72
-161
73
-163
0
VERTEX
8
BOX02
10
0
20
0
30
0
70
128
71
-160
72
163
73
-164
0
VERTEX
8
BOX02
10
0
20
0
30
0
70
128
71
159
72
-160
73
-164
0
VERTEX
8
BOX02
10
0
20
0
30
0
70
128
71
-159
72
164
73
-165
0
VERTEX
8
BOX02
10
0
20
0
30
0
70
128
71
-159
72
165
73
-166
0
VERTEX
8
BOX02
10
0
20
0
30
0
70
128
71
158
72
-159
73
-166
0
VERTEX
8
BOX02
10
0
20
0
30
0
70
128
71
-158
72
166
73
-167
0
VERTEX
8
BOX02
10
0
20
0
30
0
70
128
71
157
72
-158
73
-167
0
VERTEX
8
BOX02
10
0
20
0
30
0
70
128
71
156
72
-157
73
-167
0
VERTEX
8
BOX02
10
0
20
0
30
0
70
128
71
-156
72
167
73
-168
0
VERTEX
8
BOX02
10
0
20
0
30
0
70
128
71
155
72
-156
73
-168
0
VERTEX
8
BOX02
10
0
20
0
30
0
70
128
71
-155
72
168
73
140
0
VERTEX
8
BOX02
10
0
20
0
30
0
70
128
71
154
72
155
73
-140
0
VERTEX
8
BOX02
10
0
20
0
30
0
70
128
71
-154
72
140
73
139
0
VERTEX
8
BOX02
10
0
20
0
30
0
70
128
71
153
72
154
73
-139
0
VERTEX
8
BOX02
10
0
20
0
30
0
70
128
71
-153
72
139
73
-141
0
VERTEX
8
BOX02
10
0
20
0
30
0
70
128
71
152
72
-153
73
-141
0
VERTEX
8
BOX02
10
0
20
0
30
0
70
128
71
-152
72
141
73
-142
0
VERTEX
8
BOX02
10
0
20
0
30
0
70
128
71
151
72
-152
73
-142
0
VERTEX
8
BOX02
10
0
20
0
30
0
70
128
71
-151
72
142
73
-143
0
VERTEX
8
BOX02
10
0
20
0
30
0
70
128
71
-151
72
143
73
-144
0
VERTEX
8
BOX02
10
0
20
0
30
0
70
128
71
150
72
-151
73
-144
0
VERTEX
8
BOX02
10
0
20
0
30
0
70
128
71
-150
72
144
73
-145
0
VERTEX
8
BOX02
10
0
20
0
30
0
70
128
71
149
72
-150
73
-145
0
VERTEX
8
BOX02
10
0
20
0
30
0
70
128
71
148
72
-149
73
-145
0
VERTEX
8
BOX02
10
0
20
0
30
0
70
128
71
-148
72
145
73
-146
0
VERTEX
8
BOX02
10
0
20
0
30
0
70
128
71
147
72
-148
73
146
0
SEQEND
8
BOX02
0
POLYLINE
8
BOX01
66
1
70
64
71
168
72
306
62
171
0
VERTEX
8
BOX01
10
-37.952515
20
-23.734440
30
86.037239
70
192
0
VERTEX
8
BOX01
10
-37.952503
20
-23.734438
30
92.784264
70
192
0
VERTEX
8
BOX01
10
-37.952503
20
20.750286
30
92.784271
70
192
0
VERTEX
8
BOX01
10
-37.952515
20
20.750282
30
86.037239
70
192
0
VERTEX
8
BOX01
10
-38.907349
20
20.750278
30
86.391228
70
192
0
VERTEX
8
BOX01
10
-38.907349
20
-23.734442
30
86.391220
70
192
0
VERTEX
8
BOX01
10
-38.553364
20
20.750286
30
92.784271
70
192
0
VERTEX
8
BOX01
10
-38.907349
20
-23.734434
30
92.430283
70
192
0
VERTEX
8
BOX01
10
-38.553364
20
20.750278
30
86.037239
70
192
0
VERTEX
8
BOX01
10
-38.553364
20
-23.734444
30
86.037239
70
192
0
VERTEX
8
BOX01
10
-38.907349
20
20.750286
30
92.430283
70
192
0
VERTEX
8
BOX01
10
-38.553364
20
-23.734434
30
92.784264
70
192
0
VERTEX
8
BOX01
10
37.974781
20
-23.734438
30
86.037231
70
192
0
VERTEX
8
BOX01
10
37.974773
20
-23.734438
30
92.784264
70
192
0
VERTEX
8
BOX01
10
37.974773
20
20.750290
30
92.784271
70
192
0
VERTEX
8
BOX01
10
37.974781
20
20.750286
30
86.037239
70
192
0
VERTEX
8
BOX01
10
38.929619
20
20.750286
30
86.391220
70
192
0
VERTEX
8
BOX01
10
38.929619
20
-23.734442
30
86.391220
70
192
0
VERTEX
8
BOX01
10
38.575634
20
20.750290
30
92.784271
70
192
0
VERTEX
8
BOX01
10
38.929619
20
-23.734434
30
92.430283
70
192
0
VERTEX
8
BOX01
10
38.575634
20
20.750286
30
86.037239
70
192
0
VERTEX
8
BOX01
10
38.575634
20
-23.734442
30
86.037231
70
192
0
VERTEX
8
BOX01
10
38.929619
20
20.750290
30
92.430283
70
192
0
VERTEX
8
BOX01
10
38.575634
20
-23.734434
30
92.784264
70
192
0
VERTEX
8
BOX01
10
-37.919628
20
22.475956
30
81.264725
70
192
0
VERTEX
8
BOX01
10
-37.919628
20
22.475952
30
97.043365
70
192
0
VERTEX
8
BOX01
10
37.974781
20
22.475952
30
97.043365
70
192
0
VERTEX
8
BOX01
10
37.974781
20
22.475956
30
81.264725
70
192
0
VERTEX
8
BOX01
10
37.974773
20
-23.734440
30
81.264709
70
192
0
VERTEX
8
BOX01
10
-37.919636
20
-23.734440
30
81.264717
70
192
0
VERTEX
8
BOX01
10
37.974773
20
-23.734442
30
97.043350
70
192
0
VERTEX
8
BOX01
10
-37.919628
20
-23.734446
30
97.043350
70
192
0
VERTEX
8
BOX01
10
-36.193966
20
20.750286
30
97.043800
70
192
0
VERTEX
8
BOX01
10
36.249119
20
20.750290
30
97.043800
70
192
0
VERTEX
8
BOX01
10
36.249111
20
-23.734442
30
97.043793
70
192
0
VERTEX
8
BOX01
10
-36.193966
20
-23.734446
30
97.043793
70
192
0
VERTEX
8
BOX01
10
-36.193966
20
20.750290
30
83.248573
70
192
0
VERTEX
8
BOX01
10
36.249115
20
20.750290
30
83.248573
70
192
0
VERTEX
8
BOX01
10
36.249111
20
-23.734438
30
83.248558
70
192
0
VERTEX
8
BOX01
10
-36.193966
20
-23.734440
30
83.248566
70
192
0
VERTEX
8
BOX01
10
-39.559422
20
-25.675062
30
99.187347
70
192
0
VERTEX
8
BOX01
10
40.440578
20
-25.675066
30
99.187340
70
192
0
VERTEX
8
BOX01
10
40.440578
20
-25.675064
30
81.264709
70
192
0
VERTEX
8
BOX01
10
-39.559422
20
-25.675062
30
81.264709
70
192
0
VERTEX
8
BOX01
10
-39.559422
20
-23.734442
30
99.187340
70
192
0
VERTEX
8
BOX01
10
40.440578
20
-23.734446
30
99.187340
70
192
0
VERTEX
8
BOX01
10
40.440578
20
-23.734446
30
81.264709
70
192
0
VERTEX
8
BOX01
10
-39.559422
20
-23.734442
30
81.264709
70
192
0
VERTEX
8
BOX01
10
32.068447
20
-26.230997
30
91.989128
70
192
0
VERTEX
8
BOX01
10
32.068447
20
-28.196085
30
91.989723
70
192
0
VERTEX
8
BOX01
10
31.974850
20
-28.196085
30
90.934486
70
192
0
VERTEX
8
BOX01
10
31.708309
20
-28.196085
30
90.469002
70
192
0
VERTEX
8
BOX01
10
31.290096
20
-28.196085
30
90.058250
70
192
0
VERTEX
8
BOX01
10
30.741634
20
-28.196146
30
89.715569
70
192
0
VERTEX
8
BOX01
10
30.084255
20
-28.196146
30
89.454292
70
192
0
VERTEX
8
BOX01
10
29.339291
20
-28.196146
30
89.287727
70
192
0
VERTEX
8
BOX01
10
28.528042
20
-28.196146
30
89.229225
70
192
0
VERTEX
8
BOX01
10
27.716824
20
-28.196146
30
89.287712
70
192
0
VERTEX
8
BOX01
10
26.971828
20
-28.196146
30
89.454277
70
192
0
VERTEX
8
BOX01
10
26.314449
20
-28.196146
30
89.715553
70
192
0
VERTEX
8
BOX01
10
25.765987
20
-28.196146
30
90.058250
70
192
0
VERTEX
8
BOX01
10
25.347805
20
-28.196146
30
90.469002
70
192
0
VERTEX
8
BOX01
10
25.081264
20
-28.196085
30
90.934471
70
192
0
VERTEX
8
BOX01
10
24.987637
20
-28.196085
30
91.989723
70
192
0
VERTEX
8
BOX01
10
24.987637
20
-26.230997
30
91.989128
70
192
0
VERTEX
8
BOX01
10
25.081264
20
-26.238077
30
90.886574
70
192
0
VERTEX
8
BOX01
10
25.347805
20
-26.238077
30
90.421089
70
192
0
VERTEX
8
BOX01
10
25.765987
20
-26.238077
30
90.010338
70
192
0
VERTEX
8
BOX01
10
26.314449
20
-26.238077
30
89.667641
70
192
0
VERTEX
8
BOX01
10
26.971828
20
-26.238077
30
89.406364
70
192
0
VERTEX
8
BOX01
10
27.716824
20
-26.238077
30
89.239815
70
192
0
VERTEX
8
BOX01
10
28.528042
20
-26.238077
30
89.181328
70
192
0
VERTEX
8
BOX01
10
29.339291
20
-26.238077
30
89.239830
70
192
0
VERTEX
8
BOX01
10
30.084255
20
-26.238077
30
89.406380
70
192
0
VERTEX
8
BOX01
10
30.741634
20
-26.238077
30
89.667656
70
192
0
VERTEX
8
BOX01
10
31.290096
20
-26.238077
30
90.010353
70
192
0
VERTEX
8
BOX01
10
31.708309
20
-26.238077
30
90.421104
70
192
0
VERTEX
8
BOX01
10
31.974850
20
-26.238077
30
90.886589
70
192
0
VERTEX
8
BOX01
10
32.068447
20
-26.392862
30
91.781288
70
192
0
VERTEX
8
BOX01
10
32.068447
20
-28.048380
30
91.781883
70
192
0
VERTEX
8
BOX01
10
31.974850
20
-28.048380
30
90.934486
70
192
0
VERTEX
8
BOX01
10
31.708309
20
-28.048380
30
90.469002
70
192
0
VERTEX
8
BOX01
10
31.290096
20
-28.048380
30
90.058250
70
192
0
VERTEX
8
BOX01
10
30.741634
20
-28.048380
30
89.715569
70
192
0
VERTEX
8
BOX01
10
30.084255
20
-28.048380
30
89.454292
70
192
0
VERTEX
8
BOX01
10
29.339291
20
-28.048380
30
89.287727
70
192
0
VERTEX
8
BOX01
10
28.528042
20
-28.048380
30
89.229225
70
192
0
VERTEX
8
BOX01
10
27.716824
20
-28.048380
30
89.287712
70
192
0
VERTEX
8
BOX01
10
26.971828
20
-28.048380
30
89.454277
70
192
0
VERTEX
8
BOX01
10
26.314449
20
-28.048380
30
89.715553
70
192
0
VERTEX
8
BOX01
10
25.765987
20
-28.048380
30
90.058250
70
192
0
VERTEX
8
BOX01
10
25.347805
20
-28.048380
30
90.469002
70
192
0
VERTEX
8
BOX01
10
25.081264
20
-28.048380
30
90.934471
70
192
0
VERTEX
8
BOX01
10
24.987637
20
-28.048380
30
91.781883
70
192
0
VERTEX
8
BOX01
10
24.987637
20
-26.392862
30
91.781288
70
192
0
VERTEX
8
BOX01
10
25.081264
20
-26.385782
30
90.886574
70
192
0
VERTEX
8
BOX01
10
25.347805
20
-26.385782
30
90.421089
70
192
0
VERTEX
8
BOX01
10
25.765987
20
-26.385782
30
90.010338
70
192
0
VERTEX
8
BOX01
10
26.314449
20
-26.385782
30
89.667641
70
192
0
VERTEX
8
BOX01
10
26.971828
20
-26.385782
30
89.406364
70
192
0
VERTEX
8
BOX01
10
27.716824
20
-26.385782
30
89.239815
70
192
0
VERTEX
8
BOX01
10
28.528042
20
-26.385782
30
89.181328
70
192
0
VERTEX
8
BOX01
10
29.339291
20
-26.385782
30
89.239830
70
192
0
VERTEX
8
BOX01
10
30.084255
20
-26.385782
30
89.406380
70
192
0
VERTEX
8
BOX01
10
30.741634
20
-26.385782
30
89.667656
70
192
0
VERTEX
8
BOX01
10
31.290096
20
-26.385782
30
90.010353
70
192
0
VERTEX
8
BOX01
10
31.708309
20
-26.385782
30
90.421104
70
192
0
VERTEX
8
BOX01
10
31.974850
20
-26.385782
30
90.886589
70
192
0
VERTEX
8
BOX01
10
-28.702503
20
-26.238077
30
89.239830
70
192
0
VERTEX
8
BOX01
10
-29.513752
20
-26.238077
30
89.181328
70
192
0
VERTEX
8
BOX01
10
-30.324970
20
-26.238077
30
89.239815
70
192
0
VERTEX
8
BOX01
10
-31.069965
20
-26.238077
30
89.406364
70
192
0
VERTEX
8
BOX01
10
-27.957539
20
-26.238077
30
89.406380
70
192
0
VERTEX
8
BOX01
10
-31.727345
20
-26.238077
30
89.667641
70
192
0
VERTEX
8
BOX01
10
-27.300159
20
-26.238077
30
89.667656
70
192
0
VERTEX
8
BOX01
10
-26.751698
20
-26.238077
30
90.010353
70
192
0
VERTEX
8
BOX01
10
-32.275806
20
-26.238077
30
90.010338
70
192
0
VERTEX
8
BOX01
10
-26.333485
20
-26.238077
30
90.421104
70
192
0
VERTEX
8
BOX01
10
-32.693989
20
-26.238077
30
90.421089
70
192
0
VERTEX
8
BOX01
10
-32.960529
20
-26.238077
30
90.886574
70
192
0
VERTEX
8
BOX01
10
-26.066944
20
-26.238077
30
90.886589
70
192
0
VERTEX
8
BOX01
10
-33.054157
20
-26.230997
30
91.989128
70
192
0
VERTEX
8
BOX01
10
-25.973347
20
-26.230997
30
91.989128
70
192
0
VERTEX
8
BOX01
10
-33.054157
20
-28.196085
30
91.989723
70
192
0
VERTEX
8
BOX01
10
-25.973347
20
-28.196085
30
91.989723
70
192
0
VERTEX
8
BOX01
10
-32.960529
20
-28.196085
30
90.934471
70
192
0
VERTEX
8
BOX01
10
-26.066944
20
-28.196085
30
90.934486
70
192
0
VERTEX
8
BOX01
10
-32.693989
20
-28.196146
30
90.469002
70
192
0
VERTEX
8
BOX01
10
-26.333485
20
-28.196085
30
90.469002
70
192
0
VERTEX
8
BOX01
10
-32.275806
20
-28.196146
30
90.058250
70
192
0
VERTEX
8
BOX01
10
-26.751698
20
-28.196085
30
90.058250
70
192
0
VERTEX
8
BOX01
10
-27.300159
20
-28.196146
30
89.715569
70
192
0
VERTEX
8
BOX01
10
-31.727345
20
-28.196146
30
89.715553
70
192
0
VERTEX
8
BOX01
10
-27.957539
20
-28.196146
30
89.454292
70
192
0
VERTEX
8
BOX01
10
-31.069965
20
-28.196146
30
89.454277
70
192
0
VERTEX
8
BOX01
10
-30.324970
20
-28.196146
30
89.287712
70
192
0
VERTEX
8
BOX01
10
-28.702503
20
-28.196146
30
89.287727
70
192
0
VERTEX
8
BOX01
10
-29.513752
20
-28.196146
30
89.229225
70
192
0
VERTEX
8
BOX01
10
-25.973347
20
-28.048380
30
91.781883
70
192
0
VERTEX
8
BOX01
10
-25.973347
20
-26.392862
30
91.781288
70
192
0
VERTEX
8
BOX01
10
-26.066944
20
-28.048380
30
90.934486
70
192
0
VERTEX
8
BOX01
10
-26.333485
20
-28.048380
30
90.469002
70
192
0
VERTEX
8
BOX01
10
-26.751698
20
-28.048380
30
90.058250
70
192
0
VERTEX
8
BOX01
10
-27.300159
20
-28.048380
30
89.715569
70
192
0
VERTEX
8
BOX01
10
-27.957539
20
-28.048380
30
89.454292
70
192
0
VERTEX
8
BOX01
10
-28.702503
20
-28.048380
30
89.287727
70
192
0
VERTEX
8
BOX01
10
-29.513752
20
-28.048380
30
89.229225
70
192
0
VERTEX
8
BOX01
10
-30.324970
20
-28.048380
30
89.287712
70
192
0
VERTEX
8
BOX01
10
-31.069965
20
-28.048380
30
89.454277
70
192
0
VERTEX
8
BOX01
10
-31.727345
20
-28.048380
30
89.715553
70
192
0
VERTEX
8
BOX01
10
-32.275806
20
-28.048380
30
90.058250
70
192
0
VERTEX
8
BOX01
10
-32.693989
20
-28.048380
30
90.469002
70
192
0
VERTEX
8
BOX01
10
-32.960529
20
-28.048380
30
90.934471
70
192
0
VERTEX
8
BOX01
10
-33.054157
20
-28.048380
30
91.781883
70
192
0
VERTEX
8
BOX01
10
-33.054157
20
-26.392862
30
91.781288
70
192
0
VERTEX
8
BOX01
10
-32.960529
20
-26.385782
30
90.886574
70
192
0
VERTEX
8
BOX01
10
-32.693989
20
-26.385782
30
90.421089
70
192
0
VERTEX
8
BOX01
10
-32.275806
20
-26.385782
30
90.010338
70
192
0
VERTEX
8
BOX01
10
-31.727345
20
-26.385782
30
89.667641
70
192
0
VERTEX
8
BOX01
10
-31.069965
20
-26.385782
30
89.406364
70
192
0
VERTEX
8
BOX01
10
-30.324970
20
-26.385782
30
89.239815
70
192
0
VERTEX
8
BOX01
10
-29.513752
20
-26.385782
30
89.181328
70
192
0
VERTEX
8
BOX01
10
-28.702503
20
-26.385782
30
89.239830
70
192
0
VERTEX
8
BOX01
10
-27.957539
20
-26.385782
30
89.406380
70
192
0
VERTEX
8
BOX01
10
-27.300159
20
-26.385782
30
89.667656
70
192
0
VERTEX
8
BOX01
10
-26.751698
20
-26.385782
30
90.010353
70
192
0
VERTEX
8
BOX01
10
-26.333485
20
-26.385782
30
90.421104
70
192
0
VERTEX
8
BOX01
10
-26.066944
20
-26.385782
30
90.886589
70
192
0
VERTEX
8
BOX01
10
0
20
0
30
0
70
128
71
2
72
-1
73
3
0
VERTEX
8
BOX01
10
0
20
0
30
0
70
128
71
4
72
-3
73
1
0
VERTEX
8
BOX01
10
0
20
0
30
0
70
128
71
4
72
-1
73
9
0
VERTEX
8
BOX01
10
0
20
0
30
0
70
128
71
10
72
-9
73
1
0
VERTEX
8
BOX01
10
0
20
0
30
0
70
128
71
3
72
-4
73
7
0
VERTEX
8
BOX01
10
0
20
0
30
0
70
128
71
-9
72
-11
73
4
0
VERTEX
8
BOX01
10
0
20
0
30
0
70
128
71
2
72
-3
73
12
0
VERTEX
8
BOX01
10
0
20
0
30
0
70
128
71
7
72
-12
73
3
0
VERTEX
8
BOX01
10
0
20
0
30
0
70
128
71
1
72
-2
73
10
0
VERTEX
8
BOX01
10
0
20
0
30
0
70
128
71
-12
72
-6
73
2
0
VERTEX
8
BOX01
10
0
20
0
30
0
70
128
71
11
72
-5
73
8
0
VERTEX
8
BOX01
10
0
20
0
30
0
70
128
71
6
72
-8
73
5
0
VERTEX
8
BOX01
10
0
20
0
30
0
70
128
71
5
72
-11
73
9
0
VERTEX
8
BOX01
10
0
20
0
30
0
70
128
71
8
72
-6
73
12
0
VERTEX
8
BOX01
10
0
20
0
30
0
70
128
71
5
72
9
73
-10
0
VERTEX
8
BOX01
10
0
20
0
30
0
70
128
71
10
72
6
73
-5
0
VERTEX
8
BOX01
10
0
20
0
30
0
70
128
71
-7
72
-4
73
11
0
VERTEX
8
BOX01
10
0
20
0
30
0
70
128
71
7
72
11
73
-8
0
VERTEX
8
BOX01
10
0
20
0
30
0
70
128
71
8
72
12
73
-7
0
VERTEX
8
BOX01
10
0
20
0
30
0
70
128
71
-10
72
-2
73
6
0
VERTEX
8
BOX01
10
0
20
0
30
0
70
128
71
-15
72
13
73
14
0
VERTEX
8
BOX01
10
0
20
0
30
0
70
128
71
-13
72
15
73
16
0
VERTEX
8
BOX01
10
0
20
0
30
0
70
128
71
-21
72
13
73
16
0
VERTEX
8
BOX01
10
0
20
0
30
0
70
128
71
-13
72
21
73
22
0
VERTEX
8
BOX01
10
0
20
0
30
0
70
128
71
-19
72
16
73
15
0
VERTEX
8
BOX01
10
0
20
0
30
0
70
128
71
-16
72
-23
73
21
0
VERTEX
8
BOX01
10
0
20
0
30
0
70
128
71
-24
72
15
73
14
0
VERTEX
8
BOX01
10
0
20
0
30
0
70
128
71
-15
72
24
73
19
0
VERTEX
8
BOX01
10
0
20
0
30
0
70
128
71
-22
72
14
73
13
0
VERTEX
8
BOX01
10
0
20
0
30
0
70
128
71
-14
72
-18
73
24
0
VERTEX
8
BOX01
10
0
20
0
30
0
70
128
71
-20
72
17
73
23
0
VERTEX
8
BOX01
10
0
20
0
30
0
70
128
71
-17
72
20
73
18
0
VERTEX
8
BOX01
10
0
20
0
30
0
70
128
71
-21
72
23
73
17
0
VERTEX
8
BOX01
10
0
20
0
30
0
70
128
71
-24
72
18
73
20
0
VERTEX
8
BOX01
10
0
20
0
30
0
70
128
71
22
72
21
73
-17
0
VERTEX
8
BOX01
10
0
20
0
30
0
70
128
71
17
72
18
73
-22
0
VERTEX
8
BOX01
10
0
20
0
30
0
70
128
71
-23
72
-16
73
19
0
VERTEX
8
BOX01
10
0
20
0
30
0
70
128
71
20
72
23
73
-19
0
VERTEX
8
BOX01
10
0
20
0
30
0
70
128
71
19
72
24
73
-20
0
VERTEX
8
BOX01
10
0
20
0
30
0
70
128
71
-18
72
-14
73
22
0
VERTEX
8
BOX01
10
0
20
0
30
0
70
128
71
-27
72
25
73
26
0
VERTEX
8
BOX01
10
0
20
0
30
0
70
128
71
-25
72
27
73
28
0
VERTEX
8
BOX01
10
0
20
0
30
0
70
128
71
-29
72
25
73
28
0
VERTEX
8
BOX01
10
0
20
0
30
0
70
128
71
-25
72
29
73
30
0
VERTEX
8
BOX01
10
0
20
0
30
0
70
128
71
-31
72
28
73
27
0
VERTEX
8
BOX01
10
0
20
0
30
0
70
128
71
-28
72
31
73
29
0
VERTEX
8
BOX01
10
0
20
0
30
0
70
128
71
-40
72
38
73
37
0
VERTEX
8
BOX01
10
0
20
0
30
0
70
128
71
-38
72
40
73
39
0
VERTEX
8
BOX01
10
0
20
0
30
0
70
128
71
-30
72
26
73
25
0
VERTEX
8
BOX01
10
0
20
0
30
0
70
128
71
-26
72
30
73
32
0
VERTEX
8
BOX01
10
0
20
0
30
0
70
128
71
-33
72
27
73
26
0
VERTEX
8
BOX01
10
0
20
0
30
0
70
128
71
-27
72
33
73
34
0
VERTEX
8
BOX01
10
0
20
0
30
0
70
128
71
-34
72
31
73
27
0
VERTEX
8
BOX01
10
0
20
0
30
0
70
128
71
-31
72
34
73
35
0
VERTEX
8
BOX01
10
0
20
0
30
0
70
128
71
-36
72
26
73
32
0
VERTEX
8
BOX01
10
0
20
0
30
0
70
128
71
-26
72
36
73
33
0
VERTEX
8
BOX01
10
0
20
0
30
0
70
128
71
-37
72
34
73
33
0
VERTEX
8
BOX01
10
0
20
0
30
0
70
128
71
-34
72
37
73
38
0
VERTEX
8
BOX01
10
0
20
0
30
0
70
128
71
-40
72
33
73
36
0
VERTEX
8
BOX01
10
0
20
0
30
0
70
128
71
-33
72
40
73
37
0
VERTEX
8
BOX01
10
0
20
0
30
0
70
128
71
-38
72
35
73
34
0
VERTEX
8
BOX01
10
0
20
0
30
0
70
128
71
-35
72
38
73
39
0
VERTEX
8
BOX01
10
0
20
0
30
0
70
128
71
41
72
44
73
-43
0
VERTEX
8
BOX01
10
0
20
0
30
0
70
128
71
42
72
-41
73
43
0
VERTEX
8
BOX01
10
0
20
0
30
0
70
128
71
41
72
42
73
-46
0
VERTEX
8
BOX01
10
0
20
0
30
0
70
128
71
-41
72
46
73
45
0
VERTEX
8
BOX01
10
0
20
0
30
0
70
128
71
42
72
43
73
-47
0
VERTEX
8
BOX01
10
0
20
0
30
0
70
128
71
-42
72
47
73
46
0
VERTEX
8
BOX01
10
0
20
0
30
0
70
128
71
43
72
44
73
-48
0
VERTEX
8
BOX01
10
0
20
0
30
0
70
128
71
-43
72
48
73
47
0
VERTEX
8
BOX01
10
0
20
0
30
0
70
128
71
44
72
41
73
-45
0
VERTEX
8
BOX01
10
0
20
0
30
0
70
128
71
-44
72
45
73
48
0
VERTEX
8
BOX01
10
0
20
0
30
0
70
128
71
47
72
48
73
-45
0
VERTEX
8
BOX01
10
0
20
0
30
0
70
128
71
-47
72
45
73
46
0
VERTEX
8
BOX01
10
0
20
0
30
0
70
128
71
73
72
72
73
-71
0
VERTEX
8
BOX01
10
0
20
0
30
0
70
128
71
-73
72
71
73
-70
0
VERTEX
8
BOX01
10
0
20
0
30
0
70
128
71
74
72
-73
73
-70
0
VERTEX
8
BOX01
10
0
20
0
30
0
70
128
71
-74
72
70
73
-69
0
VERTEX
8
BOX01
10
0
20
0
30
0
70
128
71
75
72
-74
73
-69
0
VERTEX
8
BOX01
10
0
20
0
30
0
70
128
71
76
72
-75
73
-69
0
VERTEX
8
BOX01
10
0
20
0
30
0
70
128
71
-76
72
69
73
-68
0
VERTEX
8
BOX01
10
0
20
0
30
0
70
128
71
77
72
-76
73
-68
0
VERTEX
8
BOX01
10
0
20
0
30
0
70
128
71
-77
72
68
73
-67
0
VERTEX
8
BOX01
10
0
20
0
30
0
70
128
71
-77
72
67
73
-66
0
VERTEX
8
BOX01
10
0
20
0
30
0
70
128
71
78
72
-77
73
-66
0
VERTEX
8
BOX01
10
0
20
0
30
0
70
128
71
-78
72
66
73
-65
0
VERTEX
8
BOX01
10
0
20
0
30
0
70
128
71
49
72
-78
73
65
0
VERTEX
8
BOX01
10
0
20
0
30
0
70
128
71
49
72
65
73
-64
0
VERTEX
8
BOX01
10
0
20
0
30
0
70
128
71
50
72
-49
73
64
0
VERTEX
8
BOX01
10
0
20
0
30
0
70
128
71
50
72
64
73
-63
0
VERTEX
8
BOX01
10
0
20
0
30
0
70
128
71
51
72
-50
73
-63
0
VERTEX
8
BOX01
10
0
20
0
30
0
70
128
71
-51
72
63
73
-62
0
VERTEX
8
BOX01
10
0
20
0
30
0
70
128
71
52
72
-51
73
-62
0
VERTEX
8
BOX01
10
0
20
0
30
0
70
128
71
-52
72
62
73
-61
0
VERTEX
8
BOX01
10
0
20
0
30
0
70
128
71
53
72
-52
73
-61
0
VERTEX
8
BOX01
10
0
20
0
30
0
70
128
71
54
72
-53
73
-61
0
VERTEX
8
BOX01
10
0
20
0
30
0
70
128
71
-54
72
61
73
-60
0
VERTEX
8
BOX01
10
0
20
0
30
0
70
128
71
55
72
-54
73
-60
0
VERTEX
8
BOX01
10
0
20
0
30
0
70
128
71
-55
72
60
73
-59
0
VERTEX
8
BOX01
10
0
20
0
30
0
70
128
71
-55
72
59
73
-58
0
VERTEX
8
BOX01
10
0
20
0
30
0
70
128
71
56
72
-55
73
-58
0
VERTEX
8
BOX01
10
0
20
0
30
0
70
128
71
-56
72
58
73
57
0
VERTEX
8
BOX01
10
0
20
0
30
0
70
128
71
49
72
50
73
-80
0
VERTEX
8
BOX01
10
0
20
0
30
0
70
128
71
-49
72
80
73
79
0
VERTEX
8
BOX01
10
0
20
0
30
0
70
128
71
50
72
51
73
-81
0
VERTEX
8
BOX01
10
0
20
0
30
0
70
128
71
-50
72
81
73
80
0
VERTEX
8
BOX01
10
0
20
0
30
0
70
128
71
51
72
52
73
-82
0
VERTEX
8
BOX01
10
0
20
0
30
0
70
128
71
-51
72
82
73
81
0
VERTEX
8
BOX01
10
0
20
0
30
0
70
128
71
52
72
53
73
-83
0
VERTEX
8
BOX01
10
0
20
0
30
0
70
128
71
-52
72
83
73
82
0
VERTEX
8
BOX01
10
0
20
0
30
0
70
128
71
53
72
54
73
-84
0
VERTEX
8
BOX01
10
0
20
0
30
0
70
128
71
-53
72
84
73
83
0
VERTEX
8
BOX01
10
0
20
0
30
0
70
128
71
54
72
55
73
-85
0
VERTEX
8
BOX01
10
0
20
0
30
0
70
128
71
-54
72
85
73
84
0
VERTEX
8
BOX01
10
0
20
0
30
0
70
128
71
55
72
56
73
-86
0
VERTEX
8
BOX01
10
0
20
0
30
0
70
128
71
-55
72
86
73
85
0
VERTEX
8
BOX01
10
0
20
0
30
0
70
128
71
56
72
57
73
-87
0
VERTEX
8
BOX01
10
0
20
0
30
0
70
128
71
-56
72
87
73
86
0
VERTEX
8
BOX01
10
0
20
0
30
0
70
128
71
57
72
58
73
-88
0
VERTEX
8
BOX01
10
0
20
0
30
0
70
128
71
-57
72
88
73
87
0
VERTEX
8
BOX01
10
0
20
0
30
0
70
128
71
58
72
59
73
-89
0
VERTEX
8
BOX01
10
0
20
0
30
0
70
128
71
-58
72
89
73
88
0
VERTEX
8
BOX01
10
0
20
0
30
0
70
128
71
59
72
60
73
-90
0
VERTEX
8
BOX01
10
0
20
0
30
0
70
128
71
-59
72
90
73
89
0
VERTEX
8
BOX01
10
0
20
0
30
0
70
128
71
60
72
61
73
-91
0
VERTEX
8
BOX01
10
0
20
0
30
0
70
128
71
-60
72
91
73
90
0
VERTEX
8
BOX01
10
0
20
0
30
0
70
128
71
61
72
62
73
-92
0
VERTEX
8
BOX01
10
0
20
0
30
0
70
128
71
-61
72
92
73
91
0
VERTEX
8
BOX01
10
0
20
0
30
0
70
128
71
62
72
63
73
-93
0
VERTEX
8
BOX01
10
0
20
0
30
0
70
128
71
-62
72
93
73
92
0
VERTEX
8
BOX01
10
0
20
0
30
0
70
128
71
63
72
64
73
-94
0
VERTEX
8
BOX01
10
0
20
0
30
0
70
128
71
-63
72
94
73
93
0
VERTEX
8
BOX01
10
0
20
0
30
0
70
128
71
64
72
65
73
-95
0
VERTEX
8
BOX01
10
0
20
0
30
0
70
128
71
-64
72
95
73
94
0
VERTEX
8
BOX01
10
0
20
0
30
0
70
128
71
65
72
66
73
-96
0
VERTEX
8
BOX01
10
0
20
0
30
0
70
128
71
-65
72
96
73
95
0
VERTEX
8
BOX01
10
0
20
0
30
0
70
128
71
66
72
67
73
-97
0
VERTEX
8
BOX01
10
0
20
0
30
0
70
128
71
-66
72
97
73
96
0
VERTEX
8
BOX01
10
0
20
0
30
0
70
128
71
67
72
68
73
-98
0
VERTEX
8
BOX01
10
0
20
0
30
0
70
128
71
-67
72
98
73
97
0
VERTEX
8
BOX01
10
0
20
0
30
0
70
128
71
68
72
69
73
-99
0
VERTEX
8
BOX01
10
0
20
0
30
0
70
128
71
-68
72
99
73
98
0
VERTEX
8
BOX01
10
0
20
0
30
0
70
128
71
69
72
70
73
-100
0
VERTEX
8
BOX01
10
0
20
0
30
0
70
128
71
-69
72
100
73
99
0
VERTEX
8
BOX01
10
0
20
0
30
0
70
128
71
70
72
71
73
-101
0
VERTEX
8
BOX01
10
0
20
0
30
0
70
128
71
-70
72
101
73
100
0
VERTEX
8
BOX01
10
0
20
0
30
0
70
128
71
71
72
72
73
-102
0
VERTEX
8
BOX01
10
0
20
0
30
0
70
128
71
-71
72
102
73
101
0
VERTEX
8
BOX01
10
0
20
0
30
0
70
128
71
72
72
73
73
-103
0
VERTEX
8
BOX01
10
0
20
0
30
0
70
128
71
-72
72
103
73
102
0
VERTEX
8
BOX01
10
0
20
0
30
0
70
128
71
73
72
74
73
-104
0
VERTEX
8
BOX01
10
0
20
0
30
0
70
128
71
-73
72
104
73
103
0
VERTEX
8
BOX01
10
0
20
0
30
0
70
128
71
74
72
75
73
-105
0
VERTEX
8
BOX01
10
0
20
0
30
0
70
128
71
-74
72
105
73
104
0
VERTEX
8
BOX01
10
0
20
0
30
0
70
128
71
75
72
76
73
-106
0
VERTEX
8
BOX01
10
0
20
0
30
0
70
128
71
-75
72
106
73
105
0
VERTEX
8
BOX01
10
0
20
0
30
0
70
128
71
76
72
77
73
-107
0
VERTEX
8
BOX01
10
0
20
0
30
0
70
128
71
-76
72
107
73
106
0
VERTEX
8
BOX01
10
0
20
0
30
0
70
128
71
77
72
78
73
-108
0
VERTEX
8
BOX01
10
0
20
0
30
0
70
128
71
-77
72
108
73
107
0
VERTEX
8
BOX01
10
0
20
0
30
0
70
128
71
78
72
49
73
-79
0
VERTEX
8
BOX01
10
0
20
0
30
0
70
128
71
-78
72
79
73
108
0
VERTEX
8
BOX01
10
0
20
0
30
0
70
128
71
101
72
102
73
-103
0
VERTEX
8
BOX01
10
0
20
0
30
0
70
128
71
100
72
-101
73
-103
0
VERTEX
8
BOX01
10
0
20
0
30
0
70
128
71
-100
72
103
73
-104
0
VERTEX
8
BOX01
10
0
20
0
30
0
70
128
71
99
72
-100
73
-104
0
VERTEX
8
BOX01
10
0
20
0
30
0
70
128
71
-99
72
104
73
-105
0
VERTEX
8
BOX01
10
0
20
0
30
0
70
128
71
-99
72
105
73
-106
0
VERTEX
8
BOX01
10
0
20
0
30
0
70
128
71
98
72
-99
73
-106
0
VERTEX
8
BOX01
10
0
20
0
30
0
70
128
71
-98
72
106
73
-107
0
VERTEX
8
BOX01
10
0
20
0
30
0
70
128
71
97
72
-98
73
-107
0
VERTEX
8
BOX01
10
0
20
0
30
0
70
128
71
96
72
-97
73
-107
0
VERTEX
8
BOX01
10
0
20
0
30
0
70
128
71
-96
72
107
73
-108
0
VERTEX
8
BOX01
10
0
20
0
30
0
70
128
71
95
72
-96
73
-108
0
VERTEX
8
BOX01
10
0
20
0
30
0
70
128
71
-95
72
108
73
79
0
VERTEX
8
BOX01
10
0
20
0
30
0
70
128
71
94
72
95
73
-79
0
VERTEX
8
BOX01
10
0
20
0
30
0
70
128
71
-94
72
79
73
80
0
VERTEX
8
BOX01
10
0
20
0
30
0
70
128
71
93
72
94
73
-80
0
VERTEX
8
BOX01
10
0
20
0
30
0
70
128
71
-93
72
80
73
-81
0
VERTEX
8
BOX01
10
0
20
0
30
0
70
128
71
92
72
-93
73
-81
0
VERTEX
8
BOX01
10
0
20
0
30
0
70
128
71
-92
72
81
73
-82
0
VERTEX
8
BOX01
10
0
20
0
30
0
70
128
71
91
72
-92
73
-82
0
VERTEX
8
BOX01
10
0
20
0
30
0
70
128
71
-91
72
82
73
-83
0
VERTEX
8
BOX01
10
0
20
0
30
0
70
128
71
-91
72
83
73
-84
0
VERTEX
8
BOX01
10
0
20
0
30
0
70
128
71
90
72
-91
73
-84
0
VERTEX
8
BOX01
10
0
20
0
30
0
70
128
71
-90
72
84
73
-85
0
VERTEX
8
BOX01
10
0
20
0
30
0
70
128
71
89
72
-90
73
-85
0
VERTEX
8
BOX01
10
0
20
0
30
0
70
128
71
88
72
-89
73
-85
0
VERTEX
8
BOX01
10
0
20
0
30
0
70
128
71
-88
72
85
73
-86
0
VERTEX
8
BOX01
10
0
20
0
30
0
70
128
71
87
72
-88
73
86
0
VERTEX
8
BOX01
10
0
20
0
30
0
70
128
71
109
72
110
73
-111
0
VERTEX
8
BOX01
10
0
20
0
30
0
70
128
71
-109
72
111
73
-112
0
VERTEX
8
BOX01
10
0
20
0
30
0
70
128
71
113
72
-109
73
-112
0
VERTEX
8
BOX01
10
0
20
0
30
0
70
128
71
-113
72
112
73
-114
0
VERTEX
8
BOX01
10
0
20
0
30
0
70
128
71
115
72
-113
73
-114
0
VERTEX
8
BOX01
10
0
20
0
30
0
70
128
71
116
72
-115
73
-114
0
VERTEX
8
BOX01
10
0
20
0
30
0
70
128
71
-116
72
114
73
-117
0
VERTEX
8
BOX01
10
0
20
0
30
0
70
128
71
118
72
-116
73
-117
0
VERTEX
8
BOX01
10
0
20
0
30
0
70
128
71
-118
72
117
73
-119
0
VERTEX
8
BOX01
10
0
20
0
30
0
70
128
71
-118
72
119
73
-120
0
VERTEX
8
BOX01
10
0
20
0
30
0
70
128
71
121
72
-118
73
-120
0
VERTEX
8
BOX01
10
0
20
0
30
0
70
128
71
-121
72
120
73
-122
0
VERTEX
8
BOX01
10
0
20
0
30
0
70
128
71
123
72
-121
73
122
0
VERTEX
8
BOX01
10
0
20
0
30
0
70
128
71
123
72
122
73
-124
0
VERTEX
8
BOX01
10
0
20
0
30
0
70
128
71
125
72
-123
73
124
0
VERTEX
8
BOX01
10
0
20
0
30
0
70
128
71
125
72
124
73
-126
0
VERTEX
8
BOX01
10
0
20
0
30
0
70
128
71
127
72
-125
73
-126
0
VERTEX
8
BOX01
10
0
20
0
30
0
70
128
71
-127
72
126
73
-128
0
VERTEX
8
BOX01
10
0
20
0
30
0
70
128
71
129
72
-127
73
-128
0
VERTEX
8
BOX01
10
0
20
0
30
0
70
128
71
-129
72
128
73
-130
0
VERTEX
8
BOX01
10
0
20
0
30
0
70
128
71
131
72
-129
73
-130
0
VERTEX
8
BOX01
10
0
20
0
30
0
70
128
71
132
72
-131
73
-130
0
VERTEX
8
BOX01
10
0
20
0
30
0
70
128
71
-132
72
130
73
-133
0
VERTEX
8
BOX01
10
0
20
0
30
0
70
128
71
134
72
-132
73
-133
0
VERTEX
8
BOX01
10
0
20
0
30
0
70
128
71
-134
72
133
73
-135
0
VERTEX
8
BOX01
10
0
20
0
30
0
70
128
71
-134
72
135
73
-136
0
VERTEX
8
BOX01
10
0
20
0
30
0
70
128
71
137
72
-134
73
-136
0
VERTEX
8
BOX01
10
0
20
0
30
0
70
128
71
-137
72
136
73
138
0
VERTEX
8
BOX01
10
0
20
0
30
0
70
128
71
123
72
125
73
-139
0
VERTEX
8
BOX01
10
0
20
0
30
0
70
128
71
-123
72
139
73
140
0
VERTEX
8
BOX01
10
0
20
0
30
0
70
128
71
125
72
127
73
-141
0
VERTEX
8
BOX01
10
0
20
0
30
0
70
128
71
-125
72
141
73
139
0
VERTEX
8
BOX01
10
0
20
0
30
0
70
128
71
127
72
129
73
-142
0
VERTEX
8
BOX01
10
0
20
0
30
0
70
128
71
-127
72
142
73
141
0
VERTEX
8
BOX01
10
0
20
0
30
0
70
128
71
129
72
131
73
-143
0
VERTEX
8
BOX01
10
0
20
0
30
0
70
128
71
-129
72
143
73
142
0
VERTEX
8
BOX01
10
0
20
0
30
0
70
128
71
131
72
132
73
-144
0
VERTEX
8
BOX01
10
0
20
0
30
0
70
128
71
-131
72
144
73
143
0
VERTEX
8
BOX01
10
0
20
0
30
0
70
128
71
132
72
134
73
-145
0
VERTEX
8
BOX01
10
0
20
0
30
0
70
128
71
-132
72
145
73
144
0
VERTEX
8
BOX01
10
0
20
0
30
0
70
128
71
134
72
137
73
-146
0
VERTEX
8
BOX01
10
0
20
0
30
0
70
128
71
-134
72
146
73
145
0
VERTEX
8
BOX01
10
0
20
0
30
0
70
128
71
137
72
138
73
-147
0
VERTEX
8
BOX01
10
0
20
0
30
0
70
128
71
-137
72
147
73
146
0
VERTEX
8
BOX01
10
0
20
0
30
0
70
128
71
138
72
136
73
-148
0
VERTEX
8
BOX01
10
0
20
0
30
0
70
128
71
-138
72
148
73
147
0
VERTEX
8
BOX01
10
0
20
0
30
0
70
128
71
136
72
135
73
-149
0
VERTEX
8
BOX01
10
0
20
0
30
0
70
128
71
-136
72
149
73
148
0
VERTEX
8
BOX01
10
0
20
0
30
0
70
128
71
135
72
133
73
-150
0
VERTEX
8
BOX01
10
0
20
0
30
0
70
128
71
-135
72
150
73
149
0
VERTEX
8
BOX01
10
0
20
0
30
0
70
128
71
133
72
130
73
-151
0
VERTEX
8
BOX01
10
0
20
0
30
0
70
128
71
-133
72
151
73
150
0
VERTEX
8
BOX01
10
0
20
0
30
0
70
128
71
130
72
128
73
-152
0
VERTEX
8
BOX01
10
0
20
0
30
0
70
128
71
-130
72
152
73
151
0
VERTEX
8
BOX01
10
0
20
0
30
0
70
128
71
128
72
126
73
-153
0
VERTEX
8
BOX01
10
0
20
0
30
0
70
128
71
-128
72
153
73
152
0
VERTEX
8
BOX01
10
0
20
0
30
0
70
128
71
126
72
124
73
-154
0
VERTEX
8
BOX01
10
0
20
0
30
0
70
128
71
-126
72
154
73
153
0
VERTEX
8
BOX01
10
0
20
0
30
0
70
128
71
124
72
122
73
-155
0
VERTEX
8
BOX01
10
0
20
0
30
0
70
128
71
-124
72
155
73
154
0
VERTEX
8
BOX01
10
0
20
0
30
0
70
128
71
122
72
120
73
-156
0
VERTEX
8
BOX01
10
0
20
0
30
0
70
128
71
-122
72
156
73
155
0
VERTEX
8
BOX01
10
0
20
0
30
0
70
128
71
120
72
119
73
-157
0
VERTEX
8
BOX01
10
0
20
0
30
0
70
128
71
-120
72
157
73
156
0
VERTEX
8
BOX01
10
0
20
0
30
0
70
128
71
119
72
117
73
-158
0
VERTEX
8
BOX01
10
0
20
0
30
0
70
128
71
-119
72
158
73
157
0
VERTEX
8
BOX01
10
0
20
0
30
0
70
128
71
117
72
114
73
-159
0
VERTEX
8
BOX01
10
0
20
0
30
0
70
128
71
-117
72
159
73
158
0
VERTEX
8
BOX01
10
0
20
0
30
0
70
128
71
114
72
112
73
-160
0
VERTEX
8
BOX01
10
0
20
0
30
0
70
128
71
-114
72
160
73
159
0
VERTEX
8
BOX01
10
0
20
0
30
0
70
128
71
112
72
111
73
-161
0
VERTEX
8
BOX01
10
0
20
0
30
0
70
128
71
-112
72
161
73
160
0
VERTEX
8
BOX01
10
0
20
0
30
0
70
128
71
111
72
110
73
-162
0
VERTEX
8
BOX01
10
0
20
0
30
0
70
128
71
-111
72
162
73
161
0
VERTEX
8
BOX01
10
0
20
0
30
0
70
128
71
110
72
109
73
-163
0
VERTEX
8
BOX01
10
0
20
0
30
0
70
128
71
-110
72
163
73
162
0
VERTEX
8
BOX01
10
0
20
0
30
0
70
128
71
109
72
113
73
-164
0
VERTEX
8
BOX01
10
0
20
0
30
0
70
128
71
-109
72
164
73
163
0
VERTEX
8
BOX01
10
0
20
0
30
0
70
128
71
113
72
115
73
-165
0
VERTEX
8
BOX01
10
0
20
0
30
0
70
128
71
-113
72
165
73
164
0
VERTEX
8
BOX01
10
0
20
0
30
0
70
128
71
115
72
116
73
-166
0
VERTEX
8
BOX01
10
0
20
0
30
0
70
128
71
-115
72
166
73
165
0
VERTEX
8
BOX01
10
0
20
0
30
0
70
128
71
116
72
118
73
-167
0
VERTEX
8
BOX01
10
0
20
0
30
0
70
128
71
-116
72
167
73
166
0
VERTEX
8
BOX01
10
0
20
0
30
0
70
128
71
118
72
121
73
-168
0
VERTEX
8
BOX01
10
0
20
0
30
0
70
128
71
-118
72
168
73
167
0
VERTEX
8
BOX01
10
0
20
0
30
0
70
128
71
121
72
123
73
-140
0
VERTEX
8
BOX01
10
0
20
0
30
0
70
128
71
-121
72
140
73
168
0
VERTEX
8
BOX01
10
0
20
0
30
0
70
128
71
161
72
162
73
-163
0
VERTEX
8
BOX01
10
0
20
0
30
0
70
128
71
160
72
-161
73
-163
0
VERTEX
8
BOX01
10
0
20
0
30
0
70
128
71
-160
72
163
73
-164
0
VERTEX
8
BOX01
10
0
20
0
30
0
70
128
71
159
72
-160
73
-164
0
VERTEX
8
BOX01
10
0
20
0
30
0
70
128
71
-159
72
164
73
-165
0
VERTEX
8
BOX01
10
0
20
0
30
0
70
128
71
-159
72
165
73
-166
0
VERTEX
8
BOX01
10
0
20
0
30
0
70
128
71
158
72
-159
73
-166
0
VERTEX
8
BOX01
10
0
20
0
30
0
70
128
71
-158
72
166
73
-167
0
VERTEX
8
BOX01
10
0
20
0
30
0
70
128
71
157
72
-158
73
-167
0
VERTEX
8
BOX01
10
0
20
0
30
0
70
128
71
156
72
-157
73
-167
0
VERTEX
8
BOX01
10
0
20
0
30
0
70
128
71
-156
72
167
73
-168
0
VERTEX
8
BOX01
10
0
20
0
30
0
70
128
71
155
72
-156
73
-168
0
VERTEX
8
BOX01
10
0
20
0
30
0
70
128
71
-155
72
168
73
140
0
VERTEX
8
BOX01
10
0
20
0
30
0
70
128
71
154
72
155
73
-140
0
VERTEX
8
BOX01
10
0
20
0
30
0
70
128
71
-154
72
140
73
139
0
VERTEX
8
BOX01
10
0
20
0
30
0
70
128
71
153
72
154
73
-139
0
VERTEX
8
BOX01
10
0
20
0
30
0
70
128
71
-153
72
139
73
-141
0
VERTEX
8
BOX01
10
0
20
0
30
0
70
128
71
152
72
-153
73
-141
0
VERTEX
8
BOX01
10
0
20
0
30
0
70
128
71
-152
72
141
73
-142
0
VERTEX
8
BOX01
10
0
20
0
30
0
70
128
71
151
72
-152
73
-142
0
VERTEX
8
BOX01
10
0
20
0
30
0
70
128
71
-151
72
142
73
-143
0
VERTEX
8
BOX01
10
0
20
0
30
0
70
128
71
-151
72
143
73
-144
0
VERTEX
8
BOX01
10
0
20
0
30
0
70
128
71
150
72
-151
73
-144
0
VERTEX
8
BOX01
10
0
20
0
30
0
70
128
71
-150
72
144
73
-145
0
VERTEX
8
BOX01
10
0
20
0
30
0
70
128
71
149
72
-150
73
-145
0
VERTEX
8
BOX01
10
0
20
0
30
0
70
128
71
148
72
-149
73
-145
0
VERTEX
8
BOX01
10
0
20
0
30
0
70
128
71
-148
72
145
73
-146
0
VERTEX
8
BOX01
10
0
20
0
30
0
70
128
71
147
72
-148
73
146
0
SEQEND
8
BOX01
0
ENDSEC
0
EOF
